<?xml version="1.0" encoding="utf-8"?>
<!-- Generator: Adobe Illustrator 17.0.2, SVG Export Plug-In . SVG Version: 6.00 Build 0)  -->
<!DOCTYPE svg PUBLIC "-//W3C//DTD SVG 1.1//EN" "http://www.w3.org/Graphics/SVG/1.1/DTD/svg11.dtd">
<svg version="1.1" id="Favicon" xmlns="http://www.w3.org/2000/svg" xmlns:xlink="http://www.w3.org/1999/xlink" x="0px" y="0px"
	 width="64px" height="64px" viewBox="0 0 64 64" style="enable-background:new 0 0 64 64;" xml:space="preserve">
<circle style="fill:#FFFFFF;" cx="32" cy="32" r="30"/>
<g>
	<path style="fill:#87B91D;" d="M35.522,30.569c-4.088,0.929-4.086,7.105-4.086,7.105s2.819,0.397,5.635-1.179
		C40.318,34.673,39.606,29.644,35.522,30.569z"/>
	<path style="fill:#87B91D;" d="M27.002,30.561c-4.085-0.93-4.801,4.103-1.553,5.924c2.816,1.578,5.636,1.178,5.636,1.178
		S31.084,31.489,27.002,30.561z"/>
	<path style="fill:#87B91D;" d="M32,0C14.327,0,0,14.327,0,32c0,17.673,14.327,32,32,32s32-14.327,32-32C64,14.327,49.673,0,32,0z
		 M48.966,38.801l5.184,6.031c-0.07,2.547-1.121,7.74-8.526,7.74c-6.934,0-10.666-4.133-14.545-13.216h-0.015l-1.489,9.631
		c-1.328,1.172-3.936,3.586-9.487,3.586c-5.616,0-8.347-1.622-8.347-4.962c0-4.654,3.989-33.011,4.505-36.682
		c1.093-0.579,4.917-2.392,10.155-2.392c6.292,0,7.099,2.387,7.099,4.461c0,2.354-1.004,14.338-1.023,14.455
		c0.086-0.363,2.931-8.778,13.453-8.778c5.948,0,9.22,3.23,9.22,9.095c0,4.055-2.285,7.814-5.962,9.815l-0.868,0.471L48.966,38.801z
		"/>
</g>
</svg>
