<?xml version="1.0" encoding="utf-8"?>
<!-- Generator: Adobe Illustrator 17.0.2, SVG Export Plug-In . SVG Version: 6.00 Build 0)  -->
<!DOCTYPE svg PUBLIC "-//W3C//DTD SVG 1.1//EN" "http://www.w3.org/Graphics/SVG/1.1/DTD/svg11.dtd">
<svg version="1.1" id="Favicon" xmlns="http://www.w3.org/2000/svg" xmlns:xlink="http://www.w3.org/1999/xlink" x="0px" y="0px"
	 width="196px" height="196px" viewBox="16.5 48.5 196 196" style="enable-background:new 16.5 48.5 196 196;" xml:space="preserve"
	>
<circle style="fill:#FFFFFF;" cx="114.5" cy="146.5" r="91.875"/>
<g>
	<path style="fill:#87B91D;" d="M125.286,142.118c-12.52,2.845-12.513,21.759-12.513,21.759s8.633,1.216,17.257-3.611
		C139.974,154.686,137.793,139.285,125.286,142.118z"/>
	<path style="fill:#87B91D;" d="M99.194,142.093c-12.51-2.848-14.703,12.565-4.756,18.142c8.624,4.833,17.26,3.608,17.26,3.608
		S111.695,144.935,99.194,142.093z"/>
	<path style="fill:#87B91D;" d="M114.5,48.5c-54.124,0-98,43.876-98,98s43.876,98,98,98s98-43.876,98-98S168.624,48.5,114.5,48.5z
		 M166.458,167.328l15.876,18.47c-0.214,7.8-3.433,23.704-26.111,23.704c-21.235,0-32.665-12.657-44.544-40.474h-0.046l-4.56,29.495
		c-4.067,3.589-12.054,10.982-29.054,10.982c-17.199,0-25.563-4.967-25.563-15.196c0-14.253,12.216-101.096,13.797-112.339
		c3.347-1.773,15.058-7.326,31.1-7.326c19.269,0,21.741,7.31,21.741,13.662c0,7.209-3.075,43.91-3.133,44.268
		c0.263-1.112,8.976-26.883,41.2-26.883c18.216,0,28.236,9.892,28.236,27.853c0,12.418-6.998,23.93-18.259,30.058l-2.658,1.442
		L166.458,167.328z"/>
</g>
</svg>
