<?xml version="1.0" encoding="utf-8"?>
<!-- Generator: Adobe Illustrator 17.0.2, SVG Export Plug-In . SVG Version: 6.00 Build 0)  -->
<!DOCTYPE svg PUBLIC "-//W3C//DTD SVG 1.1//EN" "http://www.w3.org/Graphics/SVG/1.1/DTD/svg11.dtd">
<svg version="1.1" id="Kochabo_Sign" xmlns="http://www.w3.org/2000/svg" xmlns:xlink="http://www.w3.org/1999/xlink" x="0px"
	 y="0px" width="30px" height="30px" viewBox="0 0 30 30" style="enable-background:new 0 0 30 30;" xml:space="preserve">
<path style="fill:#FFFFFF;" d="M24.858,20.11l0.59-0.321c2.499-1.363,4.052-3.924,4.052-6.686c0-3.996-2.223-6.196-6.266-6.196
	c-7.151,0-9.084,5.732-9.142,5.98c0.013-0.08,0.695-8.244,0.695-9.848C14.787,1.626,14.239,0,9.963,0
	C6.403,0,3.804,1.235,3.062,1.63C2.71,4.131,0,23.449,0,26.62C0,28.895,1.856,30,5.673,30c3.773,0,5.545-1.644,6.447-2.443
	l1.012-6.561h0.01C15.778,27.184,18.314,30,23.026,30c5.032,0,5.746-3.538,5.794-5.273l-3.523-4.108L24.858,20.11z M9.315,19.04
	c-2.207-1.24-1.72-4.669,1.056-4.035c2.774,0.632,2.774,4.838,2.774,4.838S11.229,20.115,9.315,19.04z M17.213,19.047
	c-1.914,1.074-3.829,0.804-3.829,0.804s-0.002-4.208,2.776-4.84C18.936,14.381,19.42,17.806,17.213,19.047z"/>
</svg>
