<?xml version="1.0" encoding="utf-8"?>
<!-- Generator: Adobe Illustrator 17.0.2, SVG Export Plug-In . SVG Version: 6.00 Build 0)  -->
<!DOCTYPE svg PUBLIC "-//W3C//DTD SVG 1.1//EN" "http://www.w3.org/Graphics/SVG/1.1/DTD/svg11.dtd">
<svg version="1.1" id="logo-inline" xmlns="http://www.w3.org/2000/svg" xmlns:xlink="http://www.w3.org/1999/xlink" x="0px"
	 y="0px" width="258px" height="40px" viewBox="0 0 258 40" style="enable-background:new 0 0 258 40;" xml:space="preserve">
<g>
	<path style="fill:#58595B;" d="M136.017,20.438c4.237,0,5.741-1.797,5.741-3.337c0-1.421-0.623-1.982-0.893-2.157
		c-0.447,0.241-1.734,0.863-3.149,0.863c-1.362,0-2.174-0.639-2.174-1.709c0-1.764,0.733-2.516,2.452-2.516
		c1.28,0,2.592,0.308,2.988,0.411c0.326-0.171,1.409-0.875,1.409-2.664c0-1.513-0.58-3.061-4.879-3.061
		c-5.28,0-8.558,3.078-8.558,8.032C128.954,18.143,131.594,20.438,136.017,20.438z"/>
	<path style="fill:#58595B;" d="M149.361,2.433c-2.124,0-3.675,0.73-4.119,0.965c-0.099,0.745-0.184,1.428-0.343,2.723
		c-0.228,1.851-0.612,4.947-1.41,11.246c-0.052,0.404-0.074,0.665-0.074,0.819c0,0.496,0,2,3.383,2c2.409,0,3.461-1.128,3.673-1.392
		l0.827-6.678l0.015-0.133l0.107-0.082c0.043-0.032,0.436-0.319,1.035-0.319c0.573,0,0.929,0.364,0.929,0.952
		c0,0.62-0.174,1.539-0.359,2.512c-0.199,1.039-0.402,2.113-0.402,2.863c0,0.563,0,2.276,3.459,2.276
		c3.383,0,4.211-2.105,4.354-2.582c-0.099-0.254-0.312-0.914-0.312-1.891c0-0.685,0.139-1.635,0.274-2.553
		c0.127-0.868,0.259-1.766,0.259-2.367c0-2.594-1.577-4.271-4.016-4.271c-3.613,0-4.811,3.327-4.82,3.361
		c0.007-0.04,0.413-4.182,0.413-5.602C152.234,2.656,150.853,2.433,149.361,2.433z"/>
	<path style="fill:#58595B;" d="M191.906,6.522c-2.273,0-3.296,1.437-3.338,1.498l-0.732,1.059l0.146-1.276l0.152-1.312
		c0.086-1.555,0.845-2.46,1.155-2.769c-0.057-0.52-0.458-2.349-3.22-2.349c-2.791,0-4.562,1.459-4.854,4.004
		c-0.012,0.086-1.114,7.863-1.114,10.334c0,3.697,3.825,4.473,7.036,4.473c5.714,0,8.862-2.843,8.862-8.006
		C195.997,8.425,194.62,6.522,191.906,6.522z M187.896,15.754c-0.449,0-0.674-0.164-0.714-0.199l-0.137-0.113l0.023-0.175
		c0.189-1.4,0.289-2.281,0.376-3.058l0.057-0.496c0.068-0.746,0.471-1.215,1.054-1.215c0.462,0,1.009,0.247,1.009,1.428
		C189.564,14.324,188.941,15.754,187.896,15.754z"/>
	<path style="fill:#58595B;" d="M221.087,12.961c-3.654,0-5.078,1.292-5.078,4.613c0,2.116,1.065,2.864,4.072,2.864
		c3.641,0,5.127-1.359,5.127-4.689C225.208,14.301,224.709,12.961,221.087,12.961z"/>
	<path style="fill:#58595B;" d="M256.83,14.76l-2.785,0.557l-0.443,0.09l0.06-0.445l0.49-3.624l0.037-0.277h0.283h0.904
		c1.74,0,2.623-0.929,2.623-2.761c0-1.296-0.323-1.844-0.46-2.019h-2.24h-0.37l0.051-0.364c0.002-0.016,0.204-1.455,0.204-2.524
		c0-0.96-0.332-1.479-2.082-1.479c-0.901,0-2.02,0.349-2.394,0.475l-1.753,4.057l-0.065,0.151l-0.162,0.037
		c-1.969,0.431-2.847,1.452-2.847,3.31c0,0.561,0.112,0.93,0.188,1.118h0.885h0.438l-0.131,0.416
		c-0.005,0.018-0.553,1.784-0.553,3.99c0,3.03,1.935,4.766,5.311,4.766c3.418,0,5.54-1.284,5.54-3.353
		C257.56,15.642,257.052,14.987,256.83,14.76z"/>
	<path style="fill:#58595B;" d="M243.961,8.27c0-1.302-0.965-1.908-3.037-1.908c-1.122,0-2.045,0.19-2.315,0.253l-1.396,3.724
		l-0.002-0.884c0-0.126-0.047-3.094-3.491-3.094c-3.775,0-6.514,3.435-6.514,8.166c0,3.807,1.603,5.819,4.635,5.819
		c1.415,0,4.218-0.509,4.954-4.282c0,0.009-0.126,0.853-0.126,1.439c0,1.939,0.812,2.842,2.554,2.842
		c2.035,0,3.739-1.129,4.168-2.753c-0.079-0.189-0.32-0.849-0.32-1.881c0-0.162,0-0.313,0.838-6.811
		C243.942,8.692,243.961,8.455,243.961,8.27z M236.272,12.077c-0.185,1.409-0.238,1.878-0.305,2.491l-0.047,0.426
		c-0.074,0.782-0.501,1.269-1.112,1.269c-0.396,0-1.059-0.193-1.059-1.485c0-0.972,0-3.25,1.642-3.25
		c0.274,0,0.496,0.058,0.701,0.179l0.212,0.126L236.272,12.077z"/>
	<path style="fill:#58595B;" d="M178.593,8.27c0-0.814-0.326-1.748-2.875-1.748c-1.012,0-2.008,0.109-2.347,0.183l-1.038,2.804
		l-0.324,0.83l-0.086-0.884c-0.002-0.119-0.13-2.933-3.409-2.933c-3.681,0-6.351,3.365-6.351,8.005c0,3.756,1.505,5.659,4.474,5.659
		c1.365,0,4.237-0.46,4.953-4.121c0,0.009-0.002,0.858-0.002,1.432c0.088,1.896,0.776,2.689,2.431,2.689
		c1.94,0,3.566-1.055,3.999-2.582c-0.097-0.254-0.311-0.914-0.311-1.891c0-0.174,0-0.323,0.838-6.827
		C178.576,8.676,178.593,8.448,178.593,8.27z M171.038,12.077c-0.188,1.409-0.239,1.878-0.307,2.491l-0.046,0.426
		c-0.075,0.782-0.501,1.269-1.112,1.269c-0.396,0-1.06-0.193-1.06-1.485c0-0.972,0-3.25,1.644-3.25c0.273,0,0.496,0.058,0.701,0.179
		l0.212,0.126L171.038,12.077z"/>
	<path style="fill:#58595B;" d="M217.25,3.978c-1.182,0-1.734,0.146-1.942,0.225c-0.144,0.712-0.88,3.294-4.164,4.082l-0.178,0.043
		l-0.128-0.129c-1.233-1.244-3.082-1.93-5.21-1.93c-5.043,0-8.302,3.162-8.302,8.056c0,4.509,3.659,6.114,7.084,6.114
		c4.607,0,7.783-2.755,8.094-7.018l0.02-0.271l0.271-0.026c4.897-0.461,7.278-2.436,7.278-6.034
		C220.073,5.141,219.018,3.978,217.25,3.978z M204.926,16.354c-1.14,0-1.14-1.181-1.14-1.815c0-2.564,0.855-3.102,1.571-3.102
		c0.522,0,1.141,0.271,1.141,1.563C206.498,14.671,206.012,16.354,204.926,16.354z"/>
	<path style="fill:#58595B;" d="M120.565,6.268c-5.045,0-8.304,3.162-8.304,8.056c0,4.509,3.66,6.114,7.085,6.114
		c4.937,0,8.127-3.042,8.127-7.752C127.472,8.787,124.761,6.268,120.565,6.268z M119.879,16.354c-1.139,0-1.139-1.181-1.139-1.815
		c0-2.564,0.855-3.102,1.571-3.102c0.521,0,1.14,0.271,1.14,1.563C121.451,14.671,120.966,16.354,119.879,16.354z"/>
	<path style="fill:#58595B;" d="M108.086,14.334l0.352-0.19c1.491-0.806,2.417-2.322,2.417-3.956c0-2.365-1.326-3.667-3.737-3.667
		c-4.266,0-5.419,3.392-5.454,3.539c0.007-0.048,0.415-4.879,0.415-5.828c0-0.837-0.327-1.799-2.877-1.799
		c-2.124,0-3.673,0.731-4.116,0.965c-0.21,1.48-1.826,12.912-1.826,14.789c0,1.346,1.107,2,3.383,2c2.251,0,3.308-0.973,3.846-1.446
		l0.603-3.883h0.006c1.572,3.662,3.085,5.328,5.896,5.328c3.002,0,3.428-2.094,3.456-3.121l-2.101-2.431L108.086,14.334z
		 M98.815,13.701c-1.317-0.734-1.027-2.764,0.629-2.388c1.655,0.374,1.655,2.863,1.655,2.863S99.956,14.337,98.815,13.701z
		 M103.526,13.705c-1.141,0.636-2.284,0.476-2.284,0.476s-0.001-2.49,1.656-2.864C104.554,10.944,104.843,12.971,103.526,13.705z"/>
	<g>
		<path style="fill:#7FC143;" d="M100.926,37.198c0,0-1.283,1.613-3.228,1.613c-1.855,0-3.815-0.723-3.815-3.717
			c0-2.719,1.282-4.531,3.768-4.531c1.837,0,3.166,1.136,3.166,3.117v0.738h-5.977c-0.016,0.216-0.031,0.431-0.031,0.645
			c0,2.195,1.498,2.857,2.889,2.857c1.451,0,2.702-1.276,2.702-1.276L100.926,37.198z M94.995,33.526h4.911
			c-0.077-1.244-0.911-2.103-2.254-2.103C96.324,31.423,95.397,32.221,94.995,33.526z"/>
		<path style="fill:#7FC143;" d="M102.777,37.705h1.188v-6.037h-1.344v-0.876h1.405c0.495,0,0.865,0.431,0.865,1.03v5.883h1.206
			v0.875h-3.32V37.705z M104.29,28.242c0.448,0,0.787,0.339,0.787,0.784c0,0.431-0.339,0.768-0.787,0.768
			c-0.433,0-0.771-0.337-0.771-0.768C103.519,28.581,103.857,28.242,104.29,28.242z"/>
		<path style="fill:#7FC143;" d="M107.795,37.705h1.188v-6.037h-1.344v-0.876h1.407c0.494,0,0.865,0.431,0.865,1.03v1.643
			c0.046-0.139,0.911-2.902,3.165-2.902c2.008,0,2.502,1.643,2.502,3.485v3.657h1.344v0.875h-1.405c-0.495,0-0.865-0.43-0.865-1.03
			v-3.47c0-1.336-0.37-2.611-1.576-2.611c-2.162,0-3.165,3.641-3.165,3.855v2.382h1.204v0.875h-3.32V37.705z"/>
		<path style="fill:#7FC143;" d="M118.958,30.792h1.003v-1.228c0-1.674,0.928-2.503,2.301-2.503c0.711,0,1.282,0.523,1.282,0.523
			l-0.433,0.659c0,0-0.432-0.276-0.818-0.276c-0.772,0-1.389,0.461-1.389,1.628v1.198h2.24v0.876h-2.254v6.037h1.513v0.875h-3.629
			v-0.875h1.188v-6.037h-1.003V30.792z"/>
		<path style="fill:#7FC143;" d="M124.933,36.691c0-2.151,1.868-2.566,3.691-2.566h2.364v-0.292c0-1.643-0.727-2.41-2.502-2.41
			c-1.206,0-2.332,0.475-2.332,1.52c0,0.399,0.077,0.691,0.093,0.844h-0.85c0,0-0.153-0.276-0.153-0.83
			c0-1.797,1.574-2.395,3.243-2.395c2.486,0,3.429,0.952,3.429,3.27v3.872h1.344v0.875h-1.407c-0.494,0-0.864-0.43-0.864-1.03
			v-1.459c-0.047,0.123-0.834,2.719-3.336,2.719C125.921,38.81,124.933,37.95,124.933,36.691z M130.863,34.985h-2.24
			c-1.297,0-2.764,0.215-2.764,1.674c0,0.661,0.68,1.244,1.792,1.244C129.227,37.904,130.323,36.152,130.863,34.985z"/>
		<path style="fill:#7FC143;" d="M141.781,37.198c0,0-1.298,1.613-3.244,1.613c-1.853,0-3.892-0.815-3.892-3.825
			c0-2.641,1.282-4.423,3.768-4.423c1.837,0,3.166,0.998,3.166,2.902c0,0.399-0.092,0.86-0.092,0.86h-0.865
			c0,0,0.046-0.568,0.046-0.875c0-1.152-0.849-2.027-2.254-2.027c-1.792,0-2.842,1.304-2.842,3.532c0,2.227,1.574,2.965,2.965,2.965
			c1.452,0,2.718-1.276,2.718-1.276L141.781,37.198z"/>
		<path style="fill:#7FC143;" d="M143.091,37.705h1.189V28.15h-1.344v-0.874h1.404c0.495,0,0.866,0.428,0.866,1.028v5.16
			c0.031-0.139,0.895-2.902,3.166-2.902c2.006,0,2.501,1.643,2.501,3.485v3.657h1.344v0.875h-1.405c-0.494,0-0.865-0.43-0.865-1.03
			v-3.47c0-1.336-0.37-2.611-1.574-2.611c-1.963,0-2.981,3.149-3.166,3.855v2.382h1.203v0.875h-3.319V37.705z"/>
		<path style="fill:#7FC143;" d="M158.856,37.705h1.188V28.15H158.7v-0.874h1.407c0.494,0,0.865,0.428,0.865,1.028v6.482l3.35-3.38
			c0.401-0.399,0.788-0.615,1.266-0.615h0.711v0.876h-0.972l-1.977,1.966l3.645,4.071h0.988v0.875h-0.896
			c-0.556,0-0.818-0.245-1.128-0.614l-3.29-3.625l-1.698,1.721v1.643h1.203v0.875h-3.319V37.705z"/>
		<path style="fill:#7FC143;" d="M172.351,38.81c-2.101,0-3.754-1.382-3.754-4.133c0-2.273,1.545-4.115,3.754-4.115
			s3.768,1.811,3.768,4.115C176.119,37.429,174.451,38.81,172.351,38.81z M175.193,34.648c0-1.859-1.22-3.225-2.842-3.225
			c-1.623,0-2.827,1.366-2.827,3.225c0,2.211,1.313,3.302,2.827,3.302C173.864,37.95,175.193,36.875,175.193,34.648z"/>
		<path style="fill:#7FC143;" d="M185.028,37.198c0,0-1.298,1.613-3.244,1.613c-1.852,0-3.892-0.815-3.892-3.825
			c0-2.641,1.282-4.423,3.768-4.423c1.837,0,3.167,0.998,3.167,2.902c0,0.399-0.094,0.86-0.094,0.86h-0.865
			c0,0,0.046-0.568,0.046-0.875c0-1.152-0.848-2.027-2.254-2.027c-1.792,0-2.842,1.304-2.842,3.532c0,2.227,1.576,2.965,2.965,2.965
			c1.452,0,2.72-1.276,2.72-1.276L185.028,37.198z"/>
		<path style="fill:#7FC143;" d="M186.338,37.705h1.189V28.15h-1.344v-0.874h1.404c0.496,0,0.866,0.428,0.866,1.028v5.16
			c0.031-0.139,0.895-2.902,3.166-2.902c2.006,0,2.502,1.643,2.502,3.485v3.657h1.342v0.875h-1.405c-0.494,0-0.865-0.43-0.865-1.03
			v-3.47c0-1.336-0.37-2.611-1.574-2.611c-1.962,0-2.981,3.149-3.166,3.855v2.382h1.204v0.875h-3.32V37.705z"/>
		<path style="fill:#7FC143;" d="M203.819,37.198c0,0-1.283,1.613-3.229,1.613c-1.852,0-3.813-0.723-3.813-3.717
			c0-2.719,1.282-4.531,3.768-4.531c1.837,0,3.165,1.136,3.165,3.117v0.738h-5.976c-0.016,0.216-0.032,0.431-0.032,0.645
			c0,2.195,1.499,2.857,2.887,2.857c1.452,0,2.703-1.276,2.703-1.276L203.819,37.198z M197.889,33.526h4.911
			c-0.078-1.244-0.912-2.103-2.254-2.103C199.217,31.423,198.289,32.221,197.889,33.526z"/>
		<path style="fill:#7FC143;" d="M205.67,37.705h1.189v-6.037h-1.344v-0.876h1.404c0.495,0,0.866,0.431,0.866,1.03v1.643
			c0.047-0.139,0.911-2.902,3.166-2.902c2.006,0,2.502,1.643,2.502,3.485v3.657h1.342v0.875h-1.405c-0.494,0-0.865-0.43-0.865-1.03
			v-3.47c0-1.336-0.37-2.611-1.574-2.611c-2.163,0-3.166,3.641-3.166,3.855v2.382h1.203v0.875h-3.319V37.705z"/>
		<path style="fill:#7FC143;" d="M216.648,38.012c0-0.399,0.263-0.799,0.772-0.799c0.478,0,0.787,0.337,0.787,0.815
			c0,0.46-0.31,0.783-0.787,0.783C216.927,38.81,216.648,38.41,216.648,38.012z"/>
	</g>
	<g>
		<g>
			<g>
				<path style="fill:#7FC143;" d="M63.98,1.482C41.84,6.486,41.849,39.76,41.849,39.76s15.284,2.14,30.528-6.354
					C89.995,23.588,86.118-3.524,63.98,1.482z"/>
			</g>
			<linearGradient id="SVGID_1_" gradientUnits="userSpaceOnUse" x1="33.3412" y1="32.899" x2="80.7583" y2="19.0318">
				<stop  offset="0.1531" style="stop-color:#181C0E;stop-opacity:0.7"/>
				<stop  offset="0.2512" style="stop-color:#1D2310;stop-opacity:0.6189"/>
				<stop  offset="0.3955" style="stop-color:#2A3716;stop-opacity:0.4997"/>
				<stop  offset="0.5683" style="stop-color:#40571F;stop-opacity:0.3568"/>
				<stop  offset="0.763" style="stop-color:#5F842C;stop-opacity:0.1959"/>
				<stop  offset="0.9738" style="stop-color:#86BD3D;stop-opacity:0.0217"/>
				<stop  offset="1" style="stop-color:#8BC53F;stop-opacity:0"/>
			</linearGradient>
			<path style="fill:url(#SVGID_1_);" d="M41.849,39.76l38.53-33.844c0,0,6.127,7.085,1.004,18.133
				c-0.792,1.71-3.28,5.424-6.237,7.546C74.632,31.963,61.633,41.523,41.849,39.76z"/>
		</g>
		<g>
			<g>
				<path style="fill:#7FC143;" d="M0.972,20.225c6.41,21.661,39.799,19.569,39.799,19.569s1.19-15.305-8.288-29.904
					C21.525-6.983-5.437-1.436,0.972,20.225z"/>
			</g>
			
				<linearGradient id="SVGID_2_" gradientUnits="userSpaceOnUse" x1="1548.2161" y1="-1227.4476" x2="1595.4812" y2="-1241.2704" gradientTransform="matrix(-0.0627 -0.998 0.998 -0.0627 1356.3812 1516.9034)">
				<stop  offset="0.1531" style="stop-color:#181C0E;stop-opacity:0.7"/>
				<stop  offset="0.2512" style="stop-color:#1D2310;stop-opacity:0.6189"/>
				<stop  offset="0.3955" style="stop-color:#2A3716;stop-opacity:0.4997"/>
				<stop  offset="0.5683" style="stop-color:#40571F;stop-opacity:0.3568"/>
				<stop  offset="0.763" style="stop-color:#5F842C;stop-opacity:0.1959"/>
				<stop  offset="0.9738" style="stop-color:#86BD3D;stop-opacity:0.0217"/>
				<stop  offset="1" style="stop-color:#8BC53F;stop-opacity:0"/>
			</linearGradient>
			<path style="fill:url(#SVGID_2_);" d="M40.771,39.793L4.395,3.668c0,0,6.726-6.525,18.133-2.132
				c1.766,0.68,5.648,2.915,7.963,5.718C30.893,7.741,41.301,20.045,40.771,39.793z"/>
		</g>
	</g>
</g>
</svg>
