<?xml version="1.0" encoding="utf-8"?>
<!-- Generator: Adobe Illustrator 17.0.2, SVG Export Plug-In . SVG Version: 6.00 Build 0)  -->
<!DOCTYPE svg PUBLIC "-//W3C//DTD SVG 1.1//EN" "http://www.w3.org/Graphics/SVG/1.1/DTD/svg11.dtd">
<svg version="1.1" id="logo-center" xmlns="http://www.w3.org/2000/svg" xmlns:xlink="http://www.w3.org/1999/xlink" x="0px"
	 y="0px" width="145px" height="80px" viewBox="0 0 145 80" style="enable-background:new 0 0 145 80;" xml:space="preserve">
<g>
	<path style="fill:#58595B;" d="M37.635,63.76c3.73,0,5.053-1.588,5.053-2.95c0-1.256-0.548-1.752-0.786-1.907
		c-0.393,0.213-1.526,0.763-2.772,0.763c-1.199,0-1.914-0.565-1.914-1.511c0-1.559,0.645-2.224,2.158-2.224
		c1.126,0,2.282,0.272,2.63,0.363c0.287-0.151,1.24-0.773,1.24-2.355c0-1.338-0.51-2.705-4.294-2.705
		c-4.647,0-7.533,2.721-7.533,7.1C31.418,61.731,33.741,63.76,37.635,63.76z"/>
	<path style="fill:#58595B;" d="M49.379,47.844c-1.869,0-3.234,0.645-3.625,0.853c-0.087,0.658-0.162,1.263-0.302,2.407
		c-0.201,1.636-0.539,4.373-1.241,9.941c-0.046,0.357-0.065,0.588-0.065,0.724c0,0.438,0,1.768,2.978,1.768
		c2.12,0,3.046-0.997,3.233-1.23l0.728-5.903l0.013-0.117l0.094-0.073c0.038-0.028,0.383-0.282,0.911-0.282
		c0.504,0,0.818,0.322,0.818,0.842c0,0.548-0.153,1.36-0.316,2.221c-0.175,0.919-0.354,1.868-0.354,2.531
		c0,0.498,0,2.012,3.044,2.012c2.978,0,3.707-1.86,3.833-2.282c-0.087-0.225-0.275-0.808-0.275-1.672
		c0-0.605,0.123-1.445,0.241-2.256c0.112-0.767,0.228-1.561,0.228-2.093c0-2.293-1.388-3.775-3.535-3.775
		c-3.18,0-4.235,2.941-4.242,2.971c0.007-0.036,0.364-3.697,0.364-4.952C51.909,48.041,50.692,47.844,49.379,47.844z"/>
	<path style="fill:#58595B;" d="M86.826,51.458c-2.001,0-2.901,1.27-2.938,1.325l-0.644,0.936l0.128-1.128l0.134-1.16
		c0.076-1.374,0.744-2.175,1.017-2.447c-0.05-0.46-0.403-2.076-2.835-2.076c-2.457,0-4.015,1.29-4.273,3.54
		c-0.011,0.076-0.981,6.95-0.981,9.135c0,3.268,3.367,3.954,6.193,3.954c5.029,0,7.8-2.513,7.8-7.077
		C90.427,53.141,89.215,51.458,86.826,51.458z M83.296,59.619c-0.395,0-0.593-0.145-0.629-0.176l-0.121-0.1l0.021-0.155
		c0.166-1.238,0.254-2.017,0.331-2.703l0.05-0.438c0.06-0.66,0.415-1.074,0.928-1.074c0.406,0,0.888,0.218,0.888,1.263
		C84.765,58.355,84.216,59.619,83.296,59.619z"/>
	<path style="fill:#58595B;" d="M112.51,57.15c-3.216,0-4.469,1.142-4.469,4.078c0,1.87,0.937,2.532,3.584,2.532
		c3.205,0,4.513-1.201,4.513-4.145C116.137,58.335,115.699,57.15,112.51,57.15z"/>
	<path style="fill:#58595B;" d="M143.97,58.741l-2.451,0.493l-0.39,0.079l0.053-0.394l0.431-3.203l0.033-0.245h0.249h0.796
		c1.531,0,2.309-0.821,2.309-2.441c0-1.146-0.285-1.63-0.405-1.784h-1.971h-0.326l0.045-0.322c0.002-0.014,0.179-1.287,0.179-2.231
		c0-0.848-0.292-1.307-1.832-1.307c-0.793,0-1.778,0.308-2.107,0.42l-1.543,3.586l-0.058,0.133l-0.142,0.033
		c-1.733,0.381-2.505,1.283-2.505,2.926c0,0.496,0.099,0.822,0.165,0.988h0.779h0.386l-0.115,0.368
		c-0.004,0.016-0.487,1.577-0.487,3.527c0,2.678,1.703,4.213,4.674,4.213c3.008,0,4.876-1.135,4.876-2.964
		C144.612,59.521,144.166,58.941,143.97,58.741z"/>
	<path style="fill:#58595B;" d="M132.643,53.003c0-1.151-0.849-1.687-2.673-1.687c-0.987,0-1.8,0.168-2.037,0.223l-1.228,3.292
		l-0.002-0.781c0-0.112-0.041-2.735-3.072-2.735c-3.322,0-5.733,3.036-5.733,7.218c0,3.365,1.411,5.144,4.079,5.144
		c1.246,0,3.712-0.45,4.36-3.785c0,0.008-0.111,0.754-0.111,1.272c0,1.714,0.715,2.512,2.248,2.512c1.791,0,3.291-0.998,3.669-2.433
		c-0.07-0.167-0.281-0.751-0.281-1.663c0-0.143,0-0.277,0.737-6.021C132.627,53.376,132.643,53.167,132.643,53.003z M125.876,56.369
		c-0.163,1.245-0.21,1.66-0.268,2.202l-0.041,0.376c-0.065,0.691-0.441,1.122-0.979,1.122c-0.349,0-0.932-0.17-0.932-1.313
		c0-0.859,0-2.872,1.446-2.872c0.241,0,0.437,0.051,0.617,0.158l0.187,0.112L125.876,56.369z"/>
	<path style="fill:#58595B;" d="M75.109,53.003c0-0.719-0.287-1.545-2.53-1.545c-0.891,0-1.767,0.097-2.066,0.162l-0.913,2.479
		l-0.286,0.733l-0.076-0.781c-0.002-0.105-0.114-2.593-3.001-2.593c-3.24,0-5.59,2.974-5.59,7.076c0,3.32,1.325,5.002,3.938,5.002
		c1.201,0,3.73-0.407,4.359-3.643c0,0.008-0.002,0.758-0.002,1.266c0.077,1.676,0.683,2.377,2.139,2.377
		c1.707,0,3.139-0.933,3.52-2.282c-0.086-0.225-0.274-0.808-0.274-1.672c0-0.154,0-0.285,0.737-6.035
		C75.093,53.362,75.109,53.161,75.109,53.003z M68.459,56.369c-0.165,1.245-0.211,1.66-0.27,2.202l-0.04,0.376
		c-0.066,0.691-0.441,1.122-0.978,1.122c-0.349,0-0.933-0.17-0.933-1.313c0-0.859,0-2.872,1.447-2.872
		c0.24,0,0.437,0.051,0.617,0.158l0.187,0.112L68.459,56.369z"/>
	<path style="fill:#58595B;" d="M109.133,49.21c-1.04,0-1.526,0.129-1.709,0.199c-0.127,0.629-0.774,2.912-3.665,3.608l-0.156,0.038
		l-0.113-0.114c-1.085-1.1-2.713-1.706-4.585-1.706c-4.439,0-7.307,2.795-7.307,7.122c0,3.985,3.22,5.404,6.235,5.404
		c4.055,0,6.851-2.435,7.124-6.204l0.017-0.24l0.239-0.023c4.31-0.408,6.405-2.153,6.405-5.334
		C111.618,50.238,110.69,49.21,109.133,49.21z M98.286,60.15c-1.003,0-1.003-1.044-1.003-1.604c0-2.266,0.753-2.742,1.383-2.742
		c0.459,0,1.005,0.24,1.005,1.382C99.67,58.661,99.242,60.15,98.286,60.15z"/>
	<path style="fill:#58595B;" d="M24.034,51.234c-4.441,0-7.309,2.795-7.309,7.122c0,3.985,3.221,5.404,6.236,5.404
		c4.345,0,7.153-2.689,7.153-6.853C30.114,53.461,27.728,51.234,24.034,51.234z M23.43,60.15c-1.002,0-1.002-1.044-1.002-1.604
		c0-2.266,0.753-2.742,1.383-2.742c0.458,0,1.004,0.24,1.004,1.382C24.814,58.661,24.387,60.15,23.43,60.15z"/>
	<path style="fill:#58595B;" d="M13.051,58.364l0.309-0.168c1.312-0.713,2.128-2.052,2.128-3.497c0-2.09-1.167-3.241-3.29-3.241
		c-3.754,0-4.77,2.998-4.8,3.128c0.007-0.042,0.365-4.313,0.365-5.152c0-0.74-0.288-1.59-2.533-1.59
		c-1.869,0-3.233,0.647-3.623,0.853C1.423,50.005,0,60.111,0,61.769c0,1.19,0.974,1.768,2.978,1.768c1.981,0,2.912-0.86,3.385-1.278
		l0.531-3.432H6.9c1.384,3.237,2.715,4.71,5.189,4.71c2.642,0,3.017-1.851,3.042-2.759l-1.849-2.149L13.051,58.364z M4.89,57.804
		c-1.159-0.649-0.904-2.443,0.554-2.111c1.456,0.331,1.456,2.531,1.456,2.531S5.895,58.366,4.89,57.804z M9.037,57.808
		c-1.005,0.562-2.01,0.421-2.01,0.421s-0.001-2.201,1.457-2.532C9.942,55.367,10.196,57.159,9.037,57.808z"/>
	<g>
		<path style="fill:#7FC143;" d="M23.986,78.575c0,0-1.129,1.425-2.841,1.425c-1.632,0-3.358-0.639-3.358-3.286
			c0-2.404,1.128-4.005,3.317-4.005c1.617,0,2.787,1.005,2.787,2.755v0.652H18.63c-0.014,0.191-0.027,0.381-0.027,0.571
			c0,1.941,1.318,2.525,2.542,2.525c1.277,0,2.378-1.128,2.378-1.128L23.986,78.575z M18.766,75.329h4.322
			c-0.067-1.1-0.801-1.859-1.984-1.859C19.935,73.47,19.12,74.175,18.766,75.329z"/>
		<path style="fill:#7FC143;" d="M25.615,79.023h1.046v-5.336h-1.183v-0.775h1.237c0.436,0,0.761,0.381,0.761,0.91v5.2h1.061v0.773
			h-2.923V79.023z M26.947,70.658c0.394,0,0.693,0.299,0.693,0.693c0,0.381-0.299,0.679-0.693,0.679
			c-0.381,0-0.679-0.298-0.679-0.679C26.268,70.957,26.566,70.658,26.947,70.658z"/>
		<path style="fill:#7FC143;" d="M30.032,79.023h1.046v-5.336h-1.183v-0.775h1.238c0.434,0,0.761,0.381,0.761,0.91v1.453
			c0.04-0.123,0.802-2.566,2.786-2.566c1.767,0,2.203,1.453,2.203,3.081v3.233h1.183v0.773h-1.237c-0.436,0-0.761-0.38-0.761-0.91
			v-3.068c0-1.181-0.326-2.308-1.387-2.308c-1.903,0-2.786,3.219-2.786,3.407v2.106h1.06v0.773h-2.923V79.023z"/>
		<path style="fill:#7FC143;" d="M39.858,72.912h0.883v-1.086c0-1.48,0.817-2.213,2.025-2.213c0.626,0,1.128,0.462,1.128,0.462
			l-0.381,0.583c0,0-0.38-0.244-0.72-0.244c-0.68,0-1.223,0.408-1.223,1.439v1.059h1.971v0.775h-1.984v5.336h1.331v0.773h-3.194
			v-0.773h1.046v-5.336h-0.883V72.912z"/>
		<path style="fill:#7FC143;" d="M45.116,78.127c0-1.902,1.644-2.268,3.248-2.268h2.081V75.6c0-1.452-0.64-2.13-2.202-2.13
			c-1.061,0-2.053,0.42-2.053,1.344c0,0.353,0.067,0.611,0.081,0.746h-0.748c0,0-0.135-0.244-0.135-0.733
			c0-1.588,1.386-2.117,2.854-2.117c2.188,0,3.018,0.842,3.018,2.891v3.422h1.183v0.773h-1.238c-0.434,0-0.76-0.38-0.76-0.91v-1.29
			C50.404,77.705,49.712,80,47.509,80C45.986,80,45.116,79.24,45.116,78.127z M50.336,76.619h-1.971c-1.141,0-2.433,0.19-2.433,1.48
			c0,0.585,0.598,1.1,1.577,1.1C48.896,79.198,49.86,77.65,50.336,76.619z"/>
		<path style="fill:#7FC143;" d="M59.945,78.575c0,0-1.143,1.425-2.855,1.425c-1.631,0-3.425-0.72-3.425-3.381
			c0-2.334,1.128-3.91,3.317-3.91c1.617,0,2.787,0.882,2.787,2.566c0,0.353-0.081,0.76-0.081,0.76h-0.761c0,0,0.04-0.502,0.04-0.773
			c0-1.019-0.747-1.792-1.984-1.792c-1.577,0-2.501,1.153-2.501,3.122c0,1.969,1.386,2.621,2.61,2.621
			c1.278,0,2.393-1.128,2.393-1.128L59.945,78.575z"/>
		<path style="fill:#7FC143;" d="M61.099,79.023h1.047v-8.446h-1.183v-0.772h1.236c0.436,0,0.762,0.379,0.762,0.909v4.561
			c0.027-0.123,0.787-2.566,2.787-2.566c1.766,0,2.201,1.453,2.201,3.081v3.233h1.183v0.773h-1.237c-0.434,0-0.761-0.38-0.761-0.91
			v-3.068c0-1.181-0.326-2.308-1.386-2.308c-1.728,0-2.624,2.784-2.787,3.407v2.106h1.059v0.773h-2.921V79.023z"/>
		<path style="fill:#7FC143;" d="M74.974,79.023h1.046v-8.446h-1.183v-0.772h1.238c0.434,0,0.761,0.379,0.761,0.909v5.73
			l2.949-2.987c0.353-0.353,0.694-0.543,1.114-0.543h0.626v0.775h-0.856l-1.74,1.738l3.208,3.598h0.87v0.773h-0.788
			c-0.49,0-0.72-0.217-0.993-0.542l-2.895-3.204l-1.494,1.521v1.452h1.059v0.773h-2.921V79.023z"/>
		<path style="fill:#7FC143;" d="M86.852,80c-1.849,0-3.304-1.221-3.304-3.654c0-2.009,1.36-3.637,3.304-3.637
			c1.944,0,3.317,1.601,3.317,3.637C90.169,78.779,88.701,80,86.852,80z M89.353,76.32c0-1.643-1.074-2.851-2.501-2.851
			c-1.428,0-2.488,1.207-2.488,2.851c0,1.955,1.156,2.919,2.488,2.919C88.184,79.24,89.353,78.289,89.353,76.32z"/>
		<path style="fill:#7FC143;" d="M98.01,78.575c0,0-1.143,1.425-2.855,1.425c-1.63,0-3.425-0.72-3.425-3.381
			c0-2.334,1.128-3.91,3.317-3.91c1.617,0,2.788,0.882,2.788,2.566c0,0.353-0.083,0.76-0.083,0.76H96.99c0,0,0.04-0.502,0.04-0.773
			c0-1.019-0.746-1.792-1.984-1.792c-1.577,0-2.501,1.153-2.501,3.122c0,1.969,1.387,2.621,2.61,2.621
			c1.278,0,2.394-1.128,2.394-1.128L98.01,78.575z"/>
		<path style="fill:#7FC143;" d="M99.163,79.023h1.047v-8.446h-1.183v-0.772h1.236c0.437,0,0.762,0.379,0.762,0.909v4.561
			c0.027-0.123,0.787-2.566,2.787-2.566c1.766,0,2.202,1.453,2.202,3.081v3.233h1.182v0.773h-1.237c-0.434,0-0.761-0.38-0.761-0.91
			v-3.068c0-1.181-0.326-2.308-1.386-2.308c-1.727,0-2.624,2.784-2.787,3.407v2.106h1.06v0.773h-2.923V79.023z"/>
		<path style="fill:#7FC143;" d="M114.549,78.575c0,0-1.13,1.425-2.842,1.425c-1.63,0-3.356-0.639-3.356-3.286
			c0-2.404,1.128-4.005,3.317-4.005c1.617,0,2.786,1.005,2.786,2.755v0.652h-5.26c-0.014,0.191-0.028,0.381-0.028,0.571
			c0,1.941,1.32,2.525,2.541,2.525c1.278,0,2.38-1.128,2.38-1.128L114.549,78.575z M109.33,75.329h4.322
			c-0.068-1.1-0.803-1.859-1.984-1.859C110.499,73.47,109.682,74.175,109.33,75.329z"/>
		<path style="fill:#7FC143;" d="M116.179,79.023h1.047v-5.336h-1.183v-0.775h1.236c0.436,0,0.762,0.381,0.762,0.91v1.453
			c0.041-0.123,0.801-2.566,2.787-2.566c1.766,0,2.202,1.453,2.202,3.081v3.233h1.182v0.773h-1.237c-0.434,0-0.761-0.38-0.761-0.91
			v-3.068c0-1.181-0.326-2.308-1.386-2.308c-1.904,0-2.787,3.219-2.787,3.407v2.106h1.059v0.773h-2.921V79.023z"/>
		<path style="fill:#7FC143;" d="M125.841,79.294c0-0.353,0.231-0.706,0.68-0.706c0.42,0,0.693,0.298,0.693,0.72
			c0,0.407-0.273,0.692-0.693,0.692C126.087,80,125.841,79.646,125.841,79.294z"/>
	</g>
	<g>
		<g>
			<g>
				<path style="fill:#7FC143;" d="M96.108,1.541c-22.932,5.206-22.924,39.82-22.924,39.82s15.831,2.227,31.622-6.61
					C123.056,24.538,119.04-3.665,96.108,1.541z"/>
			</g>
			<linearGradient id="SVGID_1_" gradientUnits="userSpaceOnUse" x1="64.346" y1="34.1832" x2="113.4983" y2="19.8085">
				<stop  offset="0.1531" style="stop-color:#181C0E;stop-opacity:0.7"/>
				<stop  offset="0.2512" style="stop-color:#1D2310;stop-opacity:0.6189"/>
				<stop  offset="0.3955" style="stop-color:#2A3716;stop-opacity:0.4997"/>
				<stop  offset="0.5683" style="stop-color:#40571F;stop-opacity:0.3568"/>
				<stop  offset="0.763" style="stop-color:#5F842C;stop-opacity:0.1959"/>
				<stop  offset="0.9738" style="stop-color:#86BD3D;stop-opacity:0.0217"/>
				<stop  offset="1" style="stop-color:#8BC53F;stop-opacity:0"/>
			</linearGradient>
			<path style="fill:url(#SVGID_1_);" d="M73.185,41.361l39.911-35.207c0,0,6.346,7.371,1.04,18.863
				c-0.821,1.779-3.397,5.642-6.461,7.85C107.143,33.251,93.677,43.196,73.185,41.361z"/>
		</g>
		<g>
			<g>
				<path style="fill:#7FC143;" d="M30.844,21.04c6.639,22.534,41.225,20.357,41.225,20.357s1.233-15.922-8.585-31.109
					C52.134-7.265,24.205-1.494,30.844,21.04z"/>
			</g>
			
				<linearGradient id="SVGID_2_" gradientUnits="userSpaceOnUse" x1="1526.5889" y1="-1123.8435" x2="1575.7096" y2="-1138.209" gradientTransform="matrix(-0.0627 -0.998 0.998 -0.0627 1282.7411 1503.7451)">
				<stop  offset="0.1531" style="stop-color:#181C0E;stop-opacity:0.7"/>
				<stop  offset="0.2512" style="stop-color:#1D2310;stop-opacity:0.6189"/>
				<stop  offset="0.3955" style="stop-color:#2A3716;stop-opacity:0.4997"/>
				<stop  offset="0.5683" style="stop-color:#40571F;stop-opacity:0.3568"/>
				<stop  offset="0.763" style="stop-color:#5F842C;stop-opacity:0.1959"/>
				<stop  offset="0.9738" style="stop-color:#86BD3D;stop-opacity:0.0217"/>
				<stop  offset="1" style="stop-color:#8BC53F;stop-opacity:0"/>
			</linearGradient>
			<path style="fill:url(#SVGID_2_);" d="M72.068,41.397l-37.68-37.58c0,0,6.967-6.788,18.783-2.219
				C55,2.305,59.022,4.631,61.42,7.547C61.836,8.053,72.617,20.852,72.068,41.397z"/>
		</g>
	</g>
</g>
</svg>
