<?xml version="1.0" encoding="utf-8"?>
<!-- Generator: Adobe Illustrator 17.0.2, SVG Export Plug-In . SVG Version: 6.00 Build 0)  -->
<!DOCTYPE svg PUBLIC "-//W3C//DTD SVG 1.1//EN" "http://www.w3.org/Graphics/SVG/1.1/DTD/svg11.dtd">
<svg version="1.1" id="Icons" xmlns="http://www.w3.org/2000/svg" xmlns:xlink="http://www.w3.org/1999/xlink" x="0px" y="0px"
	 width="42px" height="252px" viewBox="0 0 42 252" enable-background="new 0 0 42 252" xml:space="preserve">
<g id="gluten">
	<path fill="#4D4A4B" d="M21,0C9.421,0,0,9.421,0,21.001c0,11.578,9.421,21,21,21c11.581,0,21-9.421,21-21C42,9.421,32.58,0,21,0z
		 M21,40.559c-10.784,0-19.557-8.774-19.557-19.558C1.443,10.216,10.216,1.442,21,1.442c10.785,0,19.559,8.774,19.559,19.559
		C40.558,31.785,31.785,40.559,21,40.559z"/>
	<g>
		<path fill="#4D4A4B" d="M18.613,35.281H16.83h-1.525h-1.783v-1.357c-1.328-0.201-2.964-0.651-4.337-1.634l-0.017-0.011
			l-0.016-0.013c-1.529-1.147-2.468-2.805-2.663-4.689l-0.025-0.064L6.46,27.188c-0.01-0.692,0.301-1.339,0.855-1.79
			c-0.448-0.793-0.73-1.679-0.826-2.618l-0.025-0.065L6.46,22.397c-0.01-0.694,0.3-1.341,0.855-1.79
			c-0.447-0.792-0.729-1.674-0.826-2.611l-0.025-0.065L6.46,17.606c-0.01-0.728,0.333-1.406,0.942-1.858
			c0.452-0.334,1.02-0.516,1.602-0.516h0.179l0.041,0.008c0.584,0.024,1.38,0.096,2.253,0.28c-0.003-0.064-0.005-0.126-0.007-0.191
			l-0.001-0.028l0.001-0.028c0.029-1.767,1.005-3.521,2.75-4.94l0.032-0.025l0.075-0.061c0.451-0.339,1.024-0.524,1.616-0.524
			c0.595,0,1.169,0.188,1.621,0.528l0.029,0.022l0.05,0.041c1.767,1.434,2.746,3.188,2.775,4.958l0.001,0.029l-0.001,0.03
			c-0.002,0.136-0.01,0.27-0.023,0.405c0.525-0.127,1.089-0.225,1.691-0.292c-0.289-0.635-0.483-1.351-0.495-2.141l-0.001-0.028
			l0.001-0.028c0.037-2.391,1.743-4.125,2.757-4.945l0.028-0.023l0.069-0.056c0.45-0.34,1.025-0.527,1.619-0.527
			c0.589,0,1.162,0.186,1.613,0.523l0.032,0.024l0.052,0.044c1.033,0.834,2.739,2.569,2.776,4.96l0.001,0.028l-0.001,0.028
			c-0.001,0.1-0.006,0.197-0.014,0.294c1.087-0.273,2.092-0.362,2.781-0.385l0.025-0.001l0.083-0.003l0.043-0.001
			c0.573,0,1.134,0.179,1.581,0.503c0.625,0.457,0.973,1.142,0.958,1.881l-0.001,0.046l-0.006,0.073
			c-0.067,1.022-0.363,1.998-0.853,2.865c0.564,0.456,0.875,1.106,0.861,1.807l-0.001,0.046l-0.006,0.074
			c-0.13,1.966-1.108,3.764-2.684,4.947l-0.016,0.012l-0.015,0.011c-1.442,1.032-3.177,1.476-4.537,1.663v1.609v1.783H26.95h-1.526
			h-0.622c-0.427,0.664-0.974,1.254-1.621,1.739l-0.016,0.013L23.15,32.29c-1.443,1.033-3.176,1.477-4.538,1.662v1.329H18.613z"/>
	</g>
	<g>
		<path fill="#FFFFFF" d="M14.028,28.05L14.028,28.05c-2.035-1.459-4.942-1.439-5.013-1.452c-0.207-0.002-0.402,0.057-0.549,0.163
			c-0.145,0.107-0.226,0.251-0.223,0.402c0.02,0.053-0.008,2.184,1.98,3.676c2.035,1.459,4.942,1.439,5.014,1.453h0.007
			c0.021,0,0.04-0.003,0.06-0.004v1.21h1.525v-1.24c0.083,0.022,0.17,0.034,0.26,0.034h0.008c0.072-0.014,2.979,0.006,5.014-1.453
			c1.989-1.492,1.96-3.623,1.979-3.677c0.002-0.132-0.061-0.258-0.176-0.359c-3.34,0.058-5.022,0.865-5.855,1.648
			c-0.865,0.811-0.914,1.653-0.918,1.879c0,0.041,0.001,0.041,0.001,0.041v0.001l-0.433,0.047c-0.002-0.017-0.007-0.072-0.007-0.157
			c-0.003-0.403-0.069-1.778,1.071-2.844c0.933-0.869,2.043-1.362,4.629-1.605c0.871-0.757,1.286-1.631,1.489-2.309
			c0.191-0.64,0.192-1.106,0.2-1.131c0.002-0.152-0.076-0.295-0.222-0.402c-0.008-0.006-0.018-0.01-0.026-0.016v0.02
			c-3.127,0.001-4.769,0.715-5.639,1.462c-0.069,0.059-0.135,0.12-0.196,0.179c-0.811,0.806-0.863,1.658-0.865,1.892
			c0,0.043,0.001,0.045,0.001,0.045h0.001l-0.467,0.046c-0.001-0.015-0.006-0.068-0.006-0.151c-0.001-0.283,0.021-1.127,0.424-1.975
			c0.162-0.34,0.383-0.681,0.691-0.988c0.929-0.925,1.997-1.338,4.696-1.533c1.613-1.462,1.591-3.321,1.609-3.371
			c0.002-0.152-0.076-0.296-0.222-0.403c-0.032-0.024-0.068-0.043-0.105-0.062c-3.237,0.082-4.871,0.909-5.695,1.716
			c-0.869,0.847-0.923,1.741-0.927,1.986c0,0.045,0.001,0.047,0.001,0.047l-0.406,0.042c-0.002-0.017-0.008-0.072-0.008-0.158
			c0-2.252,0.8-2.874,0.912-2.967c0.5-0.632,0.978-1.489,0.994-2.48c-0.034-2.088-2.108-3.58-2.147-3.627
			c-0.143-0.109-0.338-0.169-0.545-0.169c-0.206,0-0.401,0.06-0.546,0.169c-0.037,0.047-2.112,1.54-2.145,3.627
			c0.029,1.839,1.644,3.217,2.052,3.549v1.024c-0.288-0.479-0.694-0.97-1.277-1.407c-2.034-1.458-4.942-1.437-5.013-1.452
			c-0.207-0.002-0.402,0.057-0.549,0.164c-0.145,0.107-0.226,0.25-0.223,0.402c0.02,0.054-0.008,2.184,1.98,3.677
			c2.035,1.457,4.942,1.438,5.014,1.453h0.007c0.021,0,0.04-0.004,0.06-0.005v0.863v1.095c-0.208-0.346-0.48-0.697-0.833-1.03
			c-0.136-0.129-0.282-0.256-0.444-0.376c-2.034-1.458-4.942-1.438-5.013-1.452c-0.207-0.003-0.402,0.056-0.549,0.164
			c-0.145,0.106-0.226,0.25-0.223,0.401c0.013,0.034,0.008,0.928,0.53,1.958c0.29,0.573,0.739,1.186,1.449,1.72
			c2.035,1.458,4.942,1.437,5.014,1.452h0.011c0.019,0,0.038-0.003,0.057-0.004v1.958C15.016,28.979,14.611,28.486,14.028,28.05z"/>
	</g>
	<g>
		<path fill="#FFFFFF" d="M27.218,20.685c0.073-0.015,2.978,0.006,5.013-1.452c1.989-1.493,1.961-3.623,1.979-3.678
			c0.003-0.151-0.077-0.295-0.223-0.402c-0.147-0.106-0.341-0.165-0.549-0.163c-0.072,0.015-2.978-0.006-5.013,1.453
			c-0.731,0.549-1.188,1.184-1.476,1.77c0-0.806,0-1.378,0-1.599c0.599-0.534,1.78-1.768,1.804-3.338
			c-0.032-2.087-2.106-3.58-2.145-3.627C26.466,9.54,26.272,9.48,26.064,9.48s-0.402,0.059-0.545,0.168
			c-0.038,0.047-2.112,1.54-2.145,3.627c0.029,1.839,1.643,3.217,2.051,3.549v6.774v5.146h1.525c0-0.077,0-3.228,0-3.304
			c0.083,0.022,0.171,0.035,0.26,0.035h0.007c0.067-0.013,2.515-0.001,4.49-1.124c0.179-0.1,0.355-0.208,0.523-0.329
			c1.989-1.493,1.961-3.625,1.979-3.677c0.003-0.152-0.077-0.296-0.223-0.403c-0.147-0.107-0.343-0.166-0.549-0.164
			c-0.072,0.014-2.977-0.006-5.012,1.452l-0.001,0.001c-0.73,0.549-1.187,1.182-1.475,1.769c-0.001-0.821-0.001-1.615-0.001-2.352
			c0.083,0.022,0.171,0.036,0.26,0.036h0.01V20.685z"/>
	</g>
	<g>
		<path fill="#4D4A4B" d="M1.78,3.433c5.889,7.554,11.847,12.937,18.056,18.114c6.183,5.164,12.616,10.123,18.793,16.493"/>
		<path fill="#4D4A4B" d="M1.78,3.433c0,0,0.563,0.56,1.549,1.541C3.813,5.472,4.4,6.076,5.074,6.77
			c0.68,0.684,1.392,1.522,2.272,2.308c0.863,0.808,1.794,1.68,2.756,2.619c0.941,0.957,2.039,1.872,3.138,2.855
			c1.111,0.971,2.22,2.007,3.415,2.998c1.185,1,2.388,2.016,3.592,3.032c1.211,1.017,2.422,2.033,3.614,3.034
			c1.202,0.989,2.344,2.021,3.469,2.991c1.119,0.98,2.207,1.912,3.189,2.87c0.997,0.936,1.922,1.839,2.773,2.673
			c0.871,0.812,1.602,1.631,2.249,2.356c0.644,0.724,1.206,1.356,1.668,1.876c0.904,1.055,1.421,1.657,1.421,1.657
			s-0.619-0.5-1.701-1.375c-0.531-0.445-1.176-0.984-1.915-1.604c-0.731-0.626-1.552-1.332-2.491-2.058
			c-0.93-0.735-1.934-1.532-2.978-2.395c-1.034-0.87-2.202-1.714-3.346-2.652c-1.155-0.928-2.365-1.864-3.57-2.854
			c-1.208-0.986-2.436-1.987-3.664-2.988c-1.2-1.044-2.4-2.087-3.581-3.115c-1.199-1.005-2.256-2.146-3.344-3.167
			c-1.08-1.032-2.105-2.048-3.002-3.099c-0.923-1.022-1.773-2.004-2.555-2.909C5.665,8.947,5.076,8.029,4.49,7.259
			C3.925,6.475,3.432,5.791,3.026,5.228C2.233,4.085,1.78,3.433,1.78,3.433z"/>
	</g>
</g>
<g id="lactose">
	<circle fill="#FFFFFF" cx="13.583" cy="65.725" r="0.572"/>
	<g>
		<path fill="#4D4A4B" d="M32.407,73.017l-1.377-0.004l-3.779-0.011h-0.003l-1.074-0.004l-1.399-0.004V72.99L9.286,72.92
			l-1.218-0.006l-0.14-1.21l-0.616-5.319L7.2,65.412l0.286-0.947c0.461-1.317,1.584-2.447,3.204-3.232l0.875-0.384l0.926-0.284
			c0.644-0.174,1.316-0.295,2.012-0.364l1.264-0.205l0.191-0.292l2.447-3.745v-2.542v-1.374h1.374h8.63h1.374v1.374v1.743v0.672
			v0.132l0.01,0.015l2.029,3.161l0.586,0.912v1.637v9.95L32.407,73.017L32.407,73.017z"/>
		<path fill="#FFFFFF" d="M9.293,71.547l16.55,0.075l-0.135-5.402l-0.132-5.2h-4.999v-0.238l5.106-0.586l2.111-3.662H22.02v-0.188
			l6.389-0.636v-2.291h-8.63v2.951l-2.671,4.087v0.986l6.572,4.192L23.634,65.9l-0.778,4.562l-0.261-0.045l0.226-4.163L9.435,65.891
			l-0.799-0.022l0.015,0.133L9.293,71.547z M18.7,66.73c0.986,0,1.786,0.798,1.786,1.786c0,0.985-0.8,1.785-1.786,1.785
			c-0.987,0-1.785-0.8-1.785-1.785C16.914,67.528,17.713,66.73,18.7,66.73z M14.969,67.485c0.266,0.001,0.478,0.214,0.48,0.481
			c-0.002,0.266-0.214,0.48-0.48,0.48c-0.267-0.001-0.48-0.214-0.482-0.48C14.49,67.699,14.702,67.487,14.969,67.485z M11.901,67.44
			c0.771,0,1.396,0.625,1.396,1.396c0,0.772-0.625,1.396-1.396,1.396c-0.772,0-1.396-0.624-1.396-1.396
			C10.505,68.065,11.129,67.44,11.901,67.44z"/>
		<circle fill="#4D4A4B" cx="18.959" cy="68.515" r="0.961"/>
		<path fill="#FFFFFF" d="M15.842,61.612c-0.03,1.166-0.981,2.102-2.155,2.102c-0.93,0-1.721-0.59-2.024-1.415
			c-1.508,0.639-2.585,1.616-2.922,2.749L22.599,65.4L15.842,61.612z M16.617,64.395c-0.267-0.001-0.48-0.214-0.481-0.48
			c0.001-0.267,0.214-0.479,0.481-0.48c0.267,0.001,0.479,0.214,0.48,0.48C17.096,64.181,16.884,64.394,16.617,64.395z"/>
		<path fill="#4D4A4B" d="M13.686,62.89c0.737-0.001,1.332-0.596,1.334-1.332c0-0.007-0.001-0.013-0.001-0.02
			c-0.924,0.061-1.795,0.225-2.58,0.475C12.625,62.523,13.111,62.89,13.686,62.89z"/>
		<polygon fill="#FFFFFF" points="30.98,60.373 28.636,56.722 26.427,60.556 		"/>
		<polygon fill="#FFFFFF" points="26.393,61.381 26.29,66.326 26.178,71.624 31.033,71.64 31.033,67.515 31.033,60.655 		"/>
	</g>
	<path fill="#4D4A4B" d="M21,42C9.421,42,0,51.421,0,63.001C0,74.579,9.421,84,21,84c11.58,0,21-9.421,21-20.999
		C42,51.421,32.58,42,21,42z M21,82.558c-10.784,0-19.557-8.774-19.557-19.557c0-10.785,8.773-19.559,19.557-19.559
		c10.785,0,19.558,8.774,19.558,19.559C40.558,73.784,31.784,82.558,21,82.558z"/>
	<g>
		<path fill="#4D4A4B" d="M3.925,43.646c0,0,0.563,0.56,1.549,1.541c0.484,0.498,1.071,1.103,1.744,1.797
			c0.68,0.684,1.392,1.522,2.272,2.308c0.863,0.808,1.794,1.68,2.756,2.619c0.941,0.957,2.039,1.872,3.137,2.855
			c1.111,0.971,2.22,2.007,3.415,2.998c1.185,1,2.388,2.016,3.592,3.032c1.211,1.017,2.422,2.033,3.614,3.034
			c1.202,0.989,2.344,2.021,3.469,2.991c1.12,0.98,2.207,1.912,3.189,2.87c0.997,0.936,1.922,1.839,2.773,2.673
			c0.871,0.812,1.602,1.631,2.249,2.355c0.644,0.724,1.206,1.356,1.669,1.876c0.904,1.055,1.421,1.657,1.421,1.657
			s-0.619-0.5-1.701-1.375c-0.531-0.445-1.176-0.984-1.915-1.604c-0.731-0.625-1.552-1.332-2.491-2.058
			c-0.93-0.735-1.934-1.532-2.978-2.394c-1.034-0.87-2.202-1.714-3.346-2.651c-1.155-0.928-2.365-1.864-3.57-2.854
			c-1.209-0.985-2.436-1.987-3.664-2.988c-1.2-1.044-2.4-2.087-3.581-3.115c-1.199-1.005-2.256-2.146-3.344-3.167
			c-1.08-1.032-2.105-2.048-3.002-3.099c-0.923-1.022-1.773-2.004-2.554-2.909c-0.817-0.879-1.406-1.796-1.991-2.566
			c-0.565-0.785-1.058-1.468-1.464-2.032C4.378,44.298,3.925,43.646,3.925,43.646z"/>
	</g>
</g>
<g id="meat">
	<path fill="#4D4A4B" d="M21,84C9.421,84,0,93.421,0,105.001C0,116.579,9.421,126,21,126c11.58,0,21-9.421,21-20.999
		C42,93.421,32.58,84,21,84z M21,124.558c-10.784,0-19.557-8.774-19.557-19.557c0-10.785,8.773-19.559,19.557-19.559
		c10.785,0,19.558,8.774,19.558,19.559C40.558,115.784,31.784,124.558,21,124.558z"/>
	<g>
		<path fill="#4D4A4B" d="M35.872,101.276c-0.527-1.887-2.556-3.133-4.471-4.103c-2.048-1.037-4.761-1.632-7.444-1.632
			c-1.376,0-2.706,0.155-3.949,0.462c-3.184,0.784-11.335,6.232-13.306,8.596c-0.413,0.495-0.642,1.013-0.693,1.545h0v0.001
			c-0.013,0.141-0.012,0.282,0,0.426v2.736l0.004,0.043c0.006,0.04,0.711,3.895,4.281,3.895c2.343,0,4.565-0.67,6.525-1.261
			c0.912-0.276,1.774-0.536,2.556-0.699c2.464-0.516,5.956-0.967,8.37-0.686c1.97,0.229,6.584,0.766,8.134-3.388l0.016-0.041
			l0.076-4.48H35.97C36.031,102.204,35.999,101.731,35.872,101.276z M7.101,104.93c1.931-2.317,9.914-7.657,13.032-8.425
			c1.202-0.295,2.489-0.446,3.824-0.446c2.604,0,5.232,0.574,7.21,1.576c1.815,0.919,3.734,2.086,4.207,3.779
			c0.27,0.967,0.039,2.048-0.687,3.212c-0.925,1.484-2.184,2.147-4.081,2.147c-0.836,0-1.701-0.125-2.537-0.246
			c-0.809-0.116-1.573-0.228-2.289-0.228c-0.27,0-0.513,0.015-0.741,0.048c-2.892,0.405-6.966,1.571-8.796,2.257
			c-0.288,0.107-0.593,0.243-0.916,0.385c-1.059,0.466-2.26,0.996-3.696,0.996c-1.104,0-2.175-0.314-3.269-0.957
			c-0.016-0.011-1.604-1.009-1.821-2.361c-0.006-0.04-0.008-0.079-0.012-0.119v-0.369C6.571,105.756,6.761,105.338,7.101,104.93z
			 M35.38,107.073c-0.591,1.546-1.681,2.501-3.333,2.917c-1.406,0.355-2.933,0.247-4.242,0.094
			c-2.474-0.287-6.031,0.171-8.536,0.694c-0.804,0.168-1.676,0.431-2.599,0.709c-1.926,0.581-4.11,1.241-6.376,1.241
			c-3.037,0-3.708-3.131-3.767-3.445v-1.326c0.603,0.906,1.509,1.479,1.566,1.514c1.181,0.694,2.339,1.031,3.537,1.031
			c1.546,0,2.854-0.576,3.905-1.041c0.316-0.139,0.614-0.271,0.889-0.374c1.806-0.678,5.831-1.829,8.686-2.229
			c0.205-0.029,0.424-0.042,0.67-0.042c0.679,0,1.425,0.107,2.215,0.221c0.855,0.124,1.739,0.251,2.611,0.251
			c2.068,0,3.504-0.759,4.521-2.391c0.11-0.177,0.209-0.352,0.299-0.527L35.38,107.073z"/>
		<path fill="#4D4A4B" d="M8.971,107.698c3.509,2.473,9.719-1.496,14.319-2.186c4.6-0.689,6.025,1.442,9.086-0.517
			s1.381-4.774-2.185-6.556c-3.566-1.783-7.936-1.438-10.293-0.748s-8.971,5.291-10.927,7.073
			C7.016,106.548,8.971,107.698,8.971,107.698z M15.688,104.375c0.116-0.092,0.259-0.203,0.422-0.331
			c0.169-0.12,0.36-0.256,0.569-0.403c0.206-0.153,0.441-0.298,0.689-0.456c0.124-0.079,0.251-0.161,0.381-0.243
			c0.133-0.078,0.269-0.157,0.407-0.238c0.139-0.081,0.28-0.164,0.423-0.246c0.146-0.078,0.293-0.156,0.441-0.237
			c0.296-0.164,0.604-0.314,0.911-0.466c0.306-0.156,0.621-0.291,0.929-0.434c0.309-0.138,0.616-0.266,0.914-0.391
			c0.301-0.118,0.589-0.239,0.867-0.339c0.277-0.105,0.541-0.201,0.786-0.285c0.303-0.105,0.576-0.195,0.81-0.269
			c-0.046-0.014-0.095-0.028-0.141-0.042c-0.241-0.066-0.473-0.14-0.696-0.199c-0.222-0.064-0.434-0.124-0.629-0.176
			c-0.394-0.112-0.723-0.206-0.953-0.271c-0.116-0.03-0.208-0.062-0.271-0.078c-0.063-0.019-0.097-0.028-0.097-0.028
			s0.137-0.035,0.381-0.063c0.121-0.016,0.269-0.03,0.439-0.04c0.169-0.006,0.362-0.02,0.571-0.014
			c0.209,0.002,0.435,0.011,0.674,0.033c0.239,0.016,0.489,0.054,0.748,0.091c0.13,0.016,0.26,0.046,0.391,0.072
			c0.132,0.027,0.266,0.05,0.399,0.086c0.266,0.071,0.538,0.134,0.802,0.228c0.265,0.092,0.531,0.18,0.782,0.296
			c0.256,0.104,0.501,0.221,0.732,0.349c0.116,0.064,0.231,0.123,0.339,0.186c0.108,0.066,0.212,0.134,0.313,0.202
			c0.201,0.134,0.39,0.259,0.55,0.399c0.163,0.136,0.309,0.26,0.435,0.374c0.121,0.123,0.22,0.234,0.302,0.326
			c0.164,0.182,0.249,0.291,0.249,0.291s-0.134-0.053-0.351-0.154c-0.109-0.053-0.241-0.113-0.387-0.188
			c-0.154-0.064-0.325-0.139-0.508-0.221c-0.179-0.09-0.385-0.164-0.596-0.253c-0.105-0.044-0.213-0.09-0.324-0.136
			c-0.114-0.04-0.227-0.085-0.343-0.129c-0.116-0.046-0.233-0.091-0.351-0.138c-0.059-0.019-0.116-0.041-0.174-0.061
			c-0.331,0.059-2.304,0.546-2.785,0.649c-0.244,0.05-0.509,0.109-0.788,0.175c-0.28,0.063-0.571,0.145-0.875,0.221
			c-0.302,0.084-0.615,0.169-0.93,0.265c-0.314,0.101-0.636,0.191-0.951,0.304c-0.317,0.109-0.635,0.217-0.941,0.339
			c-0.154,0.059-0.308,0.118-0.459,0.175c-0.149,0.063-0.296,0.126-0.441,0.186c-0.145,0.062-0.288,0.122-0.428,0.182
			c-0.138,0.064-0.272,0.127-0.403,0.189c-0.261,0.124-0.511,0.237-0.732,0.361c-0.224,0.119-0.429,0.228-0.61,0.324
			c-0.177,0.106-0.331,0.199-0.458,0.274c-0.254,0.153-0.4,0.239-0.4,0.239S15.454,104.559,15.688,104.375z"/>
	</g>
</g>
<g id="fish">
	<path fill="#4D4A4B" d="M21,126c-11.579,0-21,9.421-21,21.001C0,158.579,9.421,168,21,168c11.58,0,21-9.421,21-20.999
		C42,135.421,32.58,126,21,126z M21,166.558c-10.784,0-19.557-8.774-19.557-19.557c0-10.785,8.773-19.559,19.557-19.559
		c10.785,0,19.558,8.774,19.558,19.559C40.558,157.784,31.784,166.558,21,166.558z"/>
	<path fill="#4D4A4B" d="M7.086,148.579c-1.404,1.776-0.949,3.791-0.928,3.876c0.042,0.176,0.199,0.299,0.378,0.299
		c4.794,0,7.323-4.132,8.086-5.637c2.768,2.979,5.602,4.79,8.458,5.413c-0.657,1.419-0.329,2.775-0.329,2.775
		c1.286-0.454,2.215-1.634,2.769-2.539c6.26-0.129,10.245-5.871,10.413-6.118c0.1-0.147,0.088-0.343-0.031-0.476
		c-3.376-3.813-6.987-5.746-10.733-5.746c-5.367,0-9.332,3.92-10.558,5.294c-0.782-1.534-3.332-5.668-8.146-5.668
		c-0.18,0-0.336,0.124-0.378,0.299c-0.02,0.086-0.481,2.117,0.935,3.908c0.824,1.044,2.099,1.768,3.797,2.174
		C9.153,146.837,7.899,147.551,7.086,148.579z M29.295,146.429c0-0.483,0.391-0.875,0.875-0.875c0.483,0,0.874,0.391,0.874,0.875
		c0,0.483-0.391,0.875-0.874,0.875S29.295,146.912,29.295,146.429z"/>
</g>
<g id="veggie">
	<path fill="#4D4A4B" d="M21,168c-11.579,0-21,9.421-21,21.001C0,200.579,9.421,210,21,210c11.58,0,21-9.421,21-20.999
		C42,177.421,32.58,168,21,168z M21,208.558c-10.784,0-19.557-8.774-19.557-19.557c0-10.785,8.773-19.559,19.557-19.559
		c10.785,0,19.558,8.774,19.558,19.559C40.558,199.784,31.784,208.558,21,208.558z"/>
	<path fill="#4D4A4B" d="M21.823,185.559c-0.314,0-0.564,0.031-0.684,0.049c-0.121-0.018-0.371-0.049-0.684-0.049
		c-0.776,0-1.849,0.181-2.554,1.041c-0.653,0.797-0.826,1.992-0.514,3.553c0.934,4.67,3.103,12.638,3.347,13.532l0.405-0.103
		l-0.403,0.11c0.049,0.182,0.214,0.308,0.403,0.309c0,0,0,0,0.001,0c0.188,0,0.353-0.126,0.403-0.307
		c0.024-0.086,2.384-8.706,3.35-13.54c0.312-1.561,0.139-2.756-0.514-3.553C23.673,185.74,22.599,185.559,21.823,185.559z"/>
	<path fill="#4D4A4B" d="M26.849,178.597c-4.701,1.776-5.711,6.32-5.711,6.32C25.404,182.985,26.849,178.597,26.849,178.597z"/>
	<path fill="#4D4A4B" d="M20.582,183.611c0,0-0.836-4.44-4.44-5.276C16.142,178.336,16.716,181.783,20.582,183.611z"/>
	<path fill="#4D4A4B" d="M21.15,174.001c-2.082,3.855,0,7.808,0,7.808C22.989,177.523,21.15,174.001,21.15,174.001z"/>
</g>
<g id="vegan">
	<path fill="#4D4A4B" d="M21,210c-11.579,0-21,9.421-21,21.001C0,242.579,9.421,252,21,252c11.58,0,21-9.421,21-20.999
		C42,219.421,32.58,210,21,210z M21,250.558c-10.784,0-19.557-8.774-19.557-19.557c0-10.785,8.773-19.559,19.557-19.559
		c10.785,0,19.558,8.774,19.558,19.559C40.558,241.784,31.784,250.558,21,250.558z"/>
	<path fill="#4D4A4B" d="M20.766,243.399c-0.098,0-0.198-0.009-0.299-0.019c-0.118-0.011-0.236-0.023-0.347-0.011
		c-0.469,0.065-0.797-0.168-0.902-0.627l-0.318-1.416c-0.367-1.642-0.747-3.339-1.178-4.991c-0.62-2.374-1.317-4.892-2.427-7.278
		c-0.985-2.119-2.349-4.152-4.051-6.045c-0.074-0.083-0.143-0.17-0.211-0.257c0,0-0.22-0.35-0.267-0.475s0.047-0.156,0.172-0.219
		s0.382,0.064,0.382,0.064c0.098,0.044,0.197,0.086,0.296,0.127c0.22,0.093,0.447,0.188,0.663,0.312
		c1.146,0.657,2.029,1.601,2.883,2.514c2.028,2.167,2.989,4.793,3.66,7.076c0.367,1.246,0.708,2.5,1.048,3.755
		c0.176,0.65,0.353,1.3,0.534,1.949c0.006-0.017,0.012-0.033,0.018-0.051c0.217-0.639,0.43-1.278,0.644-1.918
		c0.407-1.222,0.815-2.443,1.247-3.657c0.863-2.428,1.822-4.295,3.016-5.873c0.185-0.244,0.388-0.475,0.591-0.705
		c0.092-0.104,0.185-0.209,0.275-0.315c-0.305,0.15-0.592,0.293-0.822,0.491c-0.998,0.856-1.712,1.788-2.183,2.849
		c-0.022,0.05-0.05,0.099-0.092,0.172l-0.361,0.645l-0.172-0.561c-0.2-0.655-0.159-1.232-0.093-1.711
		c0.338-2.436,1.977-4.2,4.384-4.72c0.756-0.164,1.511-0.333,2.266-0.503l1.522-0.341c0.104-0.022,0.212-0.03,0.327-0.038
		l0.415-0.034l0.003,0.345c0.004,0.06,0.008,0.128-0.02,0.204c-0.326,0.931-0.419,1.933-0.508,2.902l-0.037,0.395
		c-0.176,1.813-1.242,3.104-3.261,3.942c-0.467,0.193-0.996,0.332-1.574,0.413c-0.569,0.078-0.914,0.329-1.116,0.814
		c-0.097,0.232-0.195,0.464-0.294,0.695c-0.25,0.586-0.508,1.19-0.727,1.795c-0.857,2.373-1.477,5.061-1.948,8.456
		c-0.034,0.244-0.083,0.485-0.133,0.728l-0.05,0.249c-0.018,0.093-0.039,0.209-0.09,0.32
		C21.462,243.219,21.179,243.399,20.766,243.399z"/>
</g>
</svg>
