<?xml version="1.0" encoding="utf-8"?>
<!-- Generator: Adobe Illustrator 17.0.2, SVG Export Plug-In . SVG Version: 6.00 Build 0)  -->
<!DOCTYPE svg PUBLIC "-//W3C//DTD SVG 1.1//EN" "http://www.w3.org/Graphics/SVG/1.1/DTD/svg11.dtd">
<svg version="1.1" id="Icons" xmlns="http://www.w3.org/2000/svg" xmlns:xlink="http://www.w3.org/1999/xlink" x="0px" y="0px"
	 width="50px" height="128px" viewBox="-66 65.5 50 128" enable-background="new -66 65.5 50 128" xml:space="preserve">
<g id="Rechnung">
	<path fill="#FFFFFF" d="M-16.001,191.794c0,0.943-0.746,1.706-1.667,1.706h-46.664c-0.921,0-1.667-0.764-1.667-1.706v-28.587
		c0-0.943,0.746-1.706,1.667-1.706h46.666c0.921,0,1.667,0.764,1.667,1.706v28.587H-16.001z"/>
	<g id="Icon">
		<path fill="#FFFFFF" stroke="#FF2526" stroke-width="0.5" stroke-miterlimit="10" d="M-25,185.6c0,0.497-0.398,0.9-0.889,0.9
			h-30.222c-0.491,0-0.889-0.403-0.889-0.9v-16.2c0-0.497,0.398-0.9,0.889-0.9h30.222c0.491,0,0.889,0.403,0.889,0.9V185.6z"/>
		<line fill="none" stroke="#FF2526" stroke-width="0.5" stroke-miterlimit="10" x1="-57" y1="172.833" x2="-25" y2="172.833"/>
		<line fill="none" stroke="#FF2526" stroke-width="0.5" stroke-miterlimit="10" x1="-57" y1="176.833" x2="-25" y2="176.833"/>
		<line fill="none" stroke="#FF2526" stroke-width="0.5" stroke-miterlimit="10" x1="-57" y1="180.833" x2="-25" y2="180.833"/>
		
			<line fill="none" stroke="#FF2526" stroke-width="0.5" stroke-miterlimit="10" x1="-30.895" y1="172.833" x2="-30.895" y2="176.833"/>
		
			<line fill="none" stroke="#FF2526" stroke-width="0.5" stroke-miterlimit="10" x1="-40.895" y1="172.833" x2="-40.895" y2="176.833"/>
		
			<line fill="none" stroke="#FF2526" stroke-width="0.5" stroke-miterlimit="10" x1="-50.895" y1="172.833" x2="-50.895" y2="176.833"/>
		<g>
			<path d="M-55.028,170.398v-0.189c0.088-0.004,0.149-0.01,0.184-0.018c0.056-0.013,0.102-0.037,0.136-0.074
				c0.024-0.025,0.042-0.06,0.055-0.102c0.007-0.025,0.011-0.044,0.011-0.057h0.232v1.416h-0.285v-0.977H-55.028z"/>
			<path d="M-53.926,171.096c0.04-0.095,0.133-0.194,0.281-0.3c0.128-0.092,0.211-0.157,0.249-0.197
				c0.058-0.062,0.087-0.13,0.087-0.203c0-0.06-0.017-0.109-0.05-0.149s-0.081-0.06-0.143-0.06c-0.084,0-0.142,0.031-0.173,0.095
				c-0.018,0.036-0.028,0.095-0.031,0.174h-0.271c0.004-0.12,0.026-0.218,0.065-0.292c0.074-0.142,0.207-0.212,0.396-0.212
				c0.15,0,0.269,0.042,0.358,0.124c0.088,0.084,0.133,0.193,0.133,0.33c0,0.104-0.031,0.198-0.094,0.279
				c-0.042,0.054-0.109,0.114-0.203,0.181l-0.112,0.079c-0.07,0.05-0.117,0.085-0.143,0.107s-0.047,0.048-0.065,0.077h0.618v0.245
				h-0.97C-53.989,171.273-53.967,171.18-53.926,171.096z"/>
			<path d="M-52.616,170.94c0,0.057,0.009,0.104,0.027,0.141c0.034,0.068,0.095,0.103,0.184,0.103c0.055,0,0.102-0.019,0.143-0.057
				c0.041-0.037,0.061-0.091,0.061-0.161c0-0.093-0.038-0.155-0.113-0.187c-0.043-0.018-0.11-0.026-0.203-0.026v-0.199
				c0.09-0.001,0.153-0.01,0.189-0.026c0.062-0.027,0.092-0.083,0.092-0.166c0-0.054-0.016-0.098-0.047-0.132
				c-0.031-0.034-0.076-0.051-0.133-0.051c-0.065,0-0.114,0.021-0.145,0.062s-0.046,0.098-0.044,0.167h-0.26
				c0.002-0.07,0.015-0.137,0.036-0.2c0.023-0.056,0.059-0.106,0.107-0.153c0.036-0.033,0.08-0.059,0.129-0.076
				c0.05-0.018,0.112-0.026,0.185-0.026c0.135,0,0.244,0.035,0.327,0.104c0.083,0.07,0.125,0.164,0.125,0.282
				c0,0.083-0.025,0.153-0.074,0.211c-0.031,0.036-0.064,0.061-0.098,0.073c0.025,0,0.062,0.021,0.109,0.065
				c0.071,0.065,0.106,0.155,0.106,0.27c0,0.12-0.042,0.226-0.125,0.315c-0.083,0.092-0.206,0.137-0.368,0.137
				c-0.2,0-0.339-0.065-0.417-0.196c-0.041-0.069-0.064-0.161-0.068-0.273H-52.616z"/>
			<path d="M-50.784,171.07h-0.16v0.305h-0.272v-0.305h-0.561v-0.243l0.521-0.859h0.312v0.885h0.16V171.07z M-51.216,170.852v-0.61
				l-0.354,0.61H-51.216z"/>
			<path d="M-50.387,170.995c0.011,0.061,0.032,0.107,0.063,0.141c0.031,0.032,0.077,0.049,0.136,0.049
				c0.069,0,0.121-0.024,0.157-0.072c0.036-0.049,0.054-0.11,0.054-0.184c0-0.072-0.017-0.133-0.051-0.184
				c-0.034-0.049-0.086-0.074-0.158-0.074c-0.034,0-0.063,0.004-0.088,0.013c-0.043,0.016-0.076,0.045-0.098,0.087l-0.25-0.012
				l0.099-0.782h0.779v0.236h-0.578l-0.051,0.31c0.043-0.028,0.076-0.047,0.101-0.056c0.04-0.015,0.089-0.022,0.147-0.022
				c0.117,0,0.219,0.039,0.306,0.118c0.087,0.079,0.131,0.193,0.131,0.344c0,0.131-0.042,0.248-0.126,0.351
				s-0.209,0.154-0.376,0.154c-0.135,0-0.245-0.036-0.332-0.108s-0.135-0.175-0.145-0.308H-50.387z"/>
			<path d="M-48.872,170.315c0-0.022-0.009-0.048-0.026-0.075c-0.03-0.044-0.075-0.066-0.136-0.066c-0.09,0-0.155,0.051-0.193,0.152
				c-0.021,0.056-0.035,0.139-0.043,0.248c0.035-0.041,0.075-0.071,0.12-0.09s0.098-0.028,0.156-0.028
				c0.125,0,0.229,0.043,0.309,0.128s0.121,0.194,0.121,0.327c0,0.132-0.04,0.249-0.118,0.35s-0.201,0.151-0.367,0.151
				c-0.178,0-0.31-0.074-0.395-0.224c-0.066-0.116-0.099-0.267-0.099-0.451c0-0.108,0.004-0.196,0.014-0.264
				c0.016-0.12,0.048-0.221,0.095-0.301c0.041-0.068,0.093-0.123,0.159-0.165s0.144-0.062,0.235-0.062
				c0.131,0,0.236,0.033,0.314,0.102c0.078,0.066,0.122,0.156,0.132,0.269H-48.872z M-49.202,171.113
				c0.041,0.048,0.093,0.072,0.156,0.072c0.062,0,0.11-0.023,0.146-0.07c0.036-0.046,0.053-0.106,0.053-0.181
				c0-0.083-0.02-0.146-0.061-0.19c-0.041-0.043-0.09-0.065-0.148-0.065c-0.047,0-0.089,0.015-0.126,0.043
				c-0.055,0.042-0.082,0.11-0.082,0.205C-49.263,171.002-49.243,171.065-49.202,171.113z"/>
			<path d="M-47.759,170.315c0-0.022-0.009-0.048-0.026-0.075c-0.03-0.044-0.075-0.066-0.136-0.066c-0.09,0-0.155,0.051-0.193,0.152
				c-0.021,0.056-0.035,0.139-0.043,0.248c0.035-0.041,0.075-0.071,0.12-0.09s0.098-0.028,0.156-0.028
				c0.125,0,0.229,0.043,0.309,0.128s0.121,0.194,0.121,0.327c0,0.132-0.04,0.249-0.118,0.35s-0.201,0.151-0.367,0.151
				c-0.178,0-0.31-0.074-0.395-0.224c-0.066-0.116-0.099-0.267-0.099-0.451c0-0.108,0.004-0.196,0.014-0.264
				c0.016-0.12,0.048-0.221,0.095-0.301c0.041-0.068,0.093-0.123,0.159-0.165s0.144-0.062,0.235-0.062
				c0.131,0,0.236,0.033,0.314,0.102c0.078,0.066,0.122,0.156,0.132,0.269H-47.759z M-48.089,171.113
				c0.041,0.048,0.093,0.072,0.156,0.072c0.062,0,0.11-0.023,0.146-0.07c0.036-0.046,0.053-0.106,0.053-0.181
				c0-0.083-0.02-0.146-0.061-0.19c-0.041-0.043-0.09-0.065-0.148-0.065c-0.047,0-0.089,0.015-0.126,0.043
				c-0.055,0.042-0.082,0.11-0.082,0.205C-48.151,171.002-48.13,171.065-48.089,171.113z"/>
			<path d="M-46.326,170.195c-0.042,0.041-0.1,0.114-0.174,0.219c-0.074,0.105-0.137,0.214-0.187,0.326
				c-0.04,0.088-0.076,0.195-0.108,0.322c-0.032,0.127-0.048,0.231-0.048,0.312h-0.289c0.008-0.254,0.092-0.518,0.25-0.792
				c0.103-0.17,0.188-0.288,0.257-0.355h-0.706l0.004-0.25h1V170.195z"/>
			<path d="M-46.162,170.766c0.036-0.064,0.088-0.113,0.158-0.146c-0.068-0.046-0.113-0.095-0.134-0.148
				c-0.021-0.053-0.031-0.103-0.031-0.148c0-0.103,0.039-0.19,0.116-0.264c0.078-0.072,0.188-0.108,0.329-0.108
				s0.251,0.036,0.329,0.108c0.078,0.073,0.117,0.161,0.117,0.264c0,0.046-0.01,0.096-0.031,0.148
				c-0.021,0.054-0.065,0.1-0.133,0.139c0.07,0.039,0.123,0.091,0.158,0.155c0.035,0.064,0.053,0.137,0.053,0.216
				c0,0.119-0.044,0.221-0.132,0.305c-0.088,0.083-0.212,0.125-0.37,0.125s-0.278-0.042-0.36-0.125
				c-0.082-0.084-0.122-0.186-0.122-0.305C-46.215,170.903-46.197,170.83-46.162,170.766z M-45.872,171.125
				c0.036,0.038,0.086,0.058,0.15,0.058s0.114-0.02,0.15-0.058s0.054-0.093,0.054-0.162c0-0.072-0.019-0.127-0.055-0.165
				c-0.037-0.037-0.086-0.056-0.149-0.056s-0.112,0.019-0.149,0.056c-0.037,0.038-0.055,0.093-0.055,0.165
				C-45.926,171.033-45.908,171.087-45.872,171.125z M-45.855,170.481c0.032,0.032,0.076,0.049,0.132,0.049
				c0.057,0,0.101-0.017,0.132-0.049c0.031-0.032,0.046-0.074,0.046-0.126c0-0.056-0.016-0.1-0.046-0.131
				c-0.031-0.032-0.075-0.048-0.132-0.048c-0.056,0-0.1,0.016-0.132,0.048c-0.032,0.031-0.047,0.075-0.047,0.131
				C-45.902,170.407-45.886,170.449-45.855,170.481z"/>
			<path d="M-44.965,170.087c0.087-0.094,0.201-0.141,0.341-0.141c0.215,0,0.363,0.096,0.443,0.286
				c0.045,0.108,0.068,0.25,0.068,0.427c0,0.171-0.022,0.314-0.065,0.429c-0.083,0.218-0.236,0.327-0.459,0.327
				c-0.106,0-0.202-0.031-0.286-0.094c-0.084-0.063-0.133-0.155-0.146-0.275h0.277c0.006,0.042,0.024,0.075,0.053,0.102
				s0.067,0.039,0.114,0.039c0.092,0,0.156-0.051,0.193-0.152c0.02-0.056,0.033-0.138,0.038-0.245
				c-0.025,0.032-0.052,0.057-0.081,0.073c-0.052,0.031-0.116,0.047-0.192,0.047c-0.113,0-0.212-0.039-0.3-0.117
				c-0.087-0.077-0.131-0.189-0.131-0.336C-45.096,170.305-45.052,170.182-44.965,170.087z M-44.497,170.65
				c0.063-0.04,0.095-0.11,0.095-0.21c0-0.08-0.019-0.144-0.056-0.19s-0.089-0.07-0.154-0.07c-0.047,0-0.088,0.014-0.122,0.04
				c-0.053,0.042-0.08,0.112-0.08,0.212c0,0.084,0.017,0.146,0.051,0.189c0.034,0.041,0.087,0.062,0.158,0.062
				C-44.566,170.683-44.53,170.672-44.497,170.65z"/>
			<path d="M-39.046,169.935h0.433v1.439h-0.28v-0.974c0-0.028,0-0.067,0.001-0.118c0-0.05,0.001-0.089,0.001-0.116l-0.273,1.208
				h-0.292l-0.271-1.208c0,0.027,0,0.066,0.001,0.116c0,0.051,0.001,0.09,0.001,0.118v0.974h-0.28v-1.439h0.438l0.262,1.132
				L-39.046,169.935z"/>
			<path d="M-37.924,169.935h0.34l0.509,1.439H-37.4l-0.095-0.296h-0.53l-0.098,0.296h-0.314L-37.924,169.935z M-37.944,170.83
				h0.369l-0.182-0.566L-37.944,170.83z"/>
			<path d="M-36.661,171.374h-0.35l0.463-0.733l-0.44-0.706h0.359l0.257,0.469l0.264-0.469h0.348l-0.44,0.694l0.468,0.745h-0.365
				l-0.273-0.491L-36.661,171.374z"/>
			<path d="M-34.046,169.935h0.433v1.439h-0.28v-0.974c0-0.028,0-0.067,0.001-0.118c0-0.05,0.001-0.089,0.001-0.116l-0.273,1.208
				h-0.292l-0.271-1.208c0,0.027,0,0.066,0.001,0.116c0,0.051,0.001,0.09,0.001,0.118v0.974h-0.28v-1.439h0.438l0.262,1.132
				L-34.046,169.935z"/>
			<path d="M-33.336,169.935h0.306v0.884c0,0.1,0.012,0.171,0.035,0.217c0.036,0.081,0.115,0.121,0.237,0.121
				c0.121,0,0.2-0.04,0.236-0.121c0.023-0.046,0.035-0.117,0.035-0.217v-0.884h0.306v0.885c0,0.153-0.024,0.272-0.071,0.357
				c-0.088,0.156-0.257,0.234-0.506,0.234s-0.418-0.078-0.507-0.234c-0.047-0.085-0.071-0.204-0.071-0.357V169.935z"/>
			<path d="M-31.674,170.93c0.009,0.065,0.027,0.115,0.055,0.147c0.05,0.06,0.135,0.089,0.256,0.089
				c0.073,0,0.131-0.008,0.177-0.023c0.085-0.03,0.128-0.086,0.128-0.167c0-0.048-0.021-0.084-0.063-0.11
				c-0.042-0.025-0.109-0.048-0.2-0.067l-0.156-0.034c-0.153-0.034-0.258-0.07-0.315-0.11c-0.097-0.066-0.146-0.17-0.146-0.312
				c0-0.129,0.047-0.236,0.143-0.321c0.095-0.085,0.234-0.128,0.418-0.128c0.153,0,0.285,0.04,0.393,0.12
				c0.108,0.081,0.165,0.197,0.17,0.351h-0.289c-0.005-0.087-0.044-0.148-0.116-0.185c-0.048-0.024-0.108-0.036-0.179-0.036
				c-0.08,0-0.143,0.016-0.19,0.047c-0.048,0.031-0.071,0.075-0.071,0.131c0,0.052,0.023,0.09,0.07,0.115
				c0.03,0.017,0.094,0.037,0.191,0.06l0.253,0.06c0.11,0.026,0.193,0.061,0.249,0.104c0.086,0.067,0.129,0.166,0.129,0.294
				c0,0.132-0.051,0.241-0.152,0.327c-0.102,0.088-0.246,0.131-0.431,0.131c-0.189,0-0.338-0.043-0.447-0.129
				c-0.109-0.085-0.163-0.203-0.163-0.353H-31.674z"/>
			<path d="M-29.511,169.935v0.255h-0.431v1.185h-0.303v-1.185h-0.433v-0.255H-29.511z"/>
			<path d="M-28.271,170.19h-0.762v0.306h0.699v0.25h-0.699v0.37h0.797v0.259h-1.091v-1.439h1.056V170.19z"/>
			<path d="M-27.079,169.972c0.053,0.022,0.098,0.057,0.135,0.101c0.031,0.036,0.055,0.077,0.072,0.121
				c0.018,0.044,0.027,0.095,0.027,0.151c0,0.068-0.017,0.136-0.052,0.201c-0.035,0.066-0.091,0.113-0.171,0.141
				c0.066,0.026,0.113,0.064,0.141,0.113c0.028,0.05,0.042,0.125,0.042,0.226v0.097c0,0.065,0.002,0.11,0.008,0.134
				c0.008,0.037,0.026,0.064,0.056,0.082v0.036h-0.332c-0.009-0.032-0.016-0.058-0.02-0.077c-0.008-0.04-0.012-0.082-0.013-0.124
				l-0.002-0.134c-0.001-0.092-0.017-0.153-0.047-0.184c-0.031-0.03-0.088-0.046-0.171-0.046h-0.294v0.564h-0.294v-1.439h0.688
				C-27.208,169.937-27.132,169.95-27.079,169.972z M-27.701,170.185v0.387h0.324c0.064,0,0.112-0.008,0.145-0.023
				c0.057-0.027,0.085-0.081,0.085-0.162c0-0.087-0.027-0.146-0.083-0.176c-0.031-0.017-0.077-0.025-0.139-0.025H-27.701z"/>
		</g>
		<g>
			<path d="M-38.975,182.936h0.433v1.439h-0.28v-0.974c0-0.028,0-0.067,0.001-0.118c0-0.05,0.001-0.089,0.001-0.116l-0.273,1.208
				h-0.292l-0.271-1.208c0,0.027,0,0.066,0.001,0.116c0,0.051,0.001,0.09,0.001,0.118v0.974h-0.28v-1.439h0.438l0.262,1.132
				L-38.975,182.936z"/>
			<path d="M-37.853,182.936h0.34l0.509,1.439h-0.326l-0.095-0.296h-0.53l-0.098,0.296h-0.314L-37.853,182.936z M-37.873,183.831
				h0.369l-0.182-0.566L-37.873,183.831z"/>
			<path d="M-36.59,184.375h-0.35l0.463-0.733l-0.44-0.706h0.359l0.257,0.469l0.264-0.469h0.348l-0.44,0.694l0.468,0.745h-0.365
				l-0.273-0.491L-36.59,184.375z"/>
			<path d="M-33.975,182.936h0.433v1.439h-0.28v-0.974c0-0.028,0-0.067,0.001-0.118c0-0.05,0.001-0.089,0.001-0.116l-0.273,1.208
				h-0.292l-0.271-1.208c0,0.027,0,0.066,0.001,0.116c0,0.051,0.001,0.09,0.001,0.118v0.974h-0.28v-1.439h0.438l0.262,1.132
				L-33.975,182.936z"/>
			<path d="M-33.264,182.936h0.306v0.884c0,0.1,0.012,0.171,0.035,0.217c0.036,0.081,0.115,0.121,0.237,0.121
				c0.121,0,0.2-0.04,0.236-0.121c0.023-0.046,0.035-0.117,0.035-0.217v-0.884h0.306v0.885c0,0.153-0.024,0.272-0.071,0.357
				c-0.088,0.156-0.257,0.234-0.506,0.234s-0.418-0.078-0.507-0.234c-0.047-0.085-0.071-0.204-0.071-0.357V182.936z"/>
			<path d="M-31.603,183.931c0.009,0.065,0.027,0.115,0.055,0.147c0.05,0.06,0.135,0.089,0.256,0.089
				c0.073,0,0.131-0.008,0.177-0.023c0.085-0.03,0.128-0.086,0.128-0.167c0-0.048-0.021-0.084-0.063-0.11
				c-0.042-0.025-0.109-0.048-0.2-0.067l-0.156-0.034c-0.153-0.034-0.258-0.07-0.315-0.11c-0.097-0.066-0.146-0.17-0.146-0.312
				c0-0.129,0.047-0.236,0.143-0.321c0.095-0.085,0.234-0.128,0.418-0.128c0.153,0,0.285,0.04,0.393,0.12
				c0.108,0.081,0.165,0.197,0.17,0.351h-0.289c-0.005-0.087-0.044-0.148-0.116-0.185c-0.048-0.024-0.108-0.036-0.179-0.036
				c-0.08,0-0.143,0.016-0.19,0.047c-0.048,0.031-0.071,0.075-0.071,0.131c0,0.052,0.023,0.09,0.07,0.115
				c0.03,0.017,0.094,0.037,0.191,0.06l0.253,0.06c0.11,0.026,0.193,0.061,0.249,0.104c0.086,0.067,0.129,0.166,0.129,0.294
				c0,0.132-0.051,0.241-0.152,0.327c-0.102,0.088-0.246,0.131-0.431,0.131c-0.189,0-0.338-0.043-0.447-0.129
				c-0.109-0.085-0.163-0.203-0.163-0.353H-31.603z"/>
			<path d="M-29.44,182.936v0.255h-0.431v1.185h-0.303v-1.185h-0.433v-0.255H-29.44z"/>
			<path d="M-28.2,183.191h-0.762v0.306h0.699v0.25h-0.699v0.37h0.797v0.259h-1.091v-1.439h1.056V183.191z"/>
			<path d="M-27.008,182.973c0.053,0.022,0.098,0.057,0.135,0.101c0.031,0.036,0.055,0.077,0.072,0.121
				c0.018,0.044,0.027,0.095,0.027,0.151c0,0.068-0.017,0.136-0.052,0.201c-0.035,0.066-0.091,0.113-0.171,0.141
				c0.066,0.026,0.113,0.064,0.141,0.113c0.028,0.05,0.042,0.125,0.042,0.226v0.097c0,0.065,0.002,0.11,0.008,0.134
				c0.008,0.037,0.026,0.064,0.056,0.082v0.036h-0.332c-0.009-0.032-0.016-0.058-0.02-0.077c-0.008-0.04-0.012-0.082-0.013-0.124
				l-0.002-0.134c-0.001-0.092-0.017-0.153-0.047-0.184c-0.031-0.03-0.088-0.046-0.171-0.046h-0.294v0.564h-0.294v-1.439h0.688
				C-27.136,182.938-27.061,182.951-27.008,182.973z M-27.629,183.186v0.387h0.324c0.064,0,0.112-0.008,0.145-0.023
				c0.057-0.027,0.085-0.081,0.085-0.162c0-0.087-0.027-0.146-0.083-0.176c-0.031-0.017-0.077-0.025-0.139-0.025H-27.629z"/>
		</g>
		<g>
			<path d="M-55.027,174.523v-0.189c0.088-0.004,0.149-0.01,0.184-0.018c0.056-0.013,0.102-0.037,0.136-0.074
				c0.024-0.025,0.042-0.06,0.055-0.102c0.007-0.025,0.011-0.044,0.011-0.057h0.232v1.416h-0.285v-0.977H-55.027z"/>
			<path d="M-53.886,175.221c0.04-0.095,0.133-0.194,0.281-0.3c0.128-0.092,0.211-0.157,0.249-0.197
				c0.058-0.062,0.087-0.13,0.087-0.203c0-0.06-0.017-0.109-0.05-0.149s-0.081-0.06-0.143-0.06c-0.084,0-0.142,0.031-0.173,0.095
				c-0.018,0.036-0.028,0.095-0.031,0.174h-0.271c0.004-0.12,0.026-0.218,0.065-0.292c0.074-0.142,0.207-0.212,0.396-0.212
				c0.15,0,0.269,0.042,0.358,0.124c0.088,0.084,0.133,0.193,0.133,0.33c0,0.104-0.031,0.198-0.094,0.279
				c-0.042,0.054-0.109,0.114-0.203,0.181l-0.112,0.079c-0.07,0.05-0.117,0.085-0.143,0.107s-0.047,0.048-0.065,0.077h0.618v0.245
				h-0.97C-53.949,175.398-53.927,175.305-53.886,175.221z"/>
		</g>
		<g>
			<path d="M-49.027,174.523v-0.189c0.088-0.004,0.149-0.01,0.184-0.018c0.056-0.013,0.102-0.037,0.136-0.074
				c0.024-0.025,0.042-0.06,0.055-0.102c0.007-0.025,0.011-0.044,0.011-0.057h0.232v1.416h-0.285v-0.977H-49.027z"/>
			<path d="M-47.846,175.221c0.04-0.095,0.133-0.194,0.281-0.3c0.128-0.092,0.211-0.157,0.249-0.197
				c0.058-0.062,0.087-0.13,0.087-0.203c0-0.06-0.017-0.109-0.05-0.149s-0.081-0.06-0.143-0.06c-0.084,0-0.142,0.031-0.173,0.095
				c-0.018,0.036-0.028,0.095-0.031,0.174h-0.271c0.004-0.12,0.026-0.218,0.065-0.292c0.074-0.142,0.207-0.212,0.396-0.212
				c0.15,0,0.269,0.042,0.358,0.124c0.088,0.084,0.133,0.193,0.133,0.33c0,0.104-0.031,0.198-0.094,0.279
				c-0.042,0.054-0.109,0.114-0.203,0.181l-0.112,0.079c-0.07,0.05-0.117,0.085-0.143,0.107s-0.047,0.048-0.065,0.077h0.618v0.245
				h-0.97C-47.909,175.398-47.887,175.305-47.846,175.221z"/>
			<path d="M-45.735,175.195h-0.16v0.305h-0.272v-0.305h-0.561v-0.243l0.521-0.859h0.312v0.885h0.16V175.195z M-46.168,174.977
				v-0.61l-0.354,0.61H-46.168z"/>
			<path d="M-45.259,175.12c0.011,0.061,0.032,0.107,0.063,0.141c0.031,0.032,0.077,0.049,0.136,0.049
				c0.069,0,0.121-0.024,0.157-0.072c0.036-0.049,0.054-0.11,0.054-0.184c0-0.072-0.017-0.133-0.051-0.184
				c-0.034-0.049-0.086-0.074-0.158-0.074c-0.034,0-0.063,0.004-0.088,0.013c-0.043,0.016-0.076,0.045-0.098,0.087l-0.25-0.012
				l0.099-0.782h0.779v0.236h-0.578l-0.051,0.31c0.043-0.028,0.076-0.047,0.101-0.056c0.04-0.015,0.089-0.022,0.147-0.022
				c0.117,0,0.219,0.039,0.306,0.118c0.087,0.079,0.131,0.193,0.131,0.344c0,0.131-0.042,0.248-0.126,0.351
				s-0.209,0.154-0.376,0.154c-0.135,0-0.245-0.036-0.332-0.108s-0.135-0.175-0.145-0.308H-45.259z"/>
			<path d="M-43.664,174.44c0-0.022-0.009-0.048-0.026-0.075c-0.03-0.044-0.075-0.066-0.136-0.066c-0.09,0-0.155,0.051-0.193,0.152
				c-0.021,0.056-0.035,0.139-0.043,0.248c0.035-0.041,0.075-0.071,0.12-0.09s0.098-0.028,0.156-0.028
				c0.125,0,0.229,0.043,0.309,0.128s0.121,0.194,0.121,0.327c0,0.132-0.04,0.249-0.118,0.35s-0.201,0.151-0.367,0.151
				c-0.178,0-0.31-0.074-0.395-0.224c-0.066-0.116-0.099-0.267-0.099-0.451c0-0.108,0.004-0.196,0.014-0.264
				c0.016-0.12,0.048-0.221,0.095-0.301c0.041-0.068,0.093-0.123,0.159-0.165s0.144-0.062,0.235-0.062
				c0.131,0,0.236,0.033,0.314,0.102c0.078,0.066,0.122,0.156,0.132,0.269H-43.664z M-43.994,175.238
				c0.041,0.048,0.093,0.072,0.156,0.072c0.062,0,0.11-0.023,0.146-0.07c0.036-0.046,0.053-0.106,0.053-0.181
				c0-0.083-0.02-0.146-0.061-0.19c-0.041-0.043-0.09-0.065-0.148-0.065c-0.047,0-0.089,0.015-0.126,0.043
				c-0.055,0.042-0.082,0.11-0.082,0.205C-44.055,175.127-44.035,175.19-43.994,175.238z"/>
		</g>
		<g>
			<path d="M-38.652,174.523v-0.189c0.088-0.004,0.149-0.01,0.184-0.018c0.056-0.013,0.102-0.037,0.136-0.074
				c0.024-0.025,0.042-0.06,0.055-0.102c0.007-0.025,0.011-0.044,0.011-0.057h0.232v1.416h-0.285v-0.977H-38.652z"/>
			<path d="M-37.471,175.221c0.04-0.095,0.133-0.194,0.281-0.3c0.128-0.092,0.211-0.157,0.249-0.197
				c0.058-0.062,0.087-0.13,0.087-0.203c0-0.06-0.017-0.109-0.05-0.149s-0.081-0.06-0.143-0.06c-0.084,0-0.142,0.031-0.173,0.095
				c-0.018,0.036-0.028,0.095-0.031,0.174h-0.271c0.004-0.12,0.026-0.218,0.065-0.292c0.074-0.142,0.207-0.212,0.396-0.212
				c0.15,0,0.269,0.042,0.358,0.124c0.088,0.084,0.133,0.193,0.133,0.33c0,0.104-0.031,0.198-0.094,0.279
				c-0.042,0.054-0.109,0.114-0.203,0.181l-0.112,0.079c-0.07,0.05-0.117,0.085-0.143,0.107s-0.047,0.048-0.065,0.077h0.618v0.245
				h-0.97C-37.534,175.398-37.512,175.305-37.471,175.221z"/>
			<path d="M-35.36,175.195h-0.16v0.305h-0.272v-0.305h-0.561v-0.243l0.521-0.859h0.312v0.885h0.16V175.195z M-35.793,174.977v-0.61
				l-0.354,0.61H-35.793z"/>
			<path d="M-34.884,175.12c0.011,0.061,0.032,0.107,0.063,0.141c0.031,0.032,0.077,0.049,0.136,0.049
				c0.069,0,0.121-0.024,0.157-0.072c0.036-0.049,0.054-0.11,0.054-0.184c0-0.072-0.017-0.133-0.051-0.184
				c-0.034-0.049-0.086-0.074-0.158-0.074c-0.034,0-0.063,0.004-0.088,0.013c-0.043,0.016-0.076,0.045-0.098,0.087l-0.25-0.012
				l0.099-0.782h0.779v0.236h-0.578l-0.051,0.31c0.043-0.028,0.076-0.047,0.101-0.056c0.04-0.015,0.089-0.022,0.147-0.022
				c0.117,0,0.219,0.039,0.306,0.118c0.087,0.079,0.131,0.193,0.131,0.344c0,0.131-0.042,0.248-0.126,0.351
				s-0.209,0.154-0.376,0.154c-0.135,0-0.245-0.036-0.332-0.108s-0.135-0.175-0.145-0.308H-34.884z"/>
			<path d="M-33.289,174.44c0-0.022-0.009-0.048-0.026-0.075c-0.03-0.044-0.075-0.066-0.136-0.066c-0.09,0-0.155,0.051-0.193,0.152
				c-0.021,0.056-0.035,0.139-0.043,0.248c0.035-0.041,0.075-0.071,0.12-0.09s0.098-0.028,0.156-0.028
				c0.125,0,0.229,0.043,0.309,0.128s0.121,0.194,0.121,0.327c0,0.132-0.04,0.249-0.118,0.35s-0.201,0.151-0.367,0.151
				c-0.178,0-0.31-0.074-0.395-0.224c-0.066-0.116-0.099-0.267-0.099-0.451c0-0.108,0.004-0.196,0.014-0.264
				c0.016-0.12,0.048-0.221,0.095-0.301c0.041-0.068,0.093-0.123,0.159-0.165s0.144-0.062,0.235-0.062
				c0.131,0,0.236,0.033,0.314,0.102c0.078,0.066,0.122,0.156,0.132,0.269H-33.289z M-33.619,175.238
				c0.041,0.048,0.093,0.072,0.156,0.072c0.062,0,0.11-0.023,0.146-0.07c0.036-0.046,0.053-0.106,0.053-0.181
				c0-0.083-0.02-0.146-0.061-0.19c-0.041-0.043-0.09-0.065-0.148-0.065c-0.047,0-0.089,0.015-0.126,0.043
				c-0.055,0.042-0.082,0.11-0.082,0.205C-33.68,175.127-33.66,175.19-33.619,175.238z"/>
		</g>
		<g>
			<path d="M-28.777,174.524v-0.189c0.088-0.004,0.149-0.01,0.184-0.018c0.056-0.013,0.102-0.037,0.136-0.074
				c0.024-0.025,0.042-0.06,0.055-0.102c0.007-0.025,0.011-0.044,0.011-0.057h0.232v1.416h-0.285v-0.977H-28.777z"/>
			<path d="M-27.596,175.222c0.04-0.095,0.133-0.194,0.281-0.3c0.128-0.092,0.211-0.157,0.249-0.197
				c0.058-0.062,0.087-0.13,0.087-0.203c0-0.06-0.017-0.109-0.05-0.149s-0.081-0.06-0.143-0.06c-0.084,0-0.142,0.031-0.173,0.095
				c-0.018,0.036-0.028,0.095-0.031,0.174h-0.271c0.004-0.12,0.026-0.218,0.065-0.292c0.074-0.142,0.207-0.212,0.396-0.212
				c0.15,0,0.269,0.042,0.358,0.124c0.088,0.084,0.133,0.193,0.133,0.33c0,0.104-0.031,0.198-0.094,0.279
				c-0.042,0.054-0.109,0.114-0.203,0.181l-0.112,0.079c-0.07,0.05-0.117,0.085-0.143,0.107s-0.047,0.048-0.065,0.077h0.618v0.245
				h-0.97C-27.659,175.399-27.637,175.306-27.596,175.222z"/>
		</g>
	</g>
</g>
<g id="PayPal">
	<path fill="#FFFFFF" d="M-16,159.794c0,0.943-0.746,1.706-1.667,1.706h-46.664c-0.921,0-1.667-0.764-1.667-1.706v-28.587
		c0-0.943,0.746-1.706,1.667-1.706h46.666c0.921,0,1.667,0.764,1.667,1.706v28.587H-16z"/>
	<path fill="#34679A" d="M-31.371,143.771c-0.317-0.179-0.81-0.271-1.487-0.271c-0.333,0-0.671,0.028-1.009,0.081l-0.427,0.079
		c-0.317,0.07-0.364,0.394-0.364,0.394l-0.101,0.429c-0.059,0.273,0.094,0.262,0.163,0.241l0.496-0.151
		c0.269-0.063,0.554-0.109,0.781-0.106c0.333,0,0.587,0.038,0.756,0.109c0.169,0.074,0.251,0.202,0.251,0.385l-0.014,0.122
		l-0.121,0.077c-0.474,0.028-0.817,0.073-1.227,0.134c-0.404,0.058-0.76,0.159-1.056,0.297c-0.317,0.143-0.551,0.335-0.717,0.58
		c-0.159,0.246-0.237,0.543-0.24,0.89c0,0.33,0.114,0.599,0.34,0.809c0.227,0.207,0.521,0.307,0.879,0.307l0.523-0.051l0.401-0.141
		l0.341-0.193l0.314-0.215l0.004,0.006l-0.031,0.138l-0.001,0.001l0.001,0.001c-0.036,0.166,0.063,0.303,0.223,0.32l0.001,0.001
		h0.774l0.013-0.004c0.163-0.022,0.319-0.156,0.356-0.32l0.609-2.687l0.031-0.22l0.014-0.205
		C-30.896,144.232-31.056,143.95-31.371,143.771z M-32.844,146.971l-0.327,0.173l-0.433,0.096c-0.209,0-0.367-0.031-0.473-0.095
		c-0.109-0.063-0.164-0.166-0.163-0.319c0-0.175,0.04-0.31,0.121-0.416l0.356-0.246l0.549-0.127l0.613-0.07l0.059,0.105
		l-0.169,0.719C-32.713,146.794-32.844,146.971-32.844,146.971z"/>
	<path fill="#1C3665" d="M-41.828,143.557c-0.177,0-0.413,0.147-0.523,0.326l-1.31,2.304h-0.14l-0.369-2.29
		c-0.041-0.179-0.226-0.335-0.454-0.333l-0.744,0.001c-0.179,0-0.291,0.147-0.251,0.324c0,0,0.569,3.301,0.679,4.074
		c0.056,0.429-0.006,0.506-0.006,0.506l-0.736,1.314c-0.109,0.177-0.049,0.324,0.129,0.324h0.863c0.179,0,0.414-0.145,0.521-0.324
		l3.314-5.743c0,0,0.317-0.49,0.024-0.486h-0.997 M-52.295,144.725c-0.251,0.188-0.599,0.282-1.05,0.282h-0.204
		c-0.179,0-0.294-0.147-0.254-0.326l0.25-1.106c0.037-0.177,0.217-0.326,0.399-0.324l0.273-0.001c0.319,0,0.56,0.055,0.723,0.166
		c0.16,0.106,0.241,0.278,0.24,0.508C-51.917,144.27-52.044,144.538-52.295,144.725 M-50.498,143.021
		c-0.104-0.207-0.259-0.374-0.456-0.502c-0.204-0.129-0.444-0.22-0.723-0.273c-0.281-0.051-0.606-0.077-0.983-0.079l-1.737,0.001
		c-0.181,0.001-0.359,0.147-0.4,0.324l-1.171,5.216c-0.04,0.179,0.073,0.326,0.251,0.326h0.833c0.179,0,0.359-0.143,0.399-0.326
		l0.287-1.266c0.037-0.177,0.217-0.324,0.396-0.324h0.237c1.019,0,1.809-0.214,2.374-0.64c0.566-0.426,0.85-0.991,0.849-1.69
		C-50.337,143.483-50.389,143.226-50.498,143.021"/>
	<path fill="#34679A" d="M-37.183,144.746c-0.25,0.186-0.6,0.279-1.05,0.279h-0.206c-0.179,0.001-0.294-0.147-0.251-0.324
		l0.25-1.107c0.037-0.175,0.219-0.324,0.396-0.321l0.273-0.001c0.319,0.001,0.559,0.058,0.723,0.164
		c0.163,0.111,0.24,0.282,0.241,0.508C-36.808,144.289-36.933,144.557-37.183,144.746 M-35.387,143.04
		c-0.104-0.207-0.26-0.374-0.459-0.502c-0.204-0.129-0.444-0.22-0.723-0.273c-0.274-0.049-0.604-0.079-0.979-0.079h-1.741
		c-0.179,0.001-0.354,0.147-0.399,0.324l-1.171,5.216c-0.044,0.177,0.073,0.326,0.25,0.324l0.836-0.001
		c0.177,0.001,0.359-0.145,0.4-0.321l0.281-1.266c0.04-0.177,0.221-0.326,0.4-0.324h0.237c1.019,0,1.81-0.214,2.376-0.641
		c0.564-0.429,0.849-0.992,0.849-1.692C-35.228,143.502-35.281,143.245-35.387,143.04"/>
	<path fill="#1C3665" d="M-46.485,143.767c-0.317-0.182-0.81-0.271-1.487-0.271c-0.336,0-0.671,0.028-1.009,0.081l-0.427,0.079
		c-0.317,0.07-0.364,0.394-0.364,0.394l-0.101,0.429c-0.059,0.273,0.096,0.262,0.163,0.241l0.494-0.15
		c0.269-0.064,0.554-0.109,0.781-0.109c0.333,0,0.586,0.036,0.754,0.109c0.169,0.074,0.251,0.205,0.251,0.385l-0.013,0.119
		l-0.121,0.077c-0.474,0.031-0.814,0.074-1.227,0.134c-0.406,0.058-0.76,0.159-1.056,0.297c-0.317,0.143-0.551,0.337-0.714,0.58
		c-0.159,0.246-0.24,0.54-0.24,0.89c0,0.33,0.114,0.599,0.34,0.809c0.227,0.207,0.521,0.31,0.877,0.31l0.523-0.051l0.4-0.141
		l0.344-0.193l0.314-0.214l0.004,0.006l-0.031,0.137l-0.001,0.004l0.001,0.001c-0.036,0.166,0.063,0.303,0.221,0.319l0.001,0.001
		h0.014v0.001l0.64-0.001h0.119l0.013-0.004c0.163-0.022,0.319-0.156,0.356-0.32l0.609-2.688l0.031-0.22l0.014-0.205
		C-46.01,144.228-46.171,143.946-46.485,143.767z M-47.958,146.967l-0.327,0.173l-0.433,0.096c-0.206,0-0.367-0.031-0.473-0.095
		c-0.109-0.06-0.164-0.166-0.163-0.319c0-0.175,0.04-0.31,0.121-0.416l0.354-0.246l0.55-0.127l0.613-0.068l0.059,0.102l-0.169,0.719
		C-47.827,146.79-47.958,146.967-47.958,146.967z"/>
	<path fill="#34679A" d="M-28.249,142.554c0.036-0.177-0.074-0.324-0.254-0.324h-0.746c-0.154,0-0.296,0.118-0.36,0.265l-0.037,0.06
		l-0.046,0.218l-1.017,4.717l-0.051,0.234l0.004,0.004c-0.033,0.159,0.063,0.278,0.21,0.303l0.013,0.019h0.773
		c0.154,0,0.294-0.118,0.359-0.262l0.04-0.063C-29.363,147.725-28.249,142.554-28.249,142.554z M-27.372,143.282l-0.083,0.017
		l-0.081,0.006l-0.19-0.068l-0.064-0.22v-0.442h-0.091v-0.118h0.091v-0.239h0.136v0.239h0.281v0.118h-0.281v0.378l0.001,0.102
		l0.021,0.068l0.044,0.042l0.086,0.013l0.069-0.01l0.051-0.017h0.006v0.129C-27.374,143.282-27.372,143.282-27.372,143.282z
		 M-26.023,143.29h-0.137v-0.474l-0.004-0.102l-0.021-0.079l-0.049-0.047l-0.09-0.017l-0.114,0.031l-0.114,0.074l0.001,0.041
		l0.001,0.045v0.531h-0.136v-0.474l-0.004-0.105l-0.021-0.079l-0.049-0.049l-0.09-0.015l-0.113,0.028l-0.113,0.07v0.621h-0.136
		v-0.831h0.136v0.092l0.127-0.083l0.136-0.031l0.14,0.036l0.086,0.1l0.15-0.102l0.146-0.032l0.199,0.083l0.064,0.23v0.535
		C-26.026,143.29-26.023,143.29-26.023,143.29z"/>
</g>
<g id="Visa">
	<path fill="#FFFFFF" d="M-16,127.794c0,0.943-0.746,1.706-1.667,1.706h-46.664c-0.921,0-1.667-0.764-1.667-1.706V99.206
		c0-0.943,0.746-1.706,1.667-1.706h46.666c0.921,0,1.667,0.764,1.667,1.706v28.588H-16z"/>
	<path fill="#0A67B2" d="M-42.991,118.306h-2.441l1.527-9.606h2.441L-42.991,118.306z M-47.487,108.7l-2.329,6.607l-0.274-1.423
		l-0.821-4.32c0,0-0.099-0.864-1.159-0.864h-3.853l-0.046,0.161c0,0,1.177,0.25,2.556,1.098l2.121,8.346h2.544l3.886-9.606H-47.487z
		 M-28.274,118.306h2.241l-1.956-9.606h-1.963c-0.906,0-1.127,0.717-1.127,0.717l-3.641,8.892h2.546l0.509-1.427h3.104
		L-28.274,118.306z M-30.963,114.908l1.283-3.597l0.723,3.597H-30.963z M-34.531,111.01l0.349-2.063c0,0-1.074-0.417-2.196-0.417
		c-1.213,0-4.091,0.543-4.091,3.181c0,2.481,3.378,2.513,3.378,3.817s-3.031,1.071-4.031,0.247l-0.363,2.157
		c0,0,1.09,0.544,2.758,0.544c1.667,0,4.181-0.883,4.181-3.29c0-2.497-3.408-2.73-3.408-3.817
		C-37.956,110.281-35.577,110.419-34.531,111.01z"/>
	<path fill="#FAA634" d="M-50.091,113.885l-0.821-4.32c0,0-0.099-0.864-1.159-0.864h-3.851l-0.046,0.161c0,0,1.85,0.393,3.626,1.862
		C-50.644,112.133-50.091,113.885-50.091,113.885z"/>
</g>
<g id="MasterCard">
	<path fill="#FFFFFF" d="M-16,95.794c0,0.943-0.746,1.706-1.667,1.706h-46.666c-0.919,0-1.667-0.764-1.667-1.706V67.206
		c0-0.943,0.749-1.706,1.669-1.706h46.667c0.919,0,1.664,0.764,1.664,1.706V95.794z"/>
	<path fill="#FBB230" d="M-34.999,90.685l0.463-0.013l0.456-0.033l0.449-0.058l0.446-0.081l0.431-0.102l0.427-0.124l0.419-0.147
		l0.409-0.164l0.399-0.186l0.387-0.201l0.376-0.224l0.367-0.239l0.351-0.256l0.337-0.273l0.327-0.288l0.313-0.307l0.299-0.319
		l0.283-0.335l0.264-0.348l0.251-0.358l0.233-0.375l0.217-0.384l0.199-0.397l0.181-0.41l0.16-0.417l0.141-0.429l0.121-0.435
		l0.1-0.444l0.079-0.454l0.056-0.458l0.036-0.47l0.01-0.474l-0.01-0.471l-0.036-0.465l-0.056-0.457l-0.079-0.449l-0.1-0.444
		l-0.121-0.433l-0.141-0.426l-0.16-0.416l-0.181-0.406l-0.199-0.397l-0.217-0.383l-0.233-0.375l-0.251-0.358l-0.264-0.343
		l-0.283-0.335l-0.299-0.32l-0.313-0.303l-0.327-0.288l-0.337-0.273l-0.351-0.257l-0.367-0.239l-0.376-0.221l-0.387-0.201
		l-0.399-0.186l-0.409-0.164l-0.419-0.145l-0.427-0.124l-0.431-0.102l-0.446-0.081l-0.449-0.06l-0.456-0.033l-0.463-0.013
		l-0.46,0.013l-0.459,0.033l-0.446,0.06l-0.444,0.081l-0.431,0.102l-0.427,0.124l-0.414,0.145l-0.409,0.164l-0.396,0.186
		l-0.386,0.201l-0.376,0.22l-0.363,0.239l-0.35,0.257l-0.34,0.273l-0.326,0.288l-0.31,0.303l-0.299,0.32l-0.281,0.335L-42.181,76
		l-0.246,0.358l-0.233,0.375l-0.217,0.383l-0.194,0.399l-0.179,0.406l-0.16,0.416l-0.14,0.426l-0.121,0.433l-0.1,0.444l-0.079,0.449
		l-0.056,0.457l-0.033,0.465l-0.013,0.471l0.013,0.474l0.033,0.47l0.056,0.458l0.079,0.454l0.1,0.444l0.121,0.435l0.14,0.429
		l0.16,0.417l0.179,0.41l0.199,0.397l0.217,0.384l0.233,0.375l0.246,0.358l0.267,0.348l0.281,0.335l0.299,0.319l0.31,0.307
		l0.326,0.288l0.34,0.273l0.35,0.256l0.363,0.239l0.376,0.224l0.386,0.201l0.396,0.186l0.409,0.164l0.414,0.147l0.427,0.124
		l0.431,0.102l0.444,0.081l0.446,0.058l0.459,0.033C-35.459,90.674-34.999,90.685-34.999,90.685z"/>
	<path fill="#EB2230" d="M-47,90.685l0.46-0.013l0.456-0.033l0.449-0.058l0.441-0.081l0.433-0.102l0.427-0.124l0.414-0.147
		l0.409-0.164l0.396-0.186l0.386-0.201l0.376-0.224l0.363-0.239l0.351-0.256l0.337-0.273l0.324-0.288l0.31-0.307l0.299-0.319
		l0.281-0.335l0.264-0.348l0.249-0.358l0.236-0.375l0.214-0.384l0.199-0.397l0.179-0.41l0.16-0.417l0.14-0.429l0.121-0.435
		l0.1-0.444l0.079-0.454l0.056-0.458l0.033-0.47l0.013-0.474l-0.013-0.471l-0.033-0.465l-0.056-0.457l-0.079-0.449l-0.1-0.444
		l-0.121-0.433l-0.14-0.426l-0.16-0.416l-0.179-0.406l-0.199-0.397l-0.214-0.383l-0.236-0.375l-0.249-0.358l-0.264-0.343
		l-0.281-0.335l-0.299-0.32l-0.31-0.303l-0.324-0.288l-0.337-0.273l-0.351-0.257l-0.363-0.239l-0.376-0.22l-0.386-0.201
		l-0.396-0.186l-0.409-0.164l-0.414-0.145l-0.427-0.124l-0.433-0.102l-0.441-0.081l-0.449-0.06l-0.456-0.033L-47,72.315
		l-0.463,0.013l-0.456,0.033l-0.449,0.06l-0.446,0.081l-0.433,0.102l-0.426,0.124l-0.419,0.145l-0.409,0.164l-0.399,0.186
		l-0.387,0.201l-0.374,0.22l-0.367,0.239l-0.351,0.257l-0.337,0.273l-0.327,0.288l-0.313,0.303l-0.3,0.32l-0.281,0.335l-0.264,0.343
		l-0.251,0.358l-0.234,0.377l-0.219,0.383l-0.196,0.396l-0.181,0.406l-0.16,0.416l-0.141,0.426l-0.121,0.433l-0.1,0.444
		l-0.079,0.449l-0.059,0.457l-0.033,0.465l-0.011,0.471l0.01,0.474l0.033,0.47l0.059,0.458l0.079,0.454l0.1,0.444l0.121,0.435
		l0.141,0.429l0.16,0.417l0.181,0.41l0.196,0.397l0.219,0.384l0.233,0.375l0.251,0.358l0.264,0.348l0.281,0.335l0.3,0.319
		l0.313,0.307l0.33,0.289l0.337,0.273l0.351,0.256l0.367,0.239l0.374,0.224l0.387,0.201l0.399,0.186l0.409,0.164l0.419,0.147
		l0.426,0.124l0.433,0.102l0.446,0.081l0.449,0.058l0.456,0.033C-47.463,90.674-47,90.685-47,90.685z"/>
	<path fill="#FBB230" d="M-42.049,75.837h4.764v-0.499h-4.354L-42.049,75.837z M-42.763,76.947h5.479v-0.499h-5.191
		C-42.474,76.448-42.763,76.947-42.763,76.947z M-43.296,78.053h6.013v-0.499h-5.8L-43.296,78.053z M-43.663,79.163h6.379v-0.499
		h-6.227L-43.663,79.163z M-43.45,84.523h6.181v-0.499h-6.333L-43.45,84.523z M-42.994,85.632h5.724v-0.499h-5.951L-42.994,85.632z
		 M-42.351,86.738h5.083V86.24h-5.387L-42.351,86.738z M-41.469,87.846h4.2v-0.502h-4.624L-41.469,87.846z M-43.877,80.269h6.594
		v-0.499h-6.5L-43.877,80.269z M-39.859,83.419h2.514v-0.502h-2.423L-39.859,83.419z M-39.659,82.31h2.314v-0.502h-2.224
		L-39.659,82.31z M-44.044,81.81h0.654v0.502h-0.623L-44.044,81.81z"/>
	<path fill="none" d="M-26.721,86.941l-0.04-0.054l-0.049-0.042l-0.056-0.033l-0.067-0.022l-0.071-0.006l-0.069,0.006l-0.067,0.022
		l-0.059,0.033l-0.049,0.042l-0.04,0.054l-0.029,0.06l-0.019,0.064v0.001l-0.006,0.065v0.009l0.006,0.074l0.019,0.068l0.029,0.058
		l0.04,0.051l0.049,0.045l0.059,0.033l0.067,0.022l0.069,0.006l0.071-0.006l0.067-0.022l0.059-0.033l0.049-0.045l0.04-0.051
		l0.029-0.058l0.019-0.068l0.006-0.074v-0.009l-0.006-0.065v-0.001l-0.019-0.064L-26.721,86.941z M-26.837,87.087l-0.006,0.019
		l-0.009,0.015l-0.013,0.013l-0.014,0.013l-0.019,0.006l-0.021,0.006h-0.021l0.091,0.156h-0.06l-0.09-0.156h-0.074v0.156h-0.074
		v-0.356h0.204l0.033,0.006l0.023,0.006l0.021,0.013l0.014,0.015l0.013,0.019l0.006,0.022l0.001,0.028
		C-26.831,87.068-26.837,87.087-26.837,87.087z M-27.001,87.128l0.027-0.004l0.023-0.004l0.017-0.006l0.017-0.006l0.01-0.009
		l0.006-0.01l0.006-0.015v-0.022l-0.001-0.015l-0.006-0.013l-0.009-0.006l-0.01-0.006l-0.014-0.001l-0.014-0.004h-0.124v0.124
		C-27.077,87.128-27.001,87.128-27.001,87.128z M-26.951,83.378l0.017-0.006l0.017-0.006l0.01-0.01l0.006-0.009l0.006-0.015v-0.022
		l-0.001-0.017l-0.006-0.013l-0.009-0.004l-0.01-0.006l-0.014-0.004l-0.014-0.001h-0.124v0.124H-27l0.014-0.001l0.013-0.004
		C-26.974,83.379-26.951,83.378-26.951,83.378z M-27.331,83.475l0.019,0.068l0.029,0.06l0.04,0.051l0.049,0.045l0.059,0.033
		l0.067,0.022l0.069,0.006l0.071-0.006l0.067-0.022l0.059-0.033l0.049-0.045l0.04-0.051l0.029-0.06l0.019-0.068l0.006-0.074
		l-0.001-0.019l-0.001-0.055l-0.019-0.068l-0.029-0.063l-0.041-0.054l-0.051-0.042l-0.059-0.031l-0.067-0.022l-0.071-0.006
		l-0.069,0.006l-0.067,0.022l-0.056,0.031l-0.049,0.042l-0.04,0.054l-0.031,0.063l-0.019,0.068l-0.006,0.055v0.019L-27.331,83.475z
		 M-27.151,83.384v-0.188h0.167l0.037,0.001l0.031,0.009l0.023,0.009l0.021,0.013l0.014,0.019l0.013,0.019l0.006,0.022l0.001,0.022
		l-0.001,0.028l-0.006,0.022l-0.006,0.019l-0.006,0.006l-0.006,0.009l-0.014,0.013l-0.019,0.006l-0.021,0.006h-0.021l0.091,0.156
		h-0.06l-0.09-0.156h-0.074v0.156h-0.074v-0.191C-27.149,83.384-27.151,83.384-27.151,83.384z M-42.544,81.762h1.106l0.006-0.077
		l-0.004-0.074l-0.006-0.068l-0.01-0.063l-0.023-0.06l-0.021-0.054l-0.029-0.045l-0.031-0.045l-0.036-0.036l-0.04-0.032
		l-0.046-0.028l-0.046-0.023l-0.049-0.019l-0.049-0.013l-0.051-0.009l-0.054-0.006l-0.059,0.001l-0.054,0.01l-0.05,0.013
		l-0.051,0.017l-0.051,0.026l-0.044,0.028l-0.049,0.033l-0.037,0.036l-0.04,0.045l-0.037,0.045l-0.029,0.052l-0.029,0.051
		l-0.027,0.058l-0.021,0.063l-0.019,0.063l-0.01,0.064l-0.009,0.042h0.001C-42.541,81.757-42.544,81.762-42.544,81.762z"/>
	<path fill="#FFFFFF" d="M-46.473,81.387l0.014-0.033l0.019-0.033l0.027-0.028l0.031-0.032l0.037-0.023l0.044-0.022l0.044-0.019
		l0.051-0.019l0.059-0.009l0.06-0.009l0.087-0.006l0.079-0.006l0.069-0.004h0.064l0.056,0.004l0.054,0.001l0.05,0.004l0.041,0.006
		l0.044,0.006l0.037,0.004l0.04,0.006l0.037,0.006l0.037,0.006l0.04,0.006l0.044,0.006l0.041,0.001l0.154-0.7l-0.024-0.001
		l-0.027-0.006l-0.027-0.004l-0.029-0.006l-0.037-0.004l-0.037-0.006l-0.044-0.01l-0.051-0.006l-0.054-0.006l-0.06-0.004
		l-0.07-0.007l-0.074-0.006l-0.086-0.004l-0.094-0.001l-0.104-0.004h-0.11l-0.179,0.004l-0.163,0.013l-0.149,0.022l-0.137,0.028
		l-0.121,0.033l-0.109,0.047l-0.099,0.049l-0.087,0.06l-0.076,0.065l-0.064,0.079l-0.054,0.081l-0.049,0.092l-0.036,0.1
		l-0.031,0.105l-0.021,0.115l-0.017,0.119l0.003,0.198l0.027,0.169l0.054,0.138l0.077,0.118l0.096,0.096l0.106,0.081l0.114,0.065
		l0.121,0.055l0.119,0.049l0.117,0.042l0.106,0.047l0.091,0.047l0.076,0.051l0.051,0.063l0.027,0.079l-0.006,0.09l-0.013,0.047
		l-0.014,0.049l-0.024,0.049l-0.029,0.045l-0.044,0.042l-0.054,0.033l-0.069,0.026l-0.087,0.017l-0.09,0.004h-0.086l-0.09-0.004
		l-0.087-0.001l-0.083-0.01l-0.083-0.009l-0.079-0.013l-0.077-0.013l-0.071-0.01l-0.067-0.017l-0.063-0.01l-0.054-0.013l-0.05-0.013
		l-0.044-0.013l-0.033-0.009l-0.027-0.006l-0.136,0.685l0.051,0.019l0.049,0.017l0.049,0.019l0.051,0.013l0.05,0.015l0.059,0.009
		l0.059,0.013l0.063,0.006l0.071,0.009l0.071,0.006l0.083,0.006l0.09,0.004l0.1,0.001h0.106l0.121,0.004h0.131l0.094-0.004
		l0.1-0.006l0.099-0.009l0.104-0.019l0.106-0.023l0.101-0.032l0.1-0.041l0.099-0.045l0.091-0.06l0.086-0.068l0.079-0.077
		l0.069-0.092l0.06-0.1l0.05-0.119L-45.329,83l0.021-0.145l0.013-0.196l-0.013-0.166l-0.029-0.141l-0.05-0.118l-0.063-0.096
		l-0.076-0.077l-0.086-0.065l-0.091-0.054l-0.096-0.038l-0.1-0.038l-0.1-0.033l-0.096-0.031l-0.091-0.033l-0.086-0.041l-0.073-0.047
		l-0.06-0.058l-0.029-0.041l-0.024-0.041l-0.013-0.041l-0.009-0.041v-0.038C-46.479,81.423-46.473,81.387-46.473,81.387z
		 M-43.624,83.099l-0.027,0.009l-0.04,0.013l-0.049,0.013l-0.056,0.009l-0.06,0.006l-0.067,0.004l-0.073-0.009l-0.064-0.01
		l-0.06-0.019l-0.056-0.022l-0.037-0.033l-0.031-0.041l-0.014-0.054l0.001-0.063l0.29-1.728l0.533,0.015l0.11-0.7h-0.506
		l0.124-0.751h-0.84l-0.577,3.382l-0.01,0.077l-0.009,0.073v0.068l0.001,0.064l0.01,0.06l0.014,0.051l0.021,0.054l0.031,0.042
		l0.04,0.041l0.05,0.038l0.059,0.031l0.069,0.028l0.083,0.023l0.096,0.017l0.106,0.013l0.121,0.009h0.229l0.051-0.006l0.049-0.004
		l0.046-0.006l0.04-0.006l0.036-0.006l0.037-0.006l0.029-0.006l0.031-0.009l0.027-0.01l0.027-0.009l0.024-0.009l0.021-0.01
		l0.021-0.013l0.021-0.01l0.021-0.013l0.023-0.015l0.104-0.577l-0.006,0.004C-43.609,83.091-43.626,83.099-43.624,83.099z
		 M-35.606,80.591l0.044,0.022l0.044,0.022l0.04,0.019l0.037,0.022l0.151-0.858l-0.019-0.006l-0.027-0.013l-0.036-0.013
		l-0.041-0.015l-0.049-0.019l-0.059-0.019l-0.06-0.017l-0.071-0.019l-0.073-0.019l-0.077-0.015l-0.081-0.019l-0.086-0.01
		l-0.091-0.013l-0.09-0.01l-0.094-0.004l-0.099-0.004l-0.114,0.004l-0.109,0.004l-0.11,0.013l-0.101,0.017l-0.101,0.017
		l-0.099,0.022l-0.094,0.026l-0.094,0.031l-0.087,0.036l-0.086,0.036l-0.081,0.041l-0.081,0.047l-0.074,0.049L-37.647,80
		l-0.071,0.058l-0.069,0.063l-0.064,0.065l-0.06,0.068l-0.06,0.073l-0.054,0.079l-0.054,0.081l-0.051,0.086l-0.044,0.09
		l-0.046,0.096l-0.044,0.096l-0.04,0.102l-0.04,0.109l-0.031,0.109l-0.031,0.115l-0.031,0.119l-0.024,0.127l-0.024,0.127
		l-0.033,0.257l-0.006,0.241l0.013,0.211l0.036,0.207l0.054,0.191l0.073,0.173l0.086,0.156l0.1,0.138l0.113,0.124l0.121,0.109
		l0.127,0.095l0.133,0.073l0.14,0.064l0.137,0.045l0.14,0.032l0.14,0.015l0.169,0.009l0.154,0.004l0.137-0.004l0.117-0.004
		l0.106-0.013l0.091-0.013l0.079-0.015l0.069-0.023l0.054-0.017l0.049-0.022l0.044-0.023l0.033-0.023l0.027-0.019l0.023-0.022
		l0.019-0.019l0.019-0.015l0.136-0.828l-0.06,0.055l-0.064,0.051l-0.069,0.038l-0.074,0.036l-0.077,0.023l-0.074,0.022l-0.079,0.015
		l-0.077,0.01l-0.077,0.006h-0.146l-0.064-0.006l-0.06-0.006l-0.054-0.006l-0.046-0.009l-0.04-0.01l-0.114-0.028l-0.104-0.041
		l-0.094-0.045l-0.081-0.058l-0.073-0.064l-0.064-0.073l-0.054-0.079l-0.044-0.083l-0.033-0.095l-0.029-0.092l-0.021-0.1
		l-0.009-0.105l-0.001-0.106l0.006-0.109l0.01-0.109l0.019-0.111l0.049-0.198l0.059-0.173l0.063-0.156l0.069-0.137l0.071-0.113
		l0.074-0.1l0.079-0.081L-37,80.642l0.086-0.055l0.086-0.042l0.086-0.033l0.083-0.026l0.086-0.015l0.081-0.009l0.079-0.006h0.223
		l0.071,0.006l0.069,0.006l0.064,0.009l0.063,0.013l0.059,0.013l0.056,0.015l0.054,0.019l0.051,0.017l0.051,0.019
		C-35.651,80.572-35.606,80.591-35.606,80.591z M-28.129,79.755l-0.213,1.217l-0.019-0.036l-0.024-0.038l-0.027-0.041l-0.029-0.041
		l-0.036-0.041l-0.04-0.041l-0.046-0.041l-0.049-0.036l-0.054-0.033l-0.06-0.033l-0.06-0.028l-0.069-0.026l-0.073-0.022
		l-0.079-0.015l-0.086-0.01l-0.087-0.001l-0.124,0.006l-0.121,0.019l-0.121,0.026l-0.121,0.042l-0.114,0.054l-0.114,0.068
		l-0.113,0.077l-0.106,0.09l-0.1,0.102l-0.094,0.111l-0.091,0.124l-0.079,0.143l-0.077,0.15l-0.064,0.159l-0.054,0.173l-0.046,0.183
		l-0.027,0.159l-0.014,0.159l-0.001,0.16l0.009,0.159l0.024,0.159l0.033,0.151l0.049,0.145l0.06,0.141l0.073,0.129l0.086,0.115
		l0.099,0.105l0.109,0.09l0.121,0.07l0.133,0.054l0.146,0.033l0.159,0.013h0.06l0.06-0.001l0.059-0.006l0.06-0.01l0.06-0.009
		l0.059-0.015l0.059-0.015l0.056-0.022l0.059-0.028l0.054-0.028l0.054-0.033l0.054-0.041l0.054-0.045l0.05-0.049l0.051-0.055
		l0.049-0.063v0.031l-0.06,0.343h0.837l0.683-4.054h-0.823C-28.129,79.753-28.129,79.755-28.129,79.755z M-28.549,82.008
		l-0.009,0.09l-0.014,0.086l-0.017,0.086l-0.021,0.083l-0.024,0.081l-0.029,0.079l-0.033,0.074l-0.04,0.07l-0.041,0.068
		l-0.046,0.063l-0.051,0.054l-0.059,0.051l-0.06,0.047l-0.063,0.036l-0.069,0.036l-0.073,0.022l-0.079,0.019l-0.086,0.006
		l-0.121-0.026l-0.1-0.068l-0.079-0.102l-0.06-0.128l-0.04-0.145l-0.021-0.151l-0.006-0.15l0.017-0.137l0.019-0.09l0.024-0.09
		l0.023-0.086l0.029-0.083l0.033-0.081l0.04-0.074l0.041-0.073l0.046-0.068l0.051-0.06l0.051-0.054l0.06-0.049l0.06-0.041
		l0.069-0.031l0.069-0.026l0.074-0.013L-29,81.225l0.063,0.006l0.059,0.015l0.054,0.026l0.051,0.036l0.046,0.042l0.04,0.049
		l0.036,0.06l0.029,0.063l0.024,0.07l0.021,0.074l0.013,0.077l0.009,0.081l0.001,0.086v0.095
		C-28.55,82.008-28.549,82.008-28.549,82.008z"/>
	<path fill="#FBB230" d="M-28.56,81.756l-0.011-0.077l-0.023-0.074l-0.023-0.073l-0.031-0.063l-0.036-0.058l-0.04-0.051
		l-0.046-0.042l-0.051-0.036l-0.054-0.026l-0.056-0.015l-0.064-0.006l-0.081,0.006l-0.074,0.013l-0.071,0.023l-0.069,0.032
		l-0.06,0.041l-0.06,0.049l-0.051,0.054l-0.051,0.058l-0.044,0.068l-0.044,0.073l-0.04,0.073l-0.033,0.081l-0.029,0.083
		l-0.024,0.086l-0.023,0.09l-0.019,0.09l-0.017,0.137l0.009,0.15l0.021,0.151l0.04,0.145l0.06,0.128l0.077,0.1l0.1,0.068
		l0.121,0.026l0.086-0.006l0.079-0.019l0.073-0.022l0.069-0.033l0.064-0.036l0.06-0.047l0.056-0.054l0.051-0.055l0.046-0.063
		l0.041-0.068l0.04-0.07l0.033-0.074l0.029-0.079l0.024-0.079l0.021-0.083l0.017-0.086l0.014-0.086l0.009-0.09v-0.092l-0.001-0.086
		C-28.55,81.837-28.56,81.756-28.56,81.756z"/>
	<path fill="#FFFFFF" d="M-47.621,81.359v-0.118l-0.017-0.105l-0.031-0.1l-0.044-0.095l-0.06-0.083l-0.069-0.074l-0.076-0.068
		l-0.086-0.058l-0.09-0.054l-0.091-0.042l-0.094-0.038l-0.096-0.028l-0.094-0.022l-0.091-0.015l-0.083-0.006l-0.106-0.004
		l-0.106-0.001h-0.291l-0.09,0.001l-0.087,0.004l-0.086,0.006l-0.081,0.006l-0.079,0.013l-0.077,0.01l-0.074,0.015l-0.071,0.017
		l-0.073,0.022l-0.067,0.026L-50,80.597l-0.214,0.746l0.033-0.019l0.041-0.022l0.054-0.019l0.067-0.019l0.073-0.015l0.079-0.015
		l0.087-0.015l0.091-0.013l0.094-0.013l0.096-0.009l0.099-0.009l0.1-0.006l0.096-0.001h0.094l0.091,0.001l0.086,0.001l0.077,0.006
		l0.073,0.019l0.063,0.028l0.059,0.038l0.049,0.047l0.036,0.055l0.027,0.063l0.013,0.068l-0.006,0.06l-0.014,0.065l-0.017,0.055
		l-0.006,0.022h-0.01l-0.029-0.004l-0.041-0.001l-0.056-0.004h-0.07l-0.064-0.001l-0.073-0.001h-0.104l-0.041,0.001l-0.046,0.001
		l-0.049,0.004l-0.049,0.006l-0.054,0.001l-0.051,0.006l-0.051,0.006l-0.051,0.006l-0.046,0.006l-0.041,0.001l-0.036,0.006
		l-0.033,0.004l-0.021,0.001l-0.017,0.012h-0.004l-0.106,0.017l-0.104,0.028l-0.1,0.036l-0.096,0.042l-0.091,0.049l-0.087,0.058
		l-0.083,0.065l-0.077,0.07l-0.073,0.079l-0.063,0.086l-0.054,0.09l-0.05,0.1l-0.037,0.105l-0.031,0.109l-0.019,0.115l-0.009,0.119
		v0.068l0.006,0.068l0.009,0.073l0.013,0.07l0.019,0.068l0.024,0.068l0.031,0.068l0.036,0.065l0.041,0.063l0.049,0.06l0.06,0.055
		l0.067,0.049l0.074,0.045l0.086,0.041l0.096,0.032l0.106,0.028l0.081,0.013l0.086,0.009l0.087-0.001l0.087-0.006l0.09-0.013
		l0.087-0.019l0.087-0.022l0.087-0.028l0.081-0.032l0.079-0.036l0.076-0.036l0.073-0.042l0.064-0.042l0.056-0.047l0.049-0.049
		l0.041-0.049l-0.009,0.042l-0.01,0.087l-0.017,0.115l-0.021,0.128h0.763l0.121-0.687l0.306-1.636
		C-47.637,81.485-47.621,81.359-47.621,81.359z M-48.687,82.392l-0.019,0.097l-0.021,0.102l-0.024,0.09l-0.009,0.033l-0.014,0.033
		l-0.019,0.038l-0.021,0.036l-0.024,0.038l-0.031,0.032l-0.036,0.038l-0.04,0.031l-0.044,0.033l-0.051,0.031l-0.059,0.026
		l-0.06,0.022l-0.069,0.019l-0.079,0.013l-0.081,0.01l-0.091,0.001l-0.049-0.001l-0.049-0.01l-0.051-0.019l-0.046-0.031l-0.04-0.045
		l-0.029-0.063l-0.014-0.083l0.001-0.106l0.01-0.049l0.017-0.049l0.021-0.045l0.031-0.041l0.033-0.036l0.036-0.036l0.04-0.031
		l0.041-0.031l0.04-0.026l0.041-0.022l0.04-0.022l0.04-0.022l0.033-0.015l0.033-0.013l0.024-0.01l0.021-0.006l0.033-0.009
		l0.036-0.009l0.041-0.009l0.046-0.006l0.049-0.006l0.05-0.006l0.051-0.006l0.049-0.004h0.091l0.04,0.004l0.033,0.006l0.029,0.006
		l0.019,0.009l0.013,0.015l0.001,0.017C-48.673,82.31-48.687,82.392-48.687,82.392z"/>
	<path fill="#EB2230" d="M-48.687,82.278l-0.019-0.009l-0.029-0.006l-0.033-0.006l-0.04-0.001H-48.9l-0.049,0.001L-49,82.264
		l-0.049,0.006l-0.049,0.006l-0.046,0.006l-0.041,0.009l-0.037,0.01l-0.033,0.009l-0.021,0.006l-0.024,0.009l-0.033,0.013
		l-0.033,0.015l-0.039,0.022l-0.04,0.022l-0.044,0.022l-0.037,0.026l-0.044,0.031l-0.04,0.032l-0.036,0.036l-0.033,0.038
		l-0.031,0.041l-0.021,0.042l-0.017,0.049l-0.01,0.049l-0.001,0.106l0.014,0.083l0.029,0.063l0.04,0.047l0.046,0.031l0.051,0.019
		l0.049,0.01l0.049,0.001l0.091-0.001l0.081-0.01l0.079-0.013l0.069-0.017l0.06-0.023l0.059-0.026l0.051-0.031l0.044-0.033
		l0.04-0.031l0.036-0.038l0.031-0.032l0.024-0.038l0.021-0.036l0.019-0.038l0.014-0.033l0.009-0.033l0.024-0.09l0.021-0.102
		l0.019-0.097l0.014-0.081l-0.001-0.015C-48.674,82.296-48.687,82.278-48.687,82.278z"/>
	<path fill="#FFFFFF" d="M-51.89,79.739l-0.99,2.415l-0.136-2.415h-1.43l-0.687,4.068h0.823l0.501-3.039h0.046l0.006,0.147
		l0.021,0.353l0.027,0.486l0.031,0.554l0.029,0.553l0.027,0.48l0.023,0.337l0.006,0.127h0.927l1.233-3.039h0.031l-0.519,3.039h0.823
		l0.701-4.068C-50.394,79.739-51.89,79.739-51.89,79.739z M-32.61,81.243l-0.021-0.102l-0.036-0.096l-0.041-0.092l-0.06-0.081
		l-0.067-0.073l-0.074-0.068l-0.081-0.06l-0.091-0.045l-0.09-0.042l-0.094-0.036l-0.094-0.028l-0.094-0.022l-0.087-0.015
		l-0.086-0.006h-0.1l-0.104-0.006h-0.373l-0.087,0.001l-0.083,0.006l-0.083,0.006l-0.076,0.013l-0.074,0.013l-0.077,0.015
		l-0.073,0.015l-0.067,0.022l-0.069,0.026l-0.059,0.023l-0.196,0.691l0.04-0.019l0.056-0.019l0.067-0.017l0.073-0.015l0.079-0.015
		l0.087-0.015l0.094-0.013l0.094-0.013l0.096-0.009l0.099-0.009l0.1-0.006l0.099-0.006h0.094l0.09,0.006l0.086,0.001v-0.001
		l0.076,0.009l0.069,0.017l0.067,0.028l0.059,0.042l0.049,0.051l0.041,0.058l0.023,0.068l0.013,0.07h0.001l-0.009,0.058
		l-0.009,0.068l-0.009,0.055l-0.006,0.022l-0.001,0.019l-0.014-0.001h-0.013l-0.027-0.004l-0.049,0.001h-0.124l-0.069-0.006h-0.221
		l-0.041,0.004l-0.05,0.001l-0.051,0.006l-0.051,0.001l-0.054,0.006l-0.05,0.006l-0.049,0.006l-0.046,0.006l-0.041,0.004
		l-0.04,0.004l-0.029,0.001l-0.019,0.001l-0.019,0.004h-0.006l-0.1,0.019l-0.096,0.028l-0.1,0.033l-0.09,0.042l-0.096,0.051
		l-0.083,0.055l-0.083,0.064l-0.079,0.068l-0.067,0.077l-0.063,0.087l-0.054,0.087l-0.046,0.096l-0.04,0.105l-0.027,0.106
		l-0.019,0.111l-0.001,0.119l-0.001,0.068l0.006,0.068l0.009,0.068l0.013,0.073l0.014,0.068l0.024,0.064l0.027,0.065l0.033,0.064
		l0.041,0.06l0.049,0.06l0.054,0.054l0.063,0.049l0.079,0.045l0.081,0.041l0.094,0.032l0.109,0.028l0.079,0.013l0.081,0.009
		l0.083-0.001l0.087-0.006l0.081-0.013l0.086-0.015l0.086-0.026l0.079-0.026l0.074-0.031l0.073-0.036l0.073-0.038l0.064-0.036
		l0.056-0.042l0.054-0.042l0.041-0.042l0.04-0.047l0.001,0.001v-0.001l0.027,0.023l0.001-0.001v0.022l0.001,0.083l-0.006,0.111
		l-0.004,0.105h0.724l0.121-0.671l0.319-1.636l0.014-0.122C-32.61,81.355-32.61,81.243-32.61,81.243z M-33.664,82.387l-0.013,0.087
		l-0.014,0.09l-0.013,0.087l-0.009,0.033l-0.013,0.036l-0.014,0.036l-0.021,0.036l-0.027,0.041l-0.033,0.038l-0.036,0.041
		l-0.044,0.033l-0.049,0.036l-0.054,0.032l-0.059,0.028l-0.067,0.026l-0.071,0.022l-0.079,0.015l-0.083,0.009l-0.091,0.001
		l-0.051-0.001l-0.051-0.009l-0.051-0.019l-0.041-0.031l-0.037-0.047l-0.024-0.063l-0.014-0.083l0.001-0.105l0.009-0.054
		l0.019-0.049l0.021-0.047l0.029-0.045l0.033-0.041l0.033-0.033l0.04-0.032l0.04-0.028l0.04-0.028l0.041-0.022l0.036-0.019
		l0.04-0.019l0.033-0.013l0.029-0.009l0.024-0.009l0.021-0.004l0.029-0.006l0.04-0.009l0.04-0.006l0.044-0.009l0.046-0.006
		l0.049-0.006l0.049-0.006l0.049-0.006l0.046-0.001h0.046l0.04,0.001l0.033,0.004l0.029,0.009l0.021,0.009l0.013,0.015l0.006,0.019
		C-33.663,82.31-33.664,82.387-33.664,82.387z M-32.944,83.117l-0.121,0.668h0.014v0.045l0.014-0.004l0.004-0.015l0.123-0.689
		L-32.944,83.117z M-33.05,83.785h-0.74l-0.001,0.022h-0.036l-0.004,0.023h0.781C-33.05,83.83-33.05,83.785-33.05,83.785z
		 M-33.791,83.805l0.001-0.022l0.004-0.105l0.006-0.111l-0.001-0.086v-0.022l-0.037,0.042v0.001l-0.004,0.063v0.111l-0.004,0.127
		C-33.827,83.805-33.791,83.805-33.791,83.805z M-33.806,83.437l0.027,0.023l-0.027-0.026V83.437z M-33.781,83.462l0.001-0.001
		l-0.027-0.023l-0.004-0.001l-0.037,0.047l-0.044,0.042l-0.054,0.045l-0.059,0.042l-0.063,0.036l-0.073,0.038l-0.073,0.036
		l-0.074,0.032l-0.079,0.023l-0.083,0.026l-0.086,0.015l-0.081,0.013l-0.09,0.006l-0.083,0.001l-0.081-0.009l-0.079-0.013
		l-0.006,0.038l0.086,0.013l0.081,0.009l0.083-0.001l0.09-0.006l0.087-0.013l0.083-0.017l0.086-0.023l0.086-0.026l0.074-0.031
		l0.079-0.038l0.073-0.036l0.063-0.042l0.064-0.045l0.054-0.042l0.049-0.049v-0.001C-33.819,83.506-33.781,83.462-33.781,83.462z
		 M-34.95,83.819l-0.109-0.028l-0.094-0.031l-0.083-0.041l-0.079-0.045l-0.063-0.049l-0.054-0.054l-0.049-0.058l-0.044-0.06
		l-0.033-0.064l-0.027-0.065l-0.023-0.064l-0.017-0.068l-0.01-0.073l-0.01-0.068l-0.006-0.068l0.004-0.068h-0.041l0.001,0.068
		l0.006,0.068l0.009,0.074l0.013,0.073l0.014,0.068l0.024,0.07l0.027,0.07l0.04,0.065l0.041,0.065l0.05,0.058l0.059,0.06
		l0.071,0.049l0.079,0.049l0.087,0.041l0.1,0.032l0.109,0.028C-34.956,83.858-34.95,83.819-34.95,83.819z M-35.646,82.917
		l0.001-0.119l0.019-0.111l0.027-0.106l0.04-0.105l0.046-0.096l0.054-0.087l0.063-0.087l0.067-0.077l0.079-0.068l0.081-0.064
		l0.086-0.055l0.094-0.051l0.09-0.042l0.1-0.033l0.099-0.028l0.1-0.019v-0.036l-0.106,0.019l-0.101,0.028l-0.1,0.033l-0.099,0.042
		l-0.094,0.049l-0.09,0.063l-0.083,0.065l-0.077,0.074l-0.073,0.077l-0.064,0.087l-0.06,0.092l-0.046,0.102l-0.037,0.105
		l-0.027,0.113l-0.019,0.118l-0.009,0.119C-35.687,82.917-35.646,82.917-35.646,82.917z M-34.601,81.765h0.006l0.019-0.001
		l0.017-0.004l0.031-0.001l0.04-0.006l0.041-0.001l0.046-0.006l0.049-0.006l0.051-0.006l0.054-0.006l0.051-0.001l0.05-0.006
		l0.049-0.004l0.044-0.001h0.074v-0.045h-0.033l-0.041,0.006l-0.044,0.004l-0.049,0.001l-0.05,0.006l-0.051,0.004l-0.054,0.004
		l-0.051,0.006l-0.049,0.006l-0.046,0.006l-0.041,0.004l-0.04,0.006l-0.031,0.001l-0.023,0.001l-0.013,0.004h-0.006
		C-34.601,81.728-34.601,81.765-34.601,81.765z M-33.979,81.707h0.146l0.069,0.006h0.124l0.049,0.001l0.027,0.004h0.013l0.014,0.001
		l0.004-0.019l-0.039-0.004l0.004-0.015l-0.024-0.001l-0.049-0.004l-0.059-0.006h-0.136l-0.073-0.006h-0.073
		C-33.979,81.661-33.979,81.707-33.979,81.707z M-33.533,81.702l0.004-0.022l0.01-0.055l0.009-0.068l0.009-0.06h-0.041l-0.001,0.06
		l-0.01,0.063l-0.009,0.055l-0.001,0.006l-0.004,0.015C-33.571,81.696-33.533,81.702-33.533,81.702z M-33.504,81.499l-0.013-0.07
		l-0.023-0.068l-0.044-0.058l-0.049-0.051l-0.056-0.042l-0.067-0.028l-0.071-0.019l-0.074-0.009v0.042l0.069,0.001l0.064,0.019
		l0.06,0.028l0.05,0.038l0.044,0.042l0.036,0.054l0.024,0.055l0.013,0.064C-33.54,81.499-33.504,81.499-33.504,81.499z
		 M-33.9,81.154l-0.086-0.001l-0.09-0.006h-0.094l-0.099,0.006l-0.1,0.006l-0.096,0.009l-0.099,0.009l-0.094,0.013l-0.094,0.013
		l-0.087,0.015l-0.079,0.017l-0.073,0.015l-0.067,0.017l-0.056,0.019l-0.04,0.019l-0.013,0.042l-0.036-0.006l0.029,0.019
		l0.031-0.015l0.04-0.022l0.051-0.019l0.064-0.019l0.073-0.015l0.079-0.015l0.087-0.017l0.087-0.01l0.094-0.013l0.099-0.01
		l0.096-0.009l0.1-0.006h0.281l0.086,0.004C-33.9,81.193-33.9,81.154-33.9,81.154z M-35.15,81.304l0.196-0.691l-0.009,0.004
		l-0.013-0.038l-0.009,0.001l-0.004,0.013l-0.21,0.746l0.036,0.006C-35.163,81.346-35.15,81.304-35.15,81.304z M-34.963,80.617
		l0.009-0.004l0.059-0.026l0.069-0.023l0.067-0.023l0.073-0.015l0.077-0.015l0.074-0.013l0.076-0.013l0.081-0.004l0.086-0.006
		l0.087-0.004h0.373l0.101,0.004h0.104v-0.038l-0.104-0.006l-0.101-0.001h-0.286l-0.087,0.006l-0.087,0.001l-0.086,0.006
		l-0.081,0.006l-0.081,0.013l-0.074,0.013l-0.077,0.015l-0.073,0.015l-0.071,0.022l-0.071,0.026l-0.067,0.028
		C-34.974,80.578-34.963,80.617-34.963,80.617z M-33.627,80.475l0.083,0.006l0.087,0.015l0.094,0.022l0.094,0.028l0.096,0.036
		l0.09,0.045l0.091,0.049l0.081,0.06l0.074,0.065l0.067,0.073l0.06,0.081l0.041,0.09l0.033,0.096l0.023,0.102v0.118l-0.017,0.122
		l0.037,0.006l0.014-0.128v-0.118l-0.021-0.109l-0.033-0.102l-0.049-0.096l-0.063-0.087l-0.071-0.077l-0.077-0.068l-0.087-0.06
		l-0.09-0.055l-0.099-0.042l-0.094-0.038l-0.1-0.026l-0.094-0.023l-0.094-0.015l-0.083-0.006
		C-33.627,80.435-33.627,80.475-33.627,80.475z M-32.944,83.113l0.319-1.636l0.037,0.009l-0.319,1.636
		C-32.906,83.122-32.944,83.113-32.944,83.113z"/>
	<path fill="#FBB230" d="M-33.674,82.277l-0.023-0.009l-0.029-0.01l-0.033-0.001l-0.04-0.004h-0.046l-0.046,0.004l-0.049,0.006
		l-0.049,0.006l-0.049,0.006l-0.049,0.004l-0.044,0.01l-0.04,0.006l-0.04,0.009l-0.029,0.006l-0.021,0.001l-0.024,0.01l-0.031,0.009
		l-0.033,0.013l-0.04,0.017l-0.036,0.019l-0.041,0.023l-0.04,0.026l-0.04,0.031l-0.04,0.033l-0.033,0.032l-0.033,0.041l-0.027,0.045
		l-0.021,0.045l-0.016,0.052l-0.009,0.051l-0.004,0.106l0.014,0.083l0.024,0.063l0.037,0.047l0.044,0.031l0.051,0.019l0.051,0.01
		l0.051,0.001l0.09-0.001l0.086-0.01l0.079-0.015l0.069-0.022l0.067-0.026l0.056-0.028l0.056-0.032l0.049-0.036l0.041-0.033
		l0.036-0.041l0.036-0.036l0.027-0.041l0.021-0.038l0.014-0.036l0.013-0.036l0.009-0.033l0.013-0.087l0.017-0.09l0.01-0.087
		l0.006-0.077l-0.006-0.019L-33.674,82.277z"/>
	<path fill="#FFFFFF" d="M-27.396,83.228l-0.023,0.083l-0.006,0.073h0.087l0.006-0.058l0.019-0.068l0.029-0.063l0.04-0.054
		l0.05-0.042l0.056-0.031l0.067-0.022l0.069-0.006l0.071,0.006l0.067,0.022l0.056,0.031l0.05,0.042l0.037,0.054l0.031,0.063
		l0.019,0.068l0.001,0.058h0.091l-0.006-0.073l-0.024-0.083l-0.041-0.074l-0.051-0.065l-0.063-0.051L-26.837,83l-0.079-0.023
		l-0.086-0.01l-0.083,0.01L-27.163,83l-0.073,0.038l-0.064,0.051l-0.05,0.065L-27.396,83.228z M-27.077,83.261h0.124l0.014,0.001
		l0.014,0.004l0.01,0.006l0.009,0.004l0.006,0.013l0.001,0.017v0.022l-0.006,0.015l-0.006,0.009l-0.01,0.01l-0.017,0.006
		l-0.017,0.006l-0.023,0.001l-0.013,0.004h0.129l0.006-0.006l0.009-0.019l0.006-0.022l0.001-0.028l-0.001-0.023l-0.006-0.022
		l-0.013-0.017l-0.014-0.019l-0.021-0.013l-0.024-0.009l-0.033-0.006l-0.037-0.004h-0.164v0.188h0.074
		C-27.077,83.384-27.077,83.261-27.077,83.261z M-26.664,83.401l-0.006,0.074l-0.019,0.068l-0.031,0.06l-0.037,0.051l-0.05,0.045
		l-0.056,0.032l-0.067,0.023l-0.071,0.006l-0.07-0.006l-0.067-0.023l-0.056-0.032l-0.05-0.045l-0.04-0.051l-0.029-0.06l-0.019-0.068
		l-0.006-0.074v-0.017h-0.087l-0.001,0.017l0.009,0.09l0.023,0.083l0.044,0.074l0.05,0.063l0.064,0.054l0.073,0.041l0.079,0.026
		l0.083,0.009l0.086-0.009l0.079-0.026l0.073-0.041l0.063-0.054l0.051-0.063l0.041-0.074l0.024-0.083l0.009-0.09l-0.001-0.017
		h-0.091L-26.664,83.401z M-27.077,83.419h0.074l0.091,0.154h0.06l-0.091-0.154h0.023l0.021-0.009l0.017-0.004l0.017-0.013
		l0.006-0.009h-0.129l-0.014,0.001h-0.074v-0.001h-0.074v0.188h0.074C-27.077,83.571-27.077,83.419-27.077,83.419z M-30.641,81.25
		h0.074l0.137-0.796l-0.086,0.006l-0.081,0.009l-0.074,0.015l-0.073,0.022l-0.067,0.026l-0.064,0.032l-0.06,0.033l-0.059,0.036
		l-0.051,0.045l-0.051,0.042l-0.049,0.049l-0.05,0.049l-0.046,0.054l-0.044,0.058l-0.046,0.058l-0.041,0.063l0.09-0.561h-0.85
		l-0.564,3.318h0.851l0.306-1.761l0.013-0.068l0.017-0.068l0.019-0.068l0.024-0.068l0.029-0.068l0.037-0.064l0.04-0.063l0.049-0.06
		l0.054-0.051l0.06-0.051l0.069-0.047l0.079-0.036l0.087-0.031l0.099-0.026l0.104-0.019C-30.76,81.257-30.641,81.25-30.641,81.25z
		 M-38.487,80.813l0.024-0.058l0.029-0.06l0.031-0.058l0.029-0.054l0.027-0.047l0.021-0.036l0.017-0.022l0.004-0.01h-0.001
		l-0.013-0.001l-0.014-0.004l-0.021-0.001h-0.021l-0.026-0.004l-0.021-0.001h-0.021l-0.094,0.006l-0.086,0.009l-0.079,0.015
		l-0.071,0.019l-0.071,0.026l-0.063,0.031l-0.059,0.032l-0.05,0.035l-0.051,0.041l-0.049,0.047l-0.046,0.047l-0.046,0.051
		l-0.046,0.054l-0.041,0.06l-0.044,0.063l-0.046,0.063l0.109-0.561h-0.869l-0.567,3.318h0.869l0.291-1.761l0.013-0.068l0.014-0.064
		l0.014-0.065l0.021-0.063l0.024-0.063l0.029-0.06l0.037-0.055l0.041-0.051l0.049-0.049l0.054-0.045l0.069-0.038l0.071-0.032
		l0.086-0.031l0.094-0.023l0.101-0.015l0.119-0.01h0.009l0.013,0.004l0.014,0.001h0.017l0.014,0.004l0.013,0.001l0.009,0.004h0.004
		l0.001-0.013l0.009-0.038l0.013-0.055l0.017-0.068l0.021-0.081l0.021-0.086l0.027-0.087
		C-38.514,80.901-38.487,80.813-38.487,80.813z"/>
	<path fill="#FBB230" d="M-27.313,87.003l0.029-0.06l0.04-0.051l0.05-0.045l0.056-0.033l0.067-0.022l0.069-0.006l0.071,0.006
		l0.067,0.022l0.056,0.033l0.05,0.045l0.037,0.051l0.031,0.06l0.019,0.064h0.087v-0.01l-0.024-0.081l-0.041-0.073l-0.051-0.063
		l-0.063-0.049l-0.073-0.036l-0.079-0.022l-0.086-0.01l-0.083,0.01l-0.079,0.022l-0.073,0.036L-27.3,86.84l-0.05,0.063l-0.044,0.073
		l-0.023,0.081v0.01h0.087L-27.313,87.003z M-26.844,87.017l-0.013-0.019l-0.014-0.015l-0.021-0.013l-0.024-0.004l-0.033-0.006
		h-0.201v0.106h0.074v-0.063h0.124l0.014,0.004l0.014,0.001l0.01,0.006l0.009,0.006l0.006,0.013l0.001,0.015v0.015h0.06
		l-0.001-0.028C-26.837,87.037-26.844,87.017-26.844,87.017z M-27.331,87.069v-0.004h-0.087l-0.009,0.068h0.09L-27.331,87.069z
		 M-26.896,87.072l-0.006,0.015l-0.006,0.01l-0.01,0.009l-0.017,0.006l-0.017,0.006l-0.023,0.004l-0.027,0.004h-0.074v-0.063h-0.074
		v0.068h0.287l0.013-0.01l0.009-0.017l0.006-0.019l0.001-0.022h-0.06C-26.896,87.067-26.896,87.072-26.896,87.072z M-26.671,87.067
		v0.004l0.006,0.064h0.09l-0.009-0.068H-26.671z M-26.664,87.145l-0.006,0.074l-0.019,0.068l-0.031,0.058l-0.037,0.051l-0.05,0.045
		l-0.056,0.033l-0.067,0.022l-0.071,0.006l-0.069-0.006l-0.067-0.022l-0.056-0.033l-0.05-0.045l-0.04-0.051l-0.029-0.058
		l-0.019-0.068l-0.006-0.074v-0.01h-0.09v0.01l0.009,0.09l0.021,0.083l0.044,0.074l0.05,0.064l0.064,0.054l0.073,0.036l0.079,0.026
		l0.083,0.009l0.086-0.009l0.079-0.026l0.073-0.036l0.063-0.054l0.051-0.064l0.043-0.074l0.024-0.083l0.009-0.09v-0.01h-0.09v0.01
		H-26.664z M-27.151,87.315h0.074V87.16h0.074l0.091,0.156h0.06l-0.091-0.156h0.023l0.021-0.006l0.017-0.006l0.017-0.013h-0.287
		C-27.151,87.133-27.151,87.315-27.151,87.315z"/>
	<path fill="#FFFFFF" d="M-40.976,82.973l-0.087,0.036l-0.086,0.033l-0.081,0.028l-0.086,0.019l-0.081,0.015l-0.081,0.013
		l-0.081,0.006l-0.079,0.001h-0.081l-0.079-0.001l-0.079-0.006l-0.079-0.009l-0.076-0.009l-0.079-0.013l-0.06-0.013l-0.06-0.022
		l-0.06-0.026l-0.054-0.033l-0.054-0.036l-0.049-0.049l-0.046-0.047l-0.041-0.054l-0.037-0.052l-0.033-0.058l-0.024-0.055
		l-0.021-0.06l-0.013-0.058l-0.006-0.06l0.001-0.051l0.009-0.041h1.963l0.014-0.191l0.046-0.26l0.021-0.234l-0.001-0.211
		l-0.024-0.186l-0.041-0.164l-0.06-0.143l-0.077-0.124l-0.09-0.106l-0.1-0.086l-0.109-0.074l-0.119-0.055l-0.121-0.047l-0.126-0.031
		l-0.124-0.022l-0.126-0.013l-0.119-0.004l-0.246,0.013l-0.214,0.038l-0.199,0.055l-0.174,0.077l-0.151,0.095l-0.133,0.105
		l-0.119,0.118l-0.096,0.124l-0.086,0.129l-0.069,0.137l-0.054,0.134l-0.044,0.132l-0.033,0.129l-0.024,0.119l-0.017,0.115
		l-0.013,0.1l-0.017,0.255l0.009,0.228l0.033,0.207l0.05,0.183l0.073,0.164l0.087,0.143l0.101,0.128l0.119,0.105l0.127,0.09
		l0.137,0.077l0.141,0.06l0.149,0.047l0.151,0.038l0.151,0.022l0.15,0.015l0.149,0.001h0.1l0.094-0.001h0.081l0.079-0.004
		l0.069-0.006l0.063-0.006l0.06-0.006l0.054-0.009l0.051-0.01l0.051-0.01l0.049-0.015l0.046-0.015l0.046-0.019l0.049-0.019
		l0.049-0.026l0.05-0.023l0.121-0.762l-0.087,0.054C-40.89,82.925-40.976,82.973-40.976,82.973z M-42.536,81.715l0.013-0.064
		l0.019-0.063l0.021-0.063l0.024-0.058l0.027-0.054l0.033-0.049l0.036-0.047l0.04-0.042l0.04-0.036l0.046-0.033l0.044-0.028
		l0.051-0.026l0.051-0.019l0.051-0.013l0.054-0.009l0.059-0.004l0.054,0.006l0.051,0.009l0.049,0.013l0.049,0.017l0.046,0.026
		l0.046,0.028l0.04,0.032l0.036,0.036l0.029,0.042l0.031,0.047l0.021,0.054l0.021,0.06l0.013,0.063l0.006,0.068l0.004,0.074
		l-0.006,0.079h-1.106l0.001-0.001h-0.001C-42.544,81.76-42.536,81.715-42.536,81.715z"/>
</g>
</svg>
