<?xml version="1.0" encoding="UTF-8" standalone="no"?>
<svg width="254px" height="40px" viewBox="0 0 254 40" version="1.1" xmlns="http://www.w3.org/2000/svg" xmlns:xlink="http://www.w3.org/1999/xlink" xmlns:sketch="http://www.bohemiancoding.com/sketch/ns">
    <!-- Generator: Sketch 3.0.3 (7891) - http://www.bohemiancoding.com/sketch -->
    <title>Untitled</title>
    <desc>Created with Sketch.</desc>
    <defs>
        <linearGradient x1="-20.4628195%" y1="79.2202112%" x2="93.5840031%" y2="38.5070765%" id="linearGradient-1">
            <stop stop-color="#181C0E" stop-opacity="0.7" offset="15.31%"></stop>
            <stop stop-color="#1D2310" stop-opacity="0.6189" offset="25.12%"></stop>
            <stop stop-color="#2A3716" stop-opacity="0.4997" offset="39.55%"></stop>
            <stop stop-color="#40571F" stop-opacity="0.3568" offset="56.83%"></stop>
            <stop stop-color="#5F842C" stop-opacity="0.1959" offset="76.3%"></stop>
            <stop stop-color="#86BD3D" stop-opacity="0.0217" offset="97.38%"></stop>
            <stop stop-color="#8BC53F" stop-opacity="0" offset="100%"></stop>
        </linearGradient>
        <linearGradient x1="82.2087581%" y1="122.50457%" x2="36.1628344%" y2="6.09659053%" id="linearGradient-2">
            <stop stop-color="#181C0E" stop-opacity="0.7" offset="15.31%"></stop>
            <stop stop-color="#1D2310" stop-opacity="0.6189" offset="25.12%"></stop>
            <stop stop-color="#2A3716" stop-opacity="0.4997" offset="39.55%"></stop>
            <stop stop-color="#40571F" stop-opacity="0.3568" offset="56.83%"></stop>
            <stop stop-color="#5F842C" stop-opacity="0.1959" offset="76.3%"></stop>
            <stop stop-color="#86BD3D" stop-opacity="0.0217" offset="97.38%"></stop>
            <stop stop-color="#8BC53F" stop-opacity="0" offset="100%"></stop>
        </linearGradient>
    </defs>
    <g id="Page-1" stroke="none" stroke-width="1" fill="none" fill-rule="evenodd" sketch:type="MSPage">
        <g id="kochabo-inline" sketch:type="MSLayerGroup">
            <g id="Group" sketch:type="MSShapeGroup">
                <path d="M218.25,3.19999695 C217.068,3.19999695 216.516,3.34599695 216.308,3.42499695 C216.164,4.13699695 215.428,6.71899695 212.144,7.50699695 L211.966,7.54999695 L211.838,7.42099695 C210.605,6.17699695 208.756,5.49099695 206.628,5.49099695 C201.585,5.49099695 198.326,8.65299695 198.326,13.5469969 C198.326,18.0559969 201.985,19.6609969 205.41,19.6609969 C210.017,19.6609969 213.193,16.9059969 213.504,12.6429969 L213.524,12.3719969 L213.795,12.3459969 C218.692,11.8849969 221.073,9.90999695 221.073,6.31199695 C221.073,4.36299695 220.018,3.19999695 218.25,3.19999695 L218.25,3.19999695 Z M205.926,15.6169969 C204.786,15.6169969 204.786,14.4359969 204.786,13.8019969 C204.786,11.2379969 205.641,10.6999969 206.357,10.6999969 C206.879,10.6999969 207.498,10.9709969 207.498,12.2629969 C207.498,13.9339969 207.012,15.6169969 205.926,15.6169969 L205.926,15.6169969 Z" id="Shape" fill="#58595B"></path>
                <g transform="translate(89.000000, 25.000000)" id="Shape" fill="#7FC143">
                    <path d="M6.926,10.198 C6.926,10.198 5.643,11.811 3.698,11.811 C1.843,11.811 -0.117,11.088 -0.117,8.094 C-0.117,5.375 1.165,3.563 3.651,3.563 C5.488,3.563 6.817,4.699 6.817,6.68 L6.817,7.418 L0.84,7.418 C0.824,7.634 0.809,7.849 0.809,8.063 C0.809,10.258 2.307,10.92 3.698,10.92 C5.149,10.92 6.4,9.644 6.4,9.644 L6.926,10.198 L6.926,10.198 Z M0.995,6.526 L5.906,6.526 C5.829,5.282 4.995,4.423 3.652,4.423 C2.324,4.423 1.397,5.221 0.995,6.526 L0.995,6.526 Z"></path>
                    <path d="M8.777,10.705 L9.965,10.705 L9.965,4.668 L8.621,4.668 L8.621,3.792 L10.026,3.792 C10.521,3.792 10.891,4.223 10.891,4.822 L10.891,10.705 L12.097,10.705 L12.097,11.58 L8.777,11.58 L8.777,10.705 L8.777,10.705 Z M10.29,1.242 C10.738,1.242 11.077,1.581 11.077,2.026 C11.077,2.457 10.738,2.794 10.29,2.794 C9.857,2.794 9.519,2.457 9.519,2.026 C9.519,1.581 9.857,1.242 10.29,1.242 L10.29,1.242 Z"></path>
                    <path d="M13.795,10.705 L14.983,10.705 L14.983,4.668 L13.639,4.668 L13.639,3.792 L15.046,3.792 C15.54,3.792 15.911,4.223 15.911,4.822 L15.911,6.465 C15.957,6.326 16.822,3.563 19.076,3.563 C21.084,3.563 21.578,5.206 21.578,7.048 L21.578,10.705 L22.922,10.705 L22.922,11.58 L21.517,11.58 C21.022,11.58 20.652,11.15 20.652,10.55 L20.652,7.08 C20.652,5.744 20.282,4.469 19.076,4.469 C16.914,4.469 15.911,8.11 15.911,8.324 L15.911,10.706 L17.115,10.706 L17.115,11.581 L13.795,11.581 L13.795,10.705 L13.795,10.705 Z"></path>
                    <path d="M24.958,3.792 L25.961,3.792 L25.961,2.564 C25.961,0.89 26.889,0.061 28.262,0.061 C28.973,0.061 29.544,0.584 29.544,0.584 L29.111,1.243 C29.111,1.243 28.679,0.967 28.293,0.967 C27.521,0.967 26.904,1.428 26.904,2.595 L26.904,3.793 L29.144,3.793 L29.144,4.669 L26.89,4.669 L26.89,10.706 L28.403,10.706 L28.403,11.581 L24.774,11.581 L24.774,10.706 L25.962,10.706 L25.962,4.669 L24.959,4.669 L24.959,3.792 L24.958,3.792 Z"></path>
                    <path d="M30.933,9.691 C30.933,7.54 32.801,7.125 34.624,7.125 L36.988,7.125 L36.988,6.833 C36.988,5.19 36.261,4.423 34.486,4.423 C33.28,4.423 32.154,4.898 32.154,5.943 C32.154,6.342 32.231,6.634 32.247,6.787 L31.397,6.787 C31.397,6.787 31.244,6.511 31.244,5.957 C31.244,4.16 32.818,3.562 34.487,3.562 C36.973,3.562 37.916,4.514 37.916,6.832 L37.916,10.704 L39.26,10.704 L39.26,11.579 L37.853,11.579 C37.359,11.579 36.989,11.149 36.989,10.549 L36.989,9.09 C36.942,9.213 36.155,11.809 33.653,11.809 C31.921,11.81 30.933,10.95 30.933,9.691 L30.933,9.691 Z M36.863,7.985 L34.623,7.985 C33.326,7.985 31.859,8.2 31.859,9.659 C31.859,10.32 32.539,10.903 33.651,10.903 C35.227,10.904 36.323,9.152 36.863,7.985 L36.863,7.985 Z"></path>
                    <path d="M47.781,10.198 C47.781,10.198 46.483,11.811 44.537,11.811 C42.684,11.811 40.645,10.996 40.645,7.986 C40.645,5.345 41.927,3.563 44.413,3.563 C46.25,3.563 47.579,4.561 47.579,6.465 C47.579,6.864 47.487,7.325 47.487,7.325 L46.622,7.325 C46.622,7.325 46.668,6.757 46.668,6.45 C46.668,5.298 45.819,4.423 44.414,4.423 C42.622,4.423 41.572,5.727 41.572,7.955 C41.572,10.182 43.146,10.92 44.537,10.92 C45.989,10.92 47.255,9.644 47.255,9.644 L47.781,10.198 L47.781,10.198 Z"></path>
                    <path d="M49.091,10.705 L50.28,10.705 L50.28,1.15 L48.936,1.15 L48.936,0.276 L50.34,0.276 C50.835,0.276 51.206,0.704 51.206,1.304 L51.206,6.464 C51.237,6.325 52.101,3.562 54.372,3.562 C56.378,3.562 56.873,5.205 56.873,7.047 L56.873,10.704 L58.217,10.704 L58.217,11.579 L56.812,11.579 C56.318,11.579 55.947,11.149 55.947,10.549 L55.947,7.079 C55.947,5.743 55.577,4.468 54.373,4.468 C52.41,4.468 51.392,7.617 51.207,8.323 L51.207,10.705 L52.41,10.705 L52.41,11.58 L49.091,11.58 L49.091,10.705 L49.091,10.705 Z"></path>
                    <path d="M64.856,10.705 L66.044,10.705 L66.044,1.15 L64.7,1.15 L64.7,0.276 L66.107,0.276 C66.601,0.276 66.972,0.704 66.972,1.304 L66.972,7.786 L70.322,4.406 C70.723,4.007 71.11,3.791 71.588,3.791 L72.299,3.791 L72.299,4.667 L71.327,4.667 L69.35,6.633 L72.995,10.704 L73.983,10.704 L73.983,11.579 L73.087,11.579 C72.531,11.579 72.269,11.334 71.959,10.965 L68.669,7.34 L66.971,9.061 L66.971,10.704 L68.174,10.704 L68.174,11.579 L64.855,11.579 L64.855,10.705 L64.856,10.705 Z"></path>
                    <path d="M78.351,11.81 C76.25,11.81 74.597,10.428 74.597,7.677 C74.597,5.404 76.142,3.562 78.351,3.562 C80.56,3.562 82.119,5.373 82.119,7.677 C82.119,10.429 80.451,11.81 78.351,11.81 L78.351,11.81 Z M81.193,7.648 C81.193,5.789 79.973,4.423 78.351,4.423 C76.728,4.423 75.524,5.789 75.524,7.648 C75.524,9.859 76.837,10.95 78.351,10.95 C79.864,10.95 81.193,9.875 81.193,7.648 L81.193,7.648 Z"></path>
                    <path d="M91.028,10.198 C91.028,10.198 89.73,11.811 87.784,11.811 C85.932,11.811 83.892,10.996 83.892,7.986 C83.892,5.345 85.174,3.563 87.66,3.563 C89.497,3.563 90.827,4.561 90.827,6.465 C90.827,6.864 90.733,7.325 90.733,7.325 L89.868,7.325 C89.868,7.325 89.914,6.757 89.914,6.45 C89.914,5.298 89.066,4.423 87.66,4.423 C85.868,4.423 84.818,5.727 84.818,7.955 C84.818,10.182 86.394,10.92 87.783,10.92 C89.235,10.92 90.503,9.644 90.503,9.644 L91.028,10.198 L91.028,10.198 Z"></path>
                    <path d="M92.338,10.705 L93.527,10.705 L93.527,1.15 L92.183,1.15 L92.183,0.276 L93.587,0.276 C94.083,0.276 94.453,0.704 94.453,1.304 L94.453,6.464 C94.484,6.325 95.348,3.562 97.619,3.562 C99.625,3.562 100.121,5.205 100.121,7.047 L100.121,10.704 L101.463,10.704 L101.463,11.579 L100.058,11.579 C99.564,11.579 99.193,11.149 99.193,10.549 L99.193,7.079 C99.193,5.743 98.823,4.468 97.619,4.468 C95.657,4.468 94.638,7.617 94.453,8.323 L94.453,10.705 L95.657,10.705 L95.657,11.58 L92.337,11.58 L92.337,10.705 L92.338,10.705 Z"></path>
                    <path d="M109.819,10.198 C109.819,10.198 108.536,11.811 106.59,11.811 C104.738,11.811 102.777,11.088 102.777,8.094 C102.777,5.375 104.059,3.563 106.545,3.563 C108.382,3.563 109.71,4.699 109.71,6.68 L109.71,7.418 L103.734,7.418 C103.718,7.634 103.702,7.849 103.702,8.063 C103.702,10.258 105.201,10.92 106.589,10.92 C108.041,10.92 109.292,9.644 109.292,9.644 L109.819,10.198 L109.819,10.198 Z M103.889,6.526 L108.8,6.526 C108.722,5.282 107.888,4.423 106.546,4.423 C105.217,4.423 104.289,5.221 103.889,6.526 L103.889,6.526 Z"></path>
                    <path d="M111.67,10.705 L112.859,10.705 L112.859,4.668 L111.515,4.668 L111.515,3.792 L112.919,3.792 C113.414,3.792 113.785,4.223 113.785,4.822 L113.785,6.465 C113.832,6.326 114.696,3.563 116.951,3.563 C118.957,3.563 119.453,5.206 119.453,7.048 L119.453,10.705 L120.795,10.705 L120.795,11.58 L119.39,11.58 C118.896,11.58 118.525,11.15 118.525,10.55 L118.525,7.08 C118.525,5.744 118.155,4.469 116.951,4.469 C114.788,4.469 113.785,8.11 113.785,8.324 L113.785,10.706 L114.988,10.706 L114.988,11.581 L111.669,11.581 L111.669,10.705 L111.67,10.705 Z"></path>
                    <path d="M122.648,11.012 C122.648,10.613 122.911,10.213 123.42,10.213 C123.898,10.213 124.207,10.55 124.207,11.028 C124.207,11.488 123.897,11.811 123.42,11.811 C122.927,11.81 122.648,11.41 122.648,11.012 L122.648,11.012 Z"></path>
                </g>
                <g id="Shape">
                    <g transform="translate(42.000000, 1.000000)">
                        <path d="M21.98,0.482 C-0.16,5.486 -0.151,38.76 -0.151,38.76 C-0.151,38.76 15.133,40.9 30.377,32.406 C47.995,22.588 44.118,-4.524 21.98,0.482 L21.98,0.482 Z" fill="#7FC143"></path>
                        <path d="M-0.151,38.76 L38.379,4.916 C38.379,4.916 44.506,12.001 39.383,23.049 C38.591,24.759 36.103,28.473 33.146,30.595 C32.632,30.963 19.633,40.523 -0.151,38.76 L-0.151,38.76 Z" fill="url(#linearGradient-1)"></path>
                    </g>
                    <g>
                        <path d="M0.972,20.225 C7.382,41.886 40.771,39.794 40.771,39.794 C40.771,39.794 41.961,24.489 32.483,9.89 C21.525,-6.983 -5.437,-1.436 0.972,20.225 L0.972,20.225 Z" fill="#7FC143"></path>
                        <path d="M40.771,39.793 L4.395,3.668 C4.395,3.668 11.121,-2.857 22.528,1.536 C24.294,2.216 28.176,4.451 30.491,7.254 C30.893,7.741 41.301,20.045 40.771,39.793 L40.771,39.793 Z" fill="url(#linearGradient-2)"></path>
                    </g>
                </g>
                <path d="M95.3534814,19.4560342 C100.332923,19.4560342 103.553571,15.0600253 103.553571,10.1988304 C103.553571,7.98919626 102.45718,6.2680076 99.8760933,6.2680076 C96.7696528,6.2680076 96.5183966,8.61719753 96.5183966,8.61719753 L97.6376288,10.4081641 C97.1807993,14.3855055 95.7417864,15.2228405 95.7417864,15.2228405 C95.7417864,15.2228405 96.2671403,12.4549831 96.2671403,10.2918676 C96.2671403,7.80312181 95.3763228,6.2680076 93.0693339,6.2680076 C90.4654058,6.2680076 89.026393,7.45423222 89.026393,7.45423222 C89.026393,7.45423222 89.3233321,10.0825338 89.4832224,12.8969099 C89.7573201,17.5022525 91.0821257,19.4560342 95.3534814,19.4560342 Z M110.154757,13.8040228 C110.154757,13.8040228 110.474537,14.0133566 111.730818,14.0133566 C115.111357,14.0133566 116.87015,12.3852051 116.87015,10.0127559 C116.87015,7.61704736 115.15704,6.03541454 111.433879,6.03541454 C107.41378,6.03541454 104.0104,8.66371614 104.0104,13.5016518 C104.0104,17.5022525 106.340231,19.7118866 110.817159,19.7118866 C114.791576,19.7118866 116.664577,17.688327 116.664577,15.8043231 C116.664577,14.1761717 115.545345,13.664467 115.545345,13.664467 C115.545345,13.664467 113.695185,14.9902474 111.342513,14.9902474 C110.154757,14.9902474 110.154757,13.8040228 110.154757,13.8040228 Z M110.588745,13.1760215 C110.588745,11.8037225 111.022733,10.9431282 111.639453,10.9431282 C111.91355,10.9431282 112.096282,11.1524619 112.096282,11.4780922 C112.096282,12.4782424 111.319672,12.757354 110.588745,13.1760215 Z M130.50651,6.2680076 C128.839083,6.2680076 127.971107,6.52385997 127.971107,6.52385997 L126.966082,9.26845811 C126.966082,9.26845811 126.874716,6.2680076 123.471336,6.2680076 C119.588286,6.2680076 117.715285,8.96608712 117.715285,12.1293528 C117.715285,14.5715799 118.8802,16.9905478 122.694726,16.9905478 C125.275813,16.9905478 125.869691,15.8275825 125.869691,15.8275825 C125.869691,15.8275825 125.915374,15.9206197 125.915374,16.1532127 C125.915374,16.9672885 125.275813,17.9441793 122.626202,17.9441793 C120.227847,17.9441793 118.332005,16.8509919 118.332005,16.8509919 C118.332005,16.8509919 117.349821,17.618549 117.349821,19.2234412 C117.349821,21.1307043 118.8802,22.8518929 123.608385,22.8518929 C129.592851,22.8518929 131.625743,19.8281831 132.196779,15.7578045 C132.585085,13.0132064 133.019073,9.89645937 133.019073,8.19853002 C133.019073,6.73319373 132.014048,6.2680076 130.50651,6.2680076 Z M125.641276,11.6409073 C125.641276,11.6409073 125.435703,13.2923181 125.367179,13.9435787 C125.298654,14.5715799 125.024557,14.804173 124.681934,14.804173 C124.293629,14.804173 124.088056,14.501802 124.088056,13.7342449 C124.088056,11.9665376 124.590569,11.5246108 125.207288,11.5246108 C125.481386,11.5246108 125.641276,11.6409073 125.641276,11.6409073 Z M148.414226,16.7579547 C148.414226,16.7579547 148.117287,16.1299534 148.117287,15.036766 C148.117287,14.8972102 148.117287,14.7576544 148.871056,8.78001267 C148.893897,8.61719753 148.916739,8.38460447 148.916739,8.17527071 C148.916739,6.80297165 147.866031,6.2680076 146.038713,6.2680076 C144.805273,6.2680076 143.845931,6.52385997 143.845931,6.52385997 L142.840907,9.26845811 C142.840907,9.26845811 142.840907,6.2680076 139.551734,6.2680076 C136.285403,6.2680076 133.544426,9.22193949 133.544426,13.9435787 C133.544426,18.0837352 135.485952,19.4560342 137.861465,19.4560342 C139.688783,19.4560342 141.584625,18.4558841 142.178504,15.339137 C142.178504,15.339137 142.064296,16.1299534 142.064296,16.6881768 C142.064296,18.525662 142.840907,19.4560342 144.508334,19.4560342 C146.404177,19.4560342 148.025921,18.3628468 148.414226,16.7579547 Z M141.19632,14.3389869 C141.150637,14.8506916 140.922223,15.1995812 140.533918,15.1995812 C140.122771,15.1995812 139.917198,14.8506916 139.917198,14.1761717 C139.917198,12.3386865 140.25982,11.5246108 141.059272,11.5246108 C141.264845,11.5246108 141.401894,11.5711294 141.516101,11.6409073 C141.310528,13.2225402 141.287686,13.5249111 141.19632,14.3389869 Z M165.408283,10.5012013 C165.408283,7.96593696 163.900746,6.2680076 161.502391,6.2680076 C158.784256,6.2680076 157.253877,7.84964043 156.271693,10.3849048 L156.271693,9.19868019 C156.271693,7.10534263 155.106778,6.2680076 153.416509,6.2680076 C151.771923,6.2680076 150.584166,7.0123054 150.584166,7.0123054 C150.584166,7.0123054 149.327885,16.7114361 149.327885,17.3161781 C149.327885,18.8978109 150.721215,19.4560342 152.662741,19.4560342 C155.28951,19.4560342 156.248852,17.9906979 156.248852,17.9906979 L156.979779,11.7572039 C156.979779,11.7572039 157.276718,11.5246108 157.733548,11.5246108 C158.07617,11.5246108 158.281743,11.7106853 158.281743,12.1060935 C158.281743,13.2457995 157.61934,15.6880266 157.61934,17.0603257 C157.61934,18.7815143 158.944146,19.4560342 161.02272,19.4560342 C164.677356,19.4560342 165.248393,16.7579547 165.248393,16.7579547 C165.248393,16.7579547 164.951454,16.1299534 164.951454,15.036766 C164.951454,13.8272821 165.408283,11.6641666 165.408283,10.5012013 Z M181.054693,16.7579547 C181.054693,16.7579547 180.757754,16.1299534 180.757754,15.036766 C180.757754,14.8972102 180.757754,14.7576544 181.511523,8.78001267 C181.534364,8.61719753 181.557206,8.38460447 181.557206,8.17527071 C181.557206,6.80297165 180.506498,6.2680076 178.67918,6.2680076 C177.44574,6.2680076 176.486398,6.52385997 176.486398,6.52385997 L175.481373,9.26845811 C175.481373,9.26845811 175.481373,6.2680076 172.192201,6.2680076 C168.92587,6.2680076 166.184893,9.22193949 166.184893,13.9435787 C166.184893,18.0837352 168.126419,19.4560342 170.501932,19.4560342 C172.32925,19.4560342 174.225092,18.4558841 174.818971,15.339137 C174.818971,15.339137 174.704763,16.1299534 174.704763,16.6881768 C174.704763,18.525662 175.481373,19.4560342 177.148801,19.4560342 C179.044643,19.4560342 180.666388,18.3628468 181.054693,16.7579547 Z M173.836787,14.3389869 C173.791104,14.8506916 173.56269,15.1995812 173.174384,15.1995812 C172.763238,15.1995812 172.557665,14.8506916 172.557665,14.1761717 C172.557665,12.3386865 172.900287,11.5246108 173.699738,11.5246108 C173.905312,11.5246108 174.042361,11.5711294 174.156568,11.6409073 C173.950995,13.2225402 173.928153,13.5249111 173.836787,14.3389869 Z M181.922669,18.2465503 C181.922669,18.2465503 182.539389,19.4560342 184.41239,19.4560342 C186.034135,19.4560342 186.879269,18.828033 187.952818,16.7114361 C187.952818,16.7114361 188.13555,19.4560342 191.53893,19.4560342 C195.033675,19.4560342 197.43203,16.2229907 197.43203,11.7804632 C197.43203,7.52401014 195.696078,6.2680076 193.503297,6.2680076 C191.333357,6.2680076 190.168441,7.94267765 190.168441,7.94267765 C190.168441,7.94267765 190.602429,5.38415397 190.602429,4.47704103 C190.602429,3.05822335 189.574563,2.5 187.724404,2.5 C185.34889,2.5 183.749987,3.50015017 183.749987,3.50015017 L181.922669,18.2465503 Z M189.665929,12.3852051 C189.711612,11.8735004 189.940027,11.5246108 190.328332,11.5246108 C190.670954,11.5246108 190.945052,11.7339446 190.945052,12.5480203 C190.945052,14.0366159 190.625271,14.7809137 189.825819,14.7809137 C189.506039,14.7809137 189.36899,14.6646171 189.36899,14.6646171 C189.574563,13.0829843 189.574563,13.1992809 189.665929,12.3852051 Z M223.927846,15.106544 C223.927846,13.1527622 222.785772,12.2921679 219.999112,12.2921679 C216.595732,12.2921679 215.225244,13.6412077 215.225244,16.7579547 C215.225244,18.8745516 216.344476,19.6421087 219.108294,19.6421087 C222.717247,19.6421087 223.927846,18.0837352 223.927846,15.106544 Z M241.328024,4.45378172 C241.328024,3.05822335 240.300158,2.5 238.449998,2.5 C236.074485,2.5 234.475582,3.50015017 234.475582,3.50015017 L233.995911,7.59378806 C233.995911,7.59378806 233.836021,6.2680076 231.483349,6.2680076 C228.239859,6.2680076 225.476041,9.22193949 225.476041,13.9435787 C225.476041,18.2465503 227.531774,19.4560342 229.79308,19.4560342 C232.12291,19.4560342 233.51624,18.0372165 234.110118,15.339137 C234.110118,15.339137 233.995911,16.1066941 233.995911,16.6881768 C233.995911,18.4093654 234.74968,19.4560342 236.3029,19.4560342 C239.751962,19.4560342 240.345841,16.7579547 240.345841,16.7579547 C240.345841,16.7579547 240.048902,16.1299534 240.048902,15.036766 C240.048902,14.1296531 241.328024,5.29111674 241.328024,4.45378172 Z M233.127935,14.3389869 C233.082252,14.8506916 232.853837,15.1995812 232.465532,15.1995812 C232.12291,15.1995812 231.848812,14.9902474 231.848812,14.1761717 C231.848812,12.4782424 232.191434,11.5246108 232.990886,11.5246108 C233.196459,11.5246108 233.333508,11.5711294 233.447716,11.6409073 C233.242142,13.2225402 233.219301,13.5249111 233.127935,14.3389869 Z M247.563747,13.8040228 C247.563747,13.8040228 247.883527,14.0133566 249.139808,14.0133566 C252.520347,14.0133566 254.27914,12.3852051 254.27914,10.0127559 C254.27914,7.61704736 252.56603,6.03541454 248.842869,6.03541454 C244.82277,6.03541454 241.41939,8.66371614 241.41939,13.5016518 C241.41939,17.5022525 243.74922,19.7118866 248.226149,19.7118866 C252.200566,19.7118866 254.073567,17.688327 254.073567,15.8043231 C254.073567,14.1761717 252.954335,13.664467 252.954335,13.664467 C252.954335,13.664467 251.104175,14.9902474 248.751503,14.9902474 C247.563747,14.9902474 247.563747,13.8040228 247.563747,13.8040228 Z M247.997735,13.1760215 C247.997735,11.8037225 248.431723,10.9431282 249.048442,10.9431282 C249.32254,10.9431282 249.505272,11.1524619 249.505272,11.4780922 C249.505272,12.4782424 248.728662,12.757354 247.997735,13.1760215 Z" id="veganabo" fill="#57585A"></path>
            </g>
        </g>
    </g>
</svg>