<?xml version="1.0" encoding="UTF-8" standalone="no"?>
<svg width="165px" height="80px" viewBox="0 0 165 80" version="1.1" xmlns="http://www.w3.org/2000/svg" xmlns:xlink="http://www.w3.org/1999/xlink" xmlns:sketch="http://www.bohemiancoding.com/sketch/ns">
    <!-- Generator: Sketch 3.0.3 (7891) - http://www.bohemiancoding.com/sketch -->
    <title>Untitled</title>
    <desc>Created with Sketch.</desc>
    <defs>
        <linearGradient x1="2.71048136%" y1="79.2202112%" x2="79.2504124%" y2="38.5070765%" id="linearGradient-1">
            <stop stop-color="#181C0E" stop-opacity="0.7" offset="15.31%"></stop>
            <stop stop-color="#1D2310" stop-opacity="0.6189" offset="25.12%"></stop>
            <stop stop-color="#2A3716" stop-opacity="0.4997" offset="39.55%"></stop>
            <stop stop-color="#40571F" stop-opacity="0.3568" offset="56.83%"></stop>
            <stop stop-color="#5F842C" stop-opacity="0.1959" offset="76.3%"></stop>
            <stop stop-color="#86BD3D" stop-opacity="0.0217" offset="97.38%"></stop>
            <stop stop-color="#8BC53F" stop-opacity="0" offset="100%"></stop>
        </linearGradient>
        <linearGradient x1="82.2087581%" y1="110.700624%" x2="36.1628344%" y2="13.2441881%" id="linearGradient-2">
            <stop stop-color="#181C0E" stop-opacity="0.7" offset="15.31%"></stop>
            <stop stop-color="#1D2310" stop-opacity="0.6189" offset="25.12%"></stop>
            <stop stop-color="#2A3716" stop-opacity="0.4997" offset="39.55%"></stop>
            <stop stop-color="#40571F" stop-opacity="0.3568" offset="56.83%"></stop>
            <stop stop-color="#5F842C" stop-opacity="0.1959" offset="76.3%"></stop>
            <stop stop-color="#86BD3D" stop-opacity="0.0217" offset="97.38%"></stop>
            <stop stop-color="#8BC53F" stop-opacity="0" offset="100%"></stop>
        </linearGradient>
    </defs>
    <g id="Page-1" stroke="none" stroke-width="1" fill="none" fill-rule="evenodd" sketch:type="MSPage">
        <g id="veganabo-inline" sketch:type="MSLayerGroup">
            <g id="Page-1" sketch:type="MSShapeGroup">
                <g id="kochabo-inline">
                    <g id="Group">
                        <path d="M129.25,46.1999969 C128.068,46.1999969 127.516,46.3459969 127.308,46.424997 C127.164,47.1369969 126.428,49.7189969 123.144,50.506997 L122.966,50.549997 L122.838,50.420997 C121.605,49.176997 119.756,48.4909969 117.628,48.4909969 C112.585,48.4909969 109.326,51.652997 109.326,56.5469969 C109.326,61.0559969 112.985,62.6609969 116.41,62.6609969 C121.017,62.6609969 124.193,59.9059969 124.504,55.6429969 L124.524,55.3719969 L124.795,55.3459969 C129.692,54.8849969 132.073,52.909997 132.073,49.311997 C132.073,47.3629969 131.018,46.1999969 129.25,46.1999969 L129.25,46.1999969 L129.25,46.1999969 Z M116.926,58.6169969 C115.786,58.6169969 115.786,57.4359969 115.786,56.8019969 C115.786,54.2379969 116.641,53.6999969 117.357,53.6999969 C117.879,53.6999969 118.498,53.9709969 118.498,55.2629969 C118.498,56.9339969 118.012,58.6169969 116.926,58.6169969 L116.926,58.6169969 L116.926,58.6169969 Z" id="Shape" fill="#58595B"></path>
                        <g id="Shape" transform="translate(21.000000, 68.000000)" fill="#7FC143">
                            <path d="M6.926,10.198 C6.926,10.198 5.643,11.811 3.698,11.811 C1.843,11.811 -0.117,11.088 -0.117,8.094 C-0.117,5.375 1.165,3.563 3.651,3.563 C5.488,3.563 6.817,4.699 6.817,6.68 L6.817,7.418 L0.84,7.418 C0.824,7.634 0.809,7.849 0.809,8.063 C0.809,10.258 2.307,10.92 3.698,10.92 C5.149,10.92 6.4,9.644 6.4,9.644 L6.926,10.198 L6.926,10.198 Z M0.995,6.526 L5.906,6.526 C5.829,5.282 4.995,4.423 3.652,4.423 C2.324,4.423 1.397,5.221 0.995,6.526 L0.995,6.526 L0.995,6.526 Z"></path>
                            <path d="M8.777,10.705 L9.965,10.705 L9.965,4.668 L8.621,4.668 L8.621,3.792 L10.026,3.792 C10.521,3.792 10.891,4.223 10.891,4.822 L10.891,10.705 L12.097,10.705 L12.097,11.58 L8.777,11.58 L8.777,10.705 L8.777,10.705 Z M10.29,1.242 C10.738,1.242 11.077,1.581 11.077,2.026 C11.077,2.457 10.738,2.794 10.29,2.794 C9.857,2.794 9.519,2.457 9.519,2.026 C9.519,1.581 9.857,1.242 10.29,1.242 L10.29,1.242 L10.29,1.242 Z"></path>
                            <path d="M13.795,10.705 L14.983,10.705 L14.983,4.668 L13.639,4.668 L13.639,3.792 L15.046,3.792 C15.54,3.792 15.911,4.223 15.911,4.822 L15.911,6.465 C15.957,6.326 16.822,3.563 19.076,3.563 C21.084,3.563 21.578,5.206 21.578,7.048 L21.578,10.705 L22.922,10.705 L22.922,11.58 L21.517,11.58 C21.022,11.58 20.652,11.15 20.652,10.55 L20.652,7.08 C20.652,5.744 20.282,4.469 19.076,4.469 C16.914,4.469 15.911,8.11 15.911,8.324 L15.911,10.706 L17.115,10.706 L17.115,11.581 L13.795,11.581 L13.795,10.705 L13.795,10.705 Z"></path>
                            <path d="M24.958,3.792 L25.961,3.792 L25.961,2.564 C25.961,0.89 26.889,0.061 28.262,0.061 C28.973,0.061 29.544,0.584 29.544,0.584 L29.111,1.243 C29.111,1.243 28.679,0.967 28.293,0.967 C27.521,0.967 26.904,1.428 26.904,2.595 L26.904,3.793 L29.144,3.793 L29.144,4.669 L26.89,4.669 L26.89,10.706 L28.403,10.706 L28.403,11.581 L24.774,11.581 L24.774,10.706 L25.962,10.706 L25.962,4.669 L24.959,4.669 L24.959,3.792 L24.958,3.792 L24.958,3.792 Z"></path>
                            <path d="M30.933,9.691 C30.933,7.54 32.801,7.125 34.624,7.125 L36.988,7.125 L36.988,6.833 C36.988,5.19 36.261,4.423 34.486,4.423 C33.28,4.423 32.154,4.898 32.154,5.943 C32.154,6.342 32.231,6.634 32.247,6.787 L31.397,6.787 C31.397,6.787 31.244,6.511 31.244,5.957 C31.244,4.16 32.818,3.562 34.487,3.562 C36.973,3.562 37.916,4.514 37.916,6.832 L37.916,10.704 L39.26,10.704 L39.26,11.579 L37.853,11.579 C37.359,11.579 36.989,11.149 36.989,10.549 L36.989,9.09 C36.942,9.213 36.155,11.809 33.653,11.809 C31.921,11.81 30.933,10.95 30.933,9.691 L30.933,9.691 L30.933,9.691 Z M36.863,7.985 L34.623,7.985 C33.326,7.985 31.859,8.2 31.859,9.659 C31.859,10.32 32.539,10.903 33.651,10.903 C35.227,10.904 36.323,9.152 36.863,7.985 L36.863,7.985 L36.863,7.985 Z"></path>
                            <path d="M47.781,10.198 C47.781,10.198 46.483,11.811 44.537,11.811 C42.684,11.811 40.645,10.996 40.645,7.986 C40.645,5.345 41.927,3.563 44.413,3.563 C46.25,3.563 47.579,4.561 47.579,6.465 C47.579,6.864 47.487,7.325 47.487,7.325 L46.622,7.325 C46.622,7.325 46.668,6.757 46.668,6.45 C46.668,5.298 45.819,4.423 44.414,4.423 C42.622,4.423 41.572,5.727 41.572,7.955 C41.572,10.182 43.146,10.92 44.537,10.92 C45.989,10.92 47.255,9.644 47.255,9.644 L47.781,10.198 L47.781,10.198 Z"></path>
                            <path d="M49.091,10.705 L50.28,10.705 L50.28,1.15 L48.936,1.15 L48.936,0.276 L50.34,0.276 C50.835,0.276 51.206,0.704 51.206,1.304 L51.206,6.464 C51.237,6.325 52.101,3.562 54.372,3.562 C56.378,3.562 56.873,5.205 56.873,7.047 L56.873,10.704 L58.217,10.704 L58.217,11.579 L56.812,11.579 C56.318,11.579 55.947,11.149 55.947,10.549 L55.947,7.079 C55.947,5.743 55.577,4.468 54.373,4.468 C52.41,4.468 51.392,7.617 51.207,8.323 L51.207,10.705 L52.41,10.705 L52.41,11.58 L49.091,11.58 L49.091,10.705 L49.091,10.705 Z"></path>
                            <path d="M64.856,10.705 L66.044,10.705 L66.044,1.15 L64.7,1.15 L64.7,0.276 L66.107,0.276 C66.601,0.276 66.972,0.704 66.972,1.304 L66.972,7.786 L70.322,4.406 C70.723,4.007 71.11,3.791 71.588,3.791 L72.299,3.791 L72.299,4.667 L71.327,4.667 L69.35,6.633 L72.995,10.704 L73.983,10.704 L73.983,11.579 L73.087,11.579 C72.531,11.579 72.269,11.334 71.959,10.965 L68.669,7.34 L66.971,9.061 L66.971,10.704 L68.174,10.704 L68.174,11.579 L64.855,11.579 L64.855,10.705 L64.856,10.705 L64.856,10.705 Z"></path>
                            <path d="M78.351,11.81 C76.25,11.81 74.597,10.428 74.597,7.677 C74.597,5.404 76.142,3.562 78.351,3.562 C80.56,3.562 82.119,5.373 82.119,7.677 C82.119,10.429 80.451,11.81 78.351,11.81 L78.351,11.81 L78.351,11.81 Z M81.193,7.648 C81.193,5.789 79.973,4.423 78.351,4.423 C76.728,4.423 75.524,5.789 75.524,7.648 C75.524,9.859 76.837,10.95 78.351,10.95 C79.864,10.95 81.193,9.875 81.193,7.648 L81.193,7.648 L81.193,7.648 Z"></path>
                            <path d="M91.028,10.198 C91.028,10.198 89.73,11.811 87.784,11.811 C85.932,11.811 83.892,10.996 83.892,7.986 C83.892,5.345 85.174,3.563 87.66,3.563 C89.497,3.563 90.827,4.561 90.827,6.465 C90.827,6.864 90.733,7.325 90.733,7.325 L89.868,7.325 C89.868,7.325 89.914,6.757 89.914,6.45 C89.914,5.298 89.066,4.423 87.66,4.423 C85.868,4.423 84.818,5.727 84.818,7.955 C84.818,10.182 86.394,10.92 87.783,10.92 C89.235,10.92 90.503,9.644 90.503,9.644 L91.028,10.198 L91.028,10.198 Z"></path>
                            <path d="M92.338,10.705 L93.527,10.705 L93.527,1.15 L92.183,1.15 L92.183,0.276 L93.587,0.276 C94.083,0.276 94.453,0.704 94.453,1.304 L94.453,6.464 C94.484,6.325 95.348,3.562 97.619,3.562 C99.625,3.562 100.121,5.205 100.121,7.047 L100.121,10.704 L101.463,10.704 L101.463,11.579 L100.058,11.579 C99.564,11.579 99.193,11.149 99.193,10.549 L99.193,7.079 C99.193,5.743 98.823,4.468 97.619,4.468 C95.657,4.468 94.638,7.617 94.453,8.323 L94.453,10.705 L95.657,10.705 L95.657,11.58 L92.337,11.58 L92.337,10.705 L92.338,10.705 L92.338,10.705 Z"></path>
                            <path d="M109.819,10.198 C109.819,10.198 108.536,11.811 106.59,11.811 C104.738,11.811 102.777,11.088 102.777,8.094 C102.777,5.375 104.059,3.563 106.545,3.563 C108.382,3.563 109.71,4.699 109.71,6.68 L109.71,7.418 L103.734,7.418 C103.718,7.634 103.702,7.849 103.702,8.063 C103.702,10.258 105.201,10.92 106.589,10.92 C108.041,10.92 109.292,9.644 109.292,9.644 L109.819,10.198 L109.819,10.198 Z M103.889,6.526 L108.8,6.526 C108.722,5.282 107.888,4.423 106.546,4.423 C105.217,4.423 104.289,5.221 103.889,6.526 L103.889,6.526 L103.889,6.526 Z"></path>
                            <path d="M111.67,10.705 L112.859,10.705 L112.859,4.668 L111.515,4.668 L111.515,3.792 L112.919,3.792 C113.414,3.792 113.785,4.223 113.785,4.822 L113.785,6.465 C113.832,6.326 114.696,3.563 116.951,3.563 C118.957,3.563 119.453,5.206 119.453,7.048 L119.453,10.705 L120.795,10.705 L120.795,11.58 L119.39,11.58 C118.896,11.58 118.525,11.15 118.525,10.55 L118.525,7.08 C118.525,5.744 118.155,4.469 116.951,4.469 C114.788,4.469 113.785,8.11 113.785,8.324 L113.785,10.706 L114.988,10.706 L114.988,11.581 L111.669,11.581 L111.669,10.705 L111.67,10.705 L111.67,10.705 Z"></path>
                            <path d="M122.648,11.012 C122.648,10.613 122.911,10.213 123.42,10.213 C123.898,10.213 124.207,10.55 124.207,11.028 C124.207,11.488 123.897,11.811 123.42,11.811 C122.927,11.81 122.648,11.41 122.648,11.012 L122.648,11.012 L122.648,11.012 Z"></path>
                        </g>
                        <g id="Shape" transform="translate(41.000000, 0.000000)">
                            <g id="Group" transform="translate(42.000000, 1.000000)">
                                <path d="M21.98,0.482 C-0.16,5.486 -0.151,38.76 -0.151,38.76 C-0.151,38.76 15.133,40.9 30.377,32.406 C47.995,22.588 44.118,-4.524 21.98,0.482 L21.98,0.482 L21.98,0.482 Z" id="Shape" fill="#7FC143"></path>
                                <path d="M-0.151,38.76 L38.379,4.916 C38.379,4.916 44.506,12.001 39.383,23.049 C38.591,24.759 36.103,28.473 33.146,30.595 C32.632,30.963 19.633,40.523 -0.151,38.76 L-0.151,38.76 L-0.151,38.76 Z" id="Shape" fill="url(#linearGradient-1)"></path>
                            </g>
                            <g id="Group">
                                <path d="M0.972,20.225 C7.382,41.886 40.771,39.794 40.771,39.794 C40.771,39.794 41.961,24.489 32.483,9.89 C21.525,-6.983 -5.437,-1.436 0.972,20.225 L0.972,20.225 L0.972,20.225 Z" id="Shape" fill="#7FC143"></path>
                                <path d="M40.771,39.793 L4.395,3.668 C4.395,3.668 11.121,-2.857 22.528,1.536 C24.294,2.216 28.176,4.451 30.491,7.254 C30.893,7.741 41.301,20.045 40.771,39.793 L40.771,39.793 L40.771,39.793 Z" id="Shape" fill="url(#linearGradient-2)"></path>
                            </g>
                        </g>
                        <path d="M6.3534814,62.4560342 C11.332923,62.4560342 14.553571,58.0600253 14.553571,53.1988304 C14.553571,50.9891963 13.45718,49.2680076 10.8760933,49.2680076 C7.7696528,49.2680076 7.5183966,51.6171975 7.5183966,51.6171975 L8.6376288,53.4081641 C8.1807993,57.3855055 6.7417864,58.2228405 6.7417864,58.2228405 C6.7417864,58.2228405 7.2671403,55.4549831 7.2671403,53.2918676 C7.2671403,50.8031218 6.3763228,49.2680076 4.0693339,49.2680076 C1.4654058,49.2680076 0.026393,50.4542322 0.026393,50.4542322 C0.026393,50.4542322 0.3233321,53.0825338 0.4832224,55.8969099 C0.7573201,60.5022525 2.0821257,62.4560342 6.3534814,62.4560342 L6.3534814,62.4560342 Z M21.154757,56.8040228 C21.154757,56.8040228 21.474537,57.0133566 22.730818,57.0133566 C26.111357,57.0133566 27.87015,55.3852051 27.87015,53.0127559 C27.87015,50.6170474 26.15704,49.0354145 22.433879,49.0354145 C18.41378,49.0354145 15.0104,51.6637161 15.0104,56.5016518 C15.0104,60.5022525 17.340231,62.7118866 21.817159,62.7118866 C25.791576,62.7118866 27.664577,60.688327 27.664577,58.8043231 C27.664577,57.1761717 26.545345,56.664467 26.545345,56.664467 C26.545345,56.664467 24.695185,57.9902474 22.342513,57.9902474 C21.154757,57.9902474 21.154757,56.8040228 21.154757,56.8040228 L21.154757,56.8040228 Z M21.588745,56.1760215 C21.588745,54.8037225 22.022733,53.9431282 22.639453,53.9431282 C22.91355,53.9431282 23.096282,54.1524619 23.096282,54.4780922 C23.096282,55.4782424 22.319672,55.757354 21.588745,56.1760215 L21.588745,56.1760215 Z M41.50651,49.2680076 C39.839083,49.2680076 38.971107,49.52386 38.971107,49.52386 L37.966082,52.2684581 C37.966082,52.2684581 37.874716,49.2680076 34.471336,49.2680076 C30.588286,49.2680076 28.715285,51.9660871 28.715285,55.1293528 C28.715285,57.5715799 29.8802,59.9905478 33.694726,59.9905478 C36.275813,59.9905478 36.869691,58.8275825 36.869691,58.8275825 C36.869691,58.8275825 36.915374,58.9206197 36.915374,59.1532127 C36.915374,59.9672885 36.275813,60.9441793 33.626202,60.9441793 C31.227847,60.9441793 29.332005,59.8509919 29.332005,59.8509919 C29.332005,59.8509919 28.349821,60.618549 28.349821,62.2234412 C28.349821,64.1307043 29.8802,65.8518929 34.608385,65.8518929 C40.592851,65.8518929 42.625743,62.8281831 43.196779,58.7578045 C43.585085,56.0132064 44.019073,52.8964594 44.019073,51.19853 C44.019073,49.7331937 43.014048,49.2680076 41.50651,49.2680076 L41.50651,49.2680076 Z M36.641276,54.6409073 C36.641276,54.6409073 36.435703,56.2923181 36.367179,56.9435787 C36.298654,57.5715799 36.024557,57.804173 35.681934,57.804173 C35.293629,57.804173 35.088056,57.501802 35.088056,56.7342449 C35.088056,54.9665376 35.590569,54.5246108 36.207288,54.5246108 C36.481386,54.5246108 36.641276,54.6409073 36.641276,54.6409073 L36.641276,54.6409073 Z M59.414226,59.7579547 C59.414226,59.7579547 59.117287,59.1299534 59.117287,58.036766 C59.117287,57.8972102 59.117287,57.7576544 59.871056,51.7800127 C59.893897,51.6171975 59.916739,51.3846045 59.916739,51.1752707 C59.916739,49.8029717 58.866031,49.2680076 57.038713,49.2680076 C55.805273,49.2680076 54.845931,49.52386 54.845931,49.52386 L53.840907,52.2684581 C53.840907,52.2684581 53.840907,49.2680076 50.551734,49.2680076 C47.285403,49.2680076 44.544426,52.2219395 44.544426,56.9435787 C44.544426,61.0837352 46.485952,62.4560342 48.861465,62.4560342 C50.688783,62.4560342 52.584625,61.4558841 53.178504,58.339137 C53.178504,58.339137 53.064296,59.1299534 53.064296,59.6881768 C53.064296,61.525662 53.840907,62.4560342 55.508334,62.4560342 C57.404177,62.4560342 59.025921,61.3628468 59.414226,59.7579547 L59.414226,59.7579547 Z M52.19632,57.3389869 C52.150637,57.8506916 51.922223,58.1995812 51.533918,58.1995812 C51.122771,58.1995812 50.917198,57.8506916 50.917198,57.1761717 C50.917198,55.3386865 51.25982,54.5246108 52.059272,54.5246108 C52.264845,54.5246108 52.401894,54.5711294 52.516101,54.6409073 C52.310528,56.2225402 52.287686,56.5249111 52.19632,57.3389869 L52.19632,57.3389869 Z M76.408283,53.5012013 C76.408283,50.965937 74.900746,49.2680076 72.502391,49.2680076 C69.784256,49.2680076 68.253877,50.8496404 67.271693,53.3849048 L67.271693,52.1986802 C67.271693,50.1053426 66.106778,49.2680076 64.416509,49.2680076 C62.771923,49.2680076 61.584166,50.0123054 61.584166,50.0123054 C61.584166,50.0123054 60.327885,59.7114361 60.327885,60.3161781 C60.327885,61.8978109 61.721215,62.4560342 63.662741,62.4560342 C66.28951,62.4560342 67.248852,60.9906979 67.248852,60.9906979 L67.979779,54.7572039 C67.979779,54.7572039 68.276718,54.5246108 68.733548,54.5246108 C69.07617,54.5246108 69.281743,54.7106853 69.281743,55.1060935 C69.281743,56.2457995 68.61934,58.6880266 68.61934,60.0603257 C68.61934,61.7815143 69.944146,62.4560342 72.02272,62.4560342 C75.677356,62.4560342 76.248393,59.7579547 76.248393,59.7579547 C76.248393,59.7579547 75.951454,59.1299534 75.951454,58.036766 C75.951454,56.8272821 76.408283,54.6641666 76.408283,53.5012013 L76.408283,53.5012013 Z M92.054693,59.7579547 C92.054693,59.7579547 91.757754,59.1299534 91.757754,58.036766 C91.757754,57.8972102 91.757754,57.7576544 92.511523,51.7800127 C92.534364,51.6171975 92.557206,51.3846045 92.557206,51.1752707 C92.557206,49.8029717 91.506498,49.2680076 89.67918,49.2680076 C88.44574,49.2680076 87.486398,49.52386 87.486398,49.52386 L86.481373,52.2684581 C86.481373,52.2684581 86.481373,49.2680076 83.192201,49.2680076 C79.92587,49.2680076 77.184893,52.2219395 77.184893,56.9435787 C77.184893,61.0837352 79.126419,62.4560342 81.501932,62.4560342 C83.32925,62.4560342 85.225092,61.4558841 85.818971,58.339137 C85.818971,58.339137 85.704763,59.1299534 85.704763,59.6881768 C85.704763,61.525662 86.481373,62.4560342 88.148801,62.4560342 C90.044643,62.4560342 91.666388,61.3628468 92.054693,59.7579547 L92.054693,59.7579547 Z M84.836787,57.3389869 C84.791104,57.8506916 84.56269,58.1995812 84.174384,58.1995812 C83.763238,58.1995812 83.557665,57.8506916 83.557665,57.1761717 C83.557665,55.3386865 83.900287,54.5246108 84.699738,54.5246108 C84.905312,54.5246108 85.042361,54.5711294 85.156568,54.6409073 C84.950995,56.2225402 84.928153,56.5249111 84.836787,57.3389869 L84.836787,57.3389869 Z M92.922669,61.2465503 C92.922669,61.2465503 93.539389,62.4560342 95.41239,62.4560342 C97.034135,62.4560342 97.879269,61.828033 98.952818,59.7114361 C98.952818,59.7114361 99.13555,62.4560342 102.53893,62.4560342 C106.033675,62.4560342 108.43203,59.2229907 108.43203,54.7804632 C108.43203,50.5240101 106.696078,49.2680076 104.503297,49.2680076 C102.333357,49.2680076 101.168441,50.9426777 101.168441,50.9426777 C101.168441,50.9426777 101.602429,48.384154 101.602429,47.477041 C101.602429,46.0582233 100.574563,45.5 98.724404,45.5 C96.34889,45.5 94.749987,46.5001502 94.749987,46.5001502 L92.922669,61.2465503 L92.922669,61.2465503 Z M100.665929,55.3852051 C100.711612,54.8735004 100.940027,54.5246108 101.328332,54.5246108 C101.670954,54.5246108 101.945052,54.7339446 101.945052,55.5480203 C101.945052,57.0366159 101.625271,57.7809137 100.825819,57.7809137 C100.506039,57.7809137 100.36899,57.6646171 100.36899,57.6646171 C100.574563,56.0829843 100.574563,56.1992809 100.665929,55.3852051 L100.665929,55.3852051 Z M134.927846,58.106544 C134.927846,56.1527622 133.785772,55.2921679 130.999112,55.2921679 C127.595732,55.2921679 126.225244,56.6412077 126.225244,59.7579547 C126.225244,61.8745516 127.344476,62.6421087 130.108294,62.6421087 C133.717247,62.6421087 134.927846,61.0837352 134.927846,58.106544 L134.927846,58.106544 Z M152.328024,47.4537817 C152.328024,46.0582233 151.300158,45.5 149.449998,45.5 C147.074485,45.5 145.475582,46.5001502 145.475582,46.5001502 L144.995911,50.5937881 C144.995911,50.5937881 144.836021,49.2680076 142.483349,49.2680076 C139.239859,49.2680076 136.476041,52.2219395 136.476041,56.9435787 C136.476041,61.2465503 138.531774,62.4560342 140.79308,62.4560342 C143.12291,62.4560342 144.51624,61.0372165 145.110118,58.339137 C145.110118,58.339137 144.995911,59.1066941 144.995911,59.6881768 C144.995911,61.4093654 145.74968,62.4560342 147.3029,62.4560342 C150.751962,62.4560342 151.345841,59.7579547 151.345841,59.7579547 C151.345841,59.7579547 151.048902,59.1299534 151.048902,58.036766 C151.048902,57.1296531 152.328024,48.2911167 152.328024,47.4537817 L152.328024,47.4537817 Z M144.127935,57.3389869 C144.082252,57.8506916 143.853837,58.1995812 143.465532,58.1995812 C143.12291,58.1995812 142.848812,57.9902474 142.848812,57.1761717 C142.848812,55.4782424 143.191434,54.5246108 143.990886,54.5246108 C144.196459,54.5246108 144.333508,54.5711294 144.447716,54.6409073 C144.242142,56.2225402 144.219301,56.5249111 144.127935,57.3389869 L144.127935,57.3389869 Z M158.563747,56.8040228 C158.563747,56.8040228 158.883527,57.0133566 160.139808,57.0133566 C163.520347,57.0133566 165.27914,55.3852051 165.27914,53.0127559 C165.27914,50.6170474 163.56603,49.0354145 159.842869,49.0354145 C155.82277,49.0354145 152.41939,51.6637161 152.41939,56.5016518 C152.41939,60.5022525 154.74922,62.7118866 159.226149,62.7118866 C163.200566,62.7118866 165.073567,60.688327 165.073567,58.8043231 C165.073567,57.1761717 163.954335,56.664467 163.954335,56.664467 C163.954335,56.664467 162.104175,57.9902474 159.751503,57.9902474 C158.563747,57.9902474 158.563747,56.8040228 158.563747,56.8040228 L158.563747,56.8040228 Z M158.997735,56.1760215 C158.997735,54.8037225 159.431723,53.9431282 160.048442,53.9431282 C160.32254,53.9431282 160.505272,54.1524619 160.505272,54.4780922 C160.505272,55.4782424 159.728662,55.757354 158.997735,56.1760215 L158.997735,56.1760215 Z" id="veganabo" fill="#57585A"></path>
                    </g>
                </g>
            </g>
        </g>
    </g>
</svg>