<?xml version="1.0" encoding="UTF-8" standalone="no"?>
<svg width="397px" height="171px" viewBox="0 0 397 171" version="1.1" xmlns="http://www.w3.org/2000/svg" xmlns:xlink="http://www.w3.org/1999/xlink" xmlns:sketch="http://www.bohemiancoding.com/sketch/ns">
    <!-- Generator: Sketch 3.0.3 (7891) - http://www.bohemiancoding.com/sketch -->
    <title>Untitled</title>
    <desc>Created with Sketch.</desc>
    <defs></defs>
    <g id="Page-1" stroke="none" stroke-width="1" fill="none" fill-rule="evenodd" sketch:type="MSPage">
        <g id="Logo_02_2013_farbig" sketch:type="MSLayerGroup">
            <path d="M82.575,164.164 C127.976,164.164 164.78,127.361 164.78,81.962 C164.78,36.561 127.976,-0.244 82.575,-0.244 C37.175,-0.244 0.37,36.561 0.37,81.962 C0.37,127.361 37.175,164.164 82.575,164.164" id="Fill-1" fill="#D5DCB7" sketch:type="MSShapeGroup"></path>
            <path d="M354.214,104.965 L344.026,104.947 L358.817,82.376 C360.388,80.538 361.259,78.356 361.583,77.429 L361.966,76.325 L361.966,71.159 C361.966,64.522 356.7,60.942 351.741,60.942 L320.136,60.942 C315.231,60.942 311.993,63.723 310.687,67.026 L309.591,67.026 C308.341,65.241 306.716,63.571 304.583,62.337 C301.583,60.591 297.905,59.712 293.651,59.712 C289.868,59.712 285.823,60.448 282.821,61.698 C281.37,62.308 279.726,63.272 278.132,64.334 C276.997,63.028 275.608,61.938 273.927,61.294 L272.798,60.923 L264.88,60.923 L263.716,61.093 C261.085,62.001 258.433,64.079 257.183,67.026 L254.866,67.026 C253.577,65.472 251.968,64.079 249.954,63.057 C245.651,60.883 239.843,59.676 233.593,59.676 C228.851,59.676 224.13,60.387 219.95,61.731 C217.548,62.501 213.761,63.723 210.849,65.798 C208.749,62.631 204.931,60.909 201.267,60.837 L181.614,60.829 C172.78,60.829 166.767,63.043 162.724,67.026 L157.665,67.026 C157.405,66.741 157.151,66.444 156.876,66.172 C150.862,60.143 139.503,59.676 136.163,59.676 C131.823,59.676 125.97,59.831 122.702,60.599 C117.892,61.725 114.534,64.243 112.192,67.026 L111.741,67.026 L111.741,67.577 C110.438,69.233 109.479,70.964 108.78,72.534 C106.101,78.555 105.698,88.121 105.698,93.285 C105.698,106.42 107.163,113.406 107.548,115.012 C108.714,120.992 115.358,131.785 132.806,131.785 C149.153,131.785 155.017,126.992 157.839,124.688 L158.13,124.447 C159.171,123.619 159.97,122.691 160.581,121.734 L161.241,121.734 C162.046,122.756 162.999,123.774 164.147,124.738 C163.288,125.149 162.673,125.559 162.382,125.781 L161.577,126.363 L160.972,127.145 C159.405,129.172 157.394,131.836 156.694,133.035 C154.29,137.18 156.315,141.43 156.995,142.637 L157.222,143.041 L157.503,143.41 C164.169,152.231 179.351,153.227 183.007,153.336 C183.423,153.371 184.12,153.41 185.013,153.41 C188.872,153.41 196.358,152.621 203.188,147.332 C209.407,142.527 211.485,133.043 212.169,126.52 C216.224,129.795 221.628,131.68 227.884,131.68 C233.448,131.68 237.835,130.186 241.099,128.402 C242.921,129.777 245.179,130.649 247.849,130.649 L254.47,130.649 L255.249,130.471 C256.046,130.277 258.089,129.68 259.935,128.203 C261.696,129.715 264.079,130.77 266.997,130.77 L275.267,130.77 L276.194,130.496 C279.62,129.527 283.276,126.399 283.774,121.734 L286.362,121.734 C287.192,126.176 291.138,130.531 297.341,130.531 L304.271,130.531 L304.911,130.416 C306.878,130.039 308.905,129.07 310.517,127.57 C312.153,129.09 314.249,130.121 316.337,130.594 L317.085,130.77 L353.567,130.77 C357.427,130.77 359.8,129.111 361.112,127.731 C363.415,125.297 363.683,122.445 363.679,121.211 L363.679,113.93 C363.679,109.078 359.788,105.399 354.214,104.965" id="Fill-2" fill="#465A1E" sketch:type="MSShapeGroup"></path>
            <path d="M357.069,121.227 L357.069,113.93 C357.069,112.096 353.987,111.867 353.987,111.867 L331.54,111.867 L353.634,78.144 C354.677,77.101 355.358,75.152 355.358,75.152 L355.358,71.161 C355.358,67.823 352.05,67.856 352.05,67.856 L320.442,67.856 C317.302,67.856 317.247,70.364 317.247,70.364 C317.247,70.364 317.368,74.303 317.368,75.958 C317.368,77.608 319.989,78.458 319.989,78.458 L338.812,78.458 L314.628,115.293 L314.628,120.539 C314.628,123.049 318.163,123.844 318.163,123.844 L353.876,123.844 C357.21,123.844 357.069,121.227 357.069,121.227" id="Fill-3" fill="#EEF3CF" sketch:type="MSShapeGroup"></path>
            <path d="M301.417,68.309 C296.788,65.62 289.335,66.606 285.786,68.084 C282.235,69.565 276.085,74.811 276.085,74.811 C276.085,74.811 274.415,68.653 271.751,67.63 L266.274,67.63 C266.274,67.63 263.647,68.528 263.647,70.713 L263.647,121.342 C263.647,121.342 264.341,123.844 267.302,123.844 L274.606,123.844 C274.606,123.844 277.229,123.1 277.229,120.658 L277.229,86.105 C277.229,86.105 281.923,80.627 288.638,77.781 C288.638,77.781 293.435,75.389 293.435,79.727 L293.435,120.328 C293.435,120.328 293.896,123.619 297.649,123.619 L303.931,123.619 C303.931,123.619 307.005,123.035 307.005,120.43 L307.005,78.35 C307.005,78.35 306.052,71.003 301.417,68.309" id="Fill-4" fill="#EEF3CF" sketch:type="MSShapeGroup"></path>
            <path d="M239.261,106.856 C239.261,106.856 237.829,114.379 229.903,114.379 C225.413,114.379 225.112,109.59 225.112,109.59 C225.112,109.59 223.706,102.172 230.36,99.443 C237.019,96.715 239.261,97.168 239.261,97.168 L239.261,106.856 L239.261,106.856 Z M253.409,107.656 L253.409,81.43 C253.409,81.43 252.903,72.149 247.13,69.219 C241.366,66.299 230.972,65.555 222.372,68.31 C213.778,71.072 213.929,72.876 213.929,72.876 C213.929,72.876 212.724,73.536 213.702,75.271 C214.679,77.005 216.556,80.398 216.556,80.398 C216.556,80.398 219.009,81.571 221.118,80.288 C223.228,79.002 226.812,76.977 232.985,76.977 C239.155,76.977 239.601,80.398 239.601,80.398 L239.601,88.039 C239.601,88.039 227.966,87.863 221.577,91.807 C215.183,95.75 211.534,99.637 211.534,109.25 C211.534,118.863 218.224,124.768 228.192,124.768 C238.161,124.768 243.022,118.375 243.022,118.375 C243.022,118.375 243.97,123.738 248.163,123.738 L253.981,123.738 C253.981,123.738 257.79,122.846 256.491,120.201 C255.188,117.553 253.409,114.781 253.409,107.656 L253.409,107.656 Z" id="Fill-5" fill="#EEF3CF" sketch:type="MSShapeGroup"></path>
            <path d="M192.079,107.203 C192.079,107.203 189.616,111.988 182.61,111.988 C180.382,111.988 178.161,111.477 177.138,109.024 C174.923,103.727 175.19,94.918 175.19,94.918 C175.19,94.918 175.194,85.061 177.36,81.538 C179.526,78.02 182.384,78.35 182.384,78.35 L192.079,78.459 L192.079,107.203 L192.079,107.203 Z M205.886,71.391 C205.886,67.836 201.435,67.74 201.435,67.74 L181.923,67.74 C167.065,67.74 162.3,73.862 162.3,95.227 C162.3,104.424 163.347,111.852 166.054,116.172 C169.64,121.891 175.56,122.934 180.212,122.934 C188.382,122.934 193.104,118.836 193.104,118.836 L193.104,123.164 C193.104,132.281 189.214,135.82 182.839,135.82 C176.46,135.82 172.704,131.486 170.739,130.691 C168.784,129.891 166.751,131.379 166.751,131.379 C166.751,131.379 163.597,135.459 162.985,136.504 C162.372,137.557 163.323,139.242 163.323,139.242 C168.495,146.09 183.729,146.428 183.729,146.428 C183.729,146.428 192.073,147.43 199.267,141.871 C206.054,136.613 205.886,120.18 205.886,120.18 L205.886,71.391 L205.886,71.391 Z" id="Fill-6" fill="#EEF3CF" sketch:type="MSShapeGroup"></path>
            <path d="M143.542,88.608 L126.046,88.608 C126.046,88.608 126.222,83.602 126.841,81.654 C127.456,79.706 128.216,76.719 135.71,76.719 C143.571,76.719 143.542,83.703 143.542,83.703 L143.542,88.608 L143.542,88.608 Z M156.048,94.197 L156.048,81.43 C156.048,81.43 155.899,74.674 152.288,71.051 C148.722,67.479 140.802,66.594 136.476,66.594 C132.138,66.594 127.001,66.769 124.64,67.325 C123.159,67.665 118.351,68.715 115.405,75.346 C113.644,79.31 112.921,86.484 112.921,93.285 C112.921,107.059 114.62,113.561 114.62,113.561 C114.62,113.561 116.515,124.877 133.116,124.877 C147.714,124.877 151.888,120.842 154.108,119.057 C156.335,117.275 155.253,115.184 155.253,115.184 C155.253,115.184 153.46,111.363 151.831,109.93 C150.188,108.504 148.407,109.598 148.407,109.598 L145.327,111.414 C140.71,114.498 135.05,114.119 135.05,114.119 C135.05,114.119 129.292,114.643 127.188,110.279 C125.86,107.535 125.81,97.619 125.81,97.619 C125.81,97.619 147.683,97.502 152.054,97.502 C156.728,97.502 156.048,94.197 156.048,94.197 L156.048,94.197 Z" id="Fill-7" fill="#EEF3CF" sketch:type="MSShapeGroup"></path>
            <path d="M34.769,96.639 C39.394,113.869 44.776,132.576 46.814,139.602 C48.401,144.852 52.86,148.25 58.173,148.25 C58.487,148.25 58.792,148.238 59.058,148.217 L80.044,148.16 C80.261,148.18 80.472,148.18 80.69,148.18 C82.673,148.18 87.581,147.512 91.081,141.539 C92.452,139.262 92.812,138.375 93.331,137.336 C100.968,122.75 128.372,68.812 133.292,37.605 C133.772,34.59 132.997,31.708 131.104,29.508 C130.229,28.479 129.13,27.663 127.923,27.085 C126.403,26.401 124.239,26.007 122.622,25.7 C120.241,25.262 117.015,24.759 114.614,24.759 L114.415,24.759 C105.702,24.952 101.144,26.148 95.909,29.645 C94.073,30.751 91.478,33.054 91.032,37.302 L90.987,37.686 C90.13,47.526 82.079,63.352 75.142,76.297 L71.222,64.948 C69.911,60.642 65.952,57.687 61.419,57.679 C60.661,57.644 59.884,57.626 59.102,57.626 C55.45,57.626 49.454,57.972 43.21,59.784 C41.679,60.217 39.29,61.118 35.909,62.648 C35.614,62.794 35.311,62.948 35.013,63.1 C32.071,64.686 30.12,67.319 29.409,70.391 C28.698,73.45 29.382,75.61 29.382,75.61 C29.429,75.842 29.483,76.075 29.544,76.302 C30.544,80.495 31.79,85.379 33.151,90.563" id="Fill-8" fill="#465A1E" sketch:type="MSShapeGroup"></path>
            <path d="M100.22,36.975 C103.591,34.676 106.179,33.583 114.327,33.397 C117.427,33.397 123.456,34.76 123.456,34.76 C123.456,34.76 124.71,34.76 124.464,36.262 C119.663,66.75 90.642,123.875 83.487,136.932 C81.831,139.949 80.177,139.52 80.177,139.52 L57.716,139.568 C57.716,139.568 55.464,139.568 54.798,137.102 C52.026,127.543 37.659,74.255 37.659,74.255 C37.659,74.255 36.671,71.727 38.835,70.709 C45.218,67.209 53.931,66.004 61.013,66.315 C62.366,66.248 62.69,67.553 62.69,67.553 L72.735,96.648 C72.735,96.648 73.569,97.291 73.833,96.633 C81.542,81.251 97.878,54.916 99.315,38.43 C99.37,37.995 99.335,37.432 100.22,36.975" id="Fill-9" fill="#EEF3CF" sketch:type="MSShapeGroup"></path>
            <path d="M69.552,98.025 C68.802,96.863 51.226,69.34 54.036,47.657 C56.454,28.999 65.554,18.93 72.89,18.93 C75.089,18.93 78.249,19.784 80.808,23.851 L81.19,24.464 L80.925,25.135 C79.513,28.693 78.495,32.073 77.769,35.085 C78.896,32.318 80.116,29.624 81.304,27.335 C86.03,18.225 89.886,14.996 96.034,14.996 L96.202,14.997 C102.263,15.503 106.714,18.249 109.177,22.945 C113.054,30.337 111.343,41.758 104.604,53.505 C93.911,72.135 72.054,97.916 71.835,98.176 L70.593,99.637 L69.552,98.025" id="Fill-10" fill="#B0CE39" sketch:type="MSShapeGroup"></path>
            <path d="M96.034,13.571 C89.577,13.571 85.622,17.138 82.023,23.11 L82.013,23.092 C79.747,19.489 76.507,17.505 72.89,17.505 C64.749,17.505 55.175,27.798 52.624,47.474 C49.745,69.669 67.593,97.617 68.354,98.797 L70.435,102.02 L72.921,99.098 C73.819,98.039 95.081,72.959 105.839,54.214 C112.929,41.862 114.604,30.224 110.44,22.282 C107.776,17.206 102.8,14.116 96.427,13.581 L96.323,13.573 L96.218,13.573 L96.034,13.571 L96.034,13.571 Z M96.034,16.421 L96.188,16.421 C111.062,17.669 114.218,33.893 103.368,52.795 C92.616,71.528 70.749,97.252 70.749,97.252 C70.749,97.252 52.673,69.256 55.45,47.84 C57.69,30.547 65.96,20.354 72.89,20.356 C75.427,20.356 77.784,21.722 79.601,24.61 C74.575,37.284 74.376,48.094 74.866,48.094 C74.921,48.094 74.983,47.962 75.048,47.683 C76.376,42.022 79.743,33.438 82.569,27.991 C86.989,19.469 90.483,16.421 96.034,16.421 L96.034,16.421 Z" id="Fill-11" fill="#465A1E" sketch:type="MSShapeGroup"></path>
            <path d="M98.218,27.092 C101.134,27.928 103.956,27.006 104.522,25.032 C105.089,23.059 102.476,20.732 99.56,19.895 C96.646,19.059 94.53,20.031 93.964,22.005 C93.397,23.977 95.302,26.256 98.218,27.092" id="Fill-12" fill="#FFFFFF" sketch:type="MSShapeGroup"></path>
            <path d="M372.999,61.373 C372.999,61.895 372.536,62.387 371.812,62.387 C371.579,62.387 371.55,62.387 371.259,62.301 L371.259,60.358 C371.491,60.329 371.579,60.27 371.724,60.27 C372.651,60.27 372.999,60.735 372.999,61.373 L372.999,61.373 Z M374.651,66.274 L372.767,63.2 C373.782,62.823 374.333,62.098 374.333,61.227 C374.333,60.096 373.638,59.255 371.868,59.255 C371.317,59.255 370.767,59.285 369.954,59.285 L369.954,66.274 L371.259,66.274 L371.259,63.403 L371.491,63.403 L373.058,66.274 L374.651,66.274 L374.651,66.274 Z M377.319,62.852 C377.319,65.751 375.001,68.13 372.13,68.13 C369.112,68.13 366.794,65.751 366.794,62.88 C366.794,59.922 369.112,57.545 372.13,57.545 C375.001,57.545 377.319,59.893 377.319,62.852 L377.319,62.852 Z M378.479,62.794 C378.479,59.285 375.638,56.356 372.071,56.356 C368.505,56.356 365.634,59.255 365.634,62.794 C365.634,66.389 368.532,69.26 372.071,69.26 C375.667,69.26 378.479,66.418 378.479,62.794 L378.479,62.794 Z" id="Fill-13" fill="#465A1E" sketch:type="MSShapeGroup"></path>
            <path d="M222.886,156.301 L224.573,151.024 C224.923,149.957 225.29,148.578 225.524,147.609 L225.563,147.609 C225.794,148.598 226.183,149.899 226.513,150.965 L228.181,156.301 L231.052,156.301 L233.167,142.352 L230.218,142.352 L229.384,148.424 C229.247,149.453 229.112,150.848 229.054,151.955 C229.054,151.955 229.036,151.975 229.017,151.975 L226.765,143.613 L224.397,143.613 L222.052,151.955 C222.032,151.955 222.013,151.936 222.013,151.936 C221.954,150.635 221.817,149.356 221.683,148.346 L220.868,142.352 L217.919,142.352 L220.013,156.301 L222.886,156.301" id="Fill-14" fill="#465A1E" sketch:type="MSShapeGroup"></path>
            <path d="M234.815,143.186 C234.815,144.215 235.495,144.816 236.466,144.816 C237.415,144.816 238.153,144.291 238.153,143.186 C238.153,142.1 237.513,141.537 236.466,141.537 C235.534,141.537 234.815,142.1 234.815,143.186 L234.815,143.186 Z M235.009,156.301 L237.958,156.301 L237.958,145.902 L235.009,145.902 L235.009,156.301 Z" id="Fill-15" fill="#465A1E" sketch:type="MSShapeGroup"></path>
            <path d="M245.466,145.727 C244.36,145.727 243.7,146.387 243.235,146.969 L243.079,145.902 L240.481,145.902 L240.481,156.301 L243.448,156.301 L243.448,149.123 C243.817,148.793 244.458,148.443 245.06,148.443 C245.583,148.443 245.874,148.578 246.204,148.832 L246.845,146.309 C246.513,145.998 246.087,145.727 245.466,145.727" id="Fill-16" fill="#465A1E" sketch:type="MSShapeGroup"></path>
            <path d="M252.626,153.371 C252.626,155.234 253.245,156.514 255.554,156.514 C256.329,156.514 257.224,156.359 257.999,155.99 L257.649,153.758 C257.106,154.012 256.776,154.09 256.427,154.09 C255.845,154.09 255.573,153.758 255.573,152.943 L255.573,142.352 L252.626,142.352 L252.626,153.371" id="Fill-17" fill="#465A1E" sketch:type="MSShapeGroup"></path>
            <path d="M259.356,143.186 C259.356,144.215 260.036,144.816 261.005,144.816 C261.956,144.816 262.692,144.291 262.692,143.186 C262.692,142.1 262.052,141.537 261.005,141.537 C260.075,141.537 259.356,142.1 259.356,143.186 L259.356,143.186 Z M259.55,156.301 L262.499,156.301 L262.499,145.902 L259.55,145.902 L259.55,156.301 Z" id="Fill-18" fill="#465A1E" sketch:type="MSShapeGroup"></path>
            <path d="M270.122,149.918 L267.522,149.918 C267.522,148.695 267.95,147.822 268.862,147.822 C269.657,147.822 270.122,148.463 270.122,149.918 L270.122,149.918 Z M272.858,151.645 L272.858,150.617 C272.858,147.531 271.655,145.727 268.882,145.727 C266.495,145.727 264.536,147.26 264.536,150.984 C264.536,153.953 265.563,156.514 269.425,156.514 C270.685,156.514 271.927,156.164 272.646,155.797 L272.509,153.332 C271.54,153.875 270.685,154.127 269.716,154.127 C268.513,154.127 267.581,153.371 267.505,151.645 L272.858,151.645 L272.858,151.645 Z" id="Fill-19" fill="#465A1E" sketch:type="MSShapeGroup"></path>
            <path d="M280.618,150.811 C280.618,153.002 280.229,154.264 278.872,154.264 C278.251,154.264 277.882,154.07 277.728,153.973 L277.728,148.559 C277.921,148.424 278.581,148.055 279.239,148.055 C280.153,148.055 280.618,148.774 280.618,150.811 L280.618,150.811 Z M277.728,146.524 L277.728,142.352 L274.798,142.352 L274.798,155.602 C275.632,156.047 277.146,156.514 278.601,156.514 C282.188,156.514 283.626,153.973 283.626,150.344 C283.626,147.027 282.169,145.727 280.21,145.727 C278.97,145.727 277.94,146.367 277.728,146.524 L277.728,146.524 Z" id="Fill-20" fill="#465A1E" sketch:type="MSShapeGroup"></path>
            <path d="M290.763,149.918 L288.165,149.918 C288.165,148.695 288.591,147.822 289.503,147.822 C290.298,147.822 290.763,148.463 290.763,149.918 L290.763,149.918 Z M293.499,151.645 L293.499,150.617 C293.499,147.531 292.296,145.727 289.522,145.727 C287.136,145.727 285.177,147.26 285.177,150.984 C285.177,153.953 286.204,156.514 290.065,156.514 C291.325,156.514 292.567,156.164 293.286,155.797 L293.149,153.332 C292.181,153.875 291.325,154.127 290.356,154.127 C289.153,154.127 288.222,153.371 288.146,151.645 L293.499,151.645 L293.499,151.645 Z" id="Fill-21" fill="#465A1E" sketch:type="MSShapeGroup"></path>
            <path d="M298.058,145.902 L295.438,145.902 L295.438,156.301 L298.407,156.301 L298.407,148.852 C298.813,148.522 299.435,148.152 300.095,148.152 C300.657,148.152 301.065,148.346 301.122,148.967 C301.142,149.123 301.142,149.414 301.142,149.627 L301.142,156.301 L304.091,156.301 L304.091,149.258 C304.091,148.889 304.071,148.328 304.013,147.959 C303.8,146.58 302.966,145.727 301.122,145.727 C299.882,145.727 298.892,146.233 298.175,146.813 L298.058,145.902" id="Fill-22" fill="#465A1E" sketch:type="MSShapeGroup"></path>
            <path d="M311.347,156.301 L320.058,156.301 L320.058,153.953 L314.372,153.953 L314.372,142.352 L311.347,142.352 L311.347,156.301" id="Fill-23" fill="#465A1E" sketch:type="MSShapeGroup"></path>
            <path d="M326.944,149.918 L324.345,149.918 C324.345,148.695 324.771,147.822 325.683,147.822 C326.478,147.822 326.944,148.463 326.944,149.918 L326.944,149.918 Z M329.681,151.645 L329.681,150.617 C329.681,147.531 328.478,145.727 325.702,145.727 C323.317,145.727 321.356,147.26 321.356,150.984 C321.356,153.953 322.384,156.514 326.245,156.514 C327.507,156.514 328.747,156.164 329.466,155.797 L329.329,153.332 C328.36,153.875 327.507,154.127 326.536,154.127 C325.333,154.127 324.403,153.371 324.325,151.645 L329.681,151.645 L329.681,151.645 Z" id="Fill-24" fill="#465A1E" sketch:type="MSShapeGroup"></path>
            <path d="M337.438,150.811 C337.438,153.002 337.052,154.264 335.692,154.264 C335.071,154.264 334.704,154.07 334.548,153.973 L334.548,148.559 C334.743,148.424 335.403,148.055 336.062,148.055 C336.974,148.055 337.438,148.774 337.438,150.811 L337.438,150.811 Z M334.548,146.524 L334.548,142.352 L331.618,142.352 L331.618,155.602 C332.454,156.047 333.966,156.514 335.421,156.514 C339.011,156.514 340.446,153.973 340.446,150.344 C340.446,147.027 338.991,145.727 337.032,145.727 C335.79,145.727 334.763,146.367 334.548,146.524 L334.548,146.524 Z" id="Fill-25" fill="#465A1E" sketch:type="MSShapeGroup"></path>
            <path d="M347.585,149.918 L344.985,149.918 C344.985,148.695 345.411,147.822 346.323,147.822 C347.118,147.822 347.585,148.463 347.585,149.918 L347.585,149.918 Z M350.321,151.645 L350.321,150.617 C350.321,147.531 349.118,145.727 346.343,145.727 C343.958,145.727 341.997,147.26 341.997,150.984 C341.997,153.953 343.026,156.514 346.888,156.514 C348.147,156.514 349.39,156.164 350.106,155.797 L349.972,153.332 C349.001,153.875 348.147,154.127 347.177,154.127 C345.974,154.127 345.044,153.371 344.966,151.645 L350.321,151.645 L350.321,151.645 Z" id="Fill-26" fill="#465A1E" sketch:type="MSShapeGroup"></path>
            <path d="M354.88,145.902 L352.259,145.902 L352.259,156.301 L355.228,156.301 L355.228,148.852 C355.636,148.522 356.257,148.152 356.915,148.152 C357.478,148.152 357.886,148.346 357.944,148.967 C357.964,149.123 357.964,149.414 357.964,149.627 L357.964,156.301 L360.911,156.301 L360.911,149.258 C360.911,148.889 360.894,148.328 360.835,147.959 C360.622,146.58 359.786,145.727 357.944,145.727 C356.702,145.727 355.714,146.233 354.995,146.813 L354.88,145.902" id="Fill-27" fill="#465A1E" sketch:type="MSShapeGroup"></path>
        </g>
    </g>
</svg>